<svg xmlns="http://www.w3.org/2000/svg" width="22" height="22" viewBox="0 0 22 22">
  <g id="chat_icon" transform="translate(0 -0.323)">
    <g id="Rectangle_1259" data-name="Rectangle 1259" transform="translate(0 0.323)" fill="#363636" stroke="#707070" stroke-width="1" opacity="0">
      <rect width="22" height="22" stroke="none"/>
      <rect x="0.5" y="0.5" width="21" height="21" fill="none"/>
    </g>
    <g id="Group_11601" data-name="Group 11601" transform="translate(3.504 4.431)">
      <g id="Path_17947" data-name="Path 17947" transform="translate(2.404)">
        <path id="Path_17947-2" data-name="Path 17947" d="M-1613.675,396.6h0a1,1,0,0,1-.321-.071l-1.829-.647a.487.487,0,0,0-.155-.035.352.352,0,0,0-.124.022c-.1.037-.484.179-.875.286a7.2,7.2,0,0,1-1.656.269h-.018a6.076,6.076,0,0,1-6.109-6.042,5.813,5.813,0,0,1,.133-1.227,6.124,6.124,0,0,1,6.076-4.749,6.107,6.107,0,0,1,6.183,5.965,5.8,5.8,0,0,1-.99,3.248l-.052.073a.285.285,0,0,0-.032.085l.514,1.817a.994.994,0,0,1,.034.193.8.8,0,0,1-.229.589A.771.771,0,0,1-1613.675,396.6Zm-2.307-1.787a1.368,1.368,0,0,1,.523.1l1.411.5-.437-1.587a1.312,1.312,0,0,1,.178-.659,1.644,1.644,0,0,1,.1-.155,4.747,4.747,0,0,0,.8-2.637,5.018,5.018,0,0,0-5.132-4.94,5.079,5.079,0,0,0-5.087,3.945,4.749,4.749,0,0,0-.107,1,4.991,4.991,0,0,0,1.481,3.548,4.993,4.993,0,0,0,3.544,1.463h.015a6.254,6.254,0,0,0,1.431-.232c.352-.1.7-.223.786-.257A1.035,1.035,0,0,1-1615.982,394.808Z" transform="translate(1624.767 -384.4)" fill="#363636"/>
      </g>
      <g id="Path_17948" data-name="Path 17948" transform="translate(0 4.837)">
        <path id="Path_17948-2" data-name="Path 17948" d="M-1617.333,397.354c-.129.164-.223.293-.223.293a5.717,5.717,0,0,1-4.356,2.006,6.246,6.246,0,0,1-2.2-.439.594.594,0,0,0-.439-.009l-2.031.8a.229.229,0,0,1-.1.026.321.321,0,0,1-.189-.069.3.3,0,0,1-.095-.276s.422-2.186.43-2.255-.034-.164-.112-.284a5.342,5.342,0,0,1-.9-2.978,5.389,5.389,0,0,1,1.877-4.063l.095-.086a4.485,4.485,0,0,0-.172.585,5.771,5.771,0,0,0-.129,1.222,6.077,6.077,0,0,0,6.112,6.043h.017a7.124,7.124,0,0,0,1.653-.267C-1617.807,397.518-1617.5,397.414-1617.333,397.354Z" transform="translate(1627.56 -390.02)" fill="#363636"/>
      </g>
    </g>
  </g>
</svg>
