<svg xmlns="http://www.w3.org/2000/svg" width="10.505" height="9.638" viewBox="0 0 10.505 9.638">
  <g id="love-icon" transform="translate(-3 -4.5)" fill="#fff">
    <path d="M 8.25361156463623 13.46303558349609 L 7.82733154296875 13.07497406005859 L 7.819991588592529 13.06831359863281 C 5.218591690063477 10.70938396453857 3.500001668930054 9.150983810424805 3.500001668930054 7.38878345489502 C 3.500001668930054 6.049283504486084 4.549281597137451 5.000003814697266 5.888781547546387 5.000003814697266 C 6.638821601867676 5.000003814697266 7.380081653594971 5.34463357925415 7.871651649475098 5.921903610229492 L 8.252331733703613 6.368943691253662 L 8.633011817932129 5.921903610229492 C 9.124581336975098 5.34463357925415 9.865841865539551 5.000003814697266 10.61588191986084 5.000003814697266 C 11.95538139343262 5.000003814697266 13.00466156005859 6.049283504486084 13.00466156005859 7.38878345489502 C 13.00466156005859 9.147843360900879 11.29153156280518 10.70463371276855 8.698371887207031 13.06111335754395 L 8.677661895751953 13.07993316650391 L 8.25361156463623 13.46303558349609 Z" stroke="none"/>
    <path d="M 8.25489330291748 12.78804969787598 L 8.341391563415527 12.70990371704102 L 8.362112045288086 12.69107341766357 C 10.85666179656982 10.42419338226318 12.50466156005859 8.926603317260742 12.50466156005859 7.38878345489502 C 12.50466156005859 6.329653739929199 11.67501163482666 5.500003814697266 10.61588191986084 5.500003814697266 C 10.0104513168335 5.500003814697266 9.411501884460449 5.778903484344482 9.013691902160645 6.246073722839355 L 8.252331733703613 7.140143394470215 L 7.490971565246582 6.246073722839355 C 7.093161582946777 5.778903484344482 6.494211673736572 5.500003814697266 5.888781547546387 5.500003814697266 C 4.829651832580566 5.500003814697266 4.000001907348633 6.329653739929199 4.000001907348633 7.38878345489502 C 4.000001907348633 8.929423332214355 5.653291702270508 10.42861366271973 8.155861854553223 12.69792366027832 L 8.163921356201172 12.70523357391357 L 8.25489330291748 12.78804969787598 M 8.252331733703613 14.13802337646484 L 7.490741729736328 13.4447135925293 C 4.785791873931885 10.99188327789307 3.000001668930054 9.374163627624512 3.000001668930054 7.38878345489502 C 3.000001668930054 5.771063804626465 4.271061897277832 4.500003814697266 5.888781547546387 4.500003814697266 C 6.80269193649292 4.500003814697266 7.679831504821777 4.92543363571167 8.252331733703613 5.597733497619629 C 8.824831962585449 4.92543363571167 9.701972007751465 4.500003814697266 10.61588191986084 4.500003814697266 C 12.23360157012939 4.500003814697266 13.50466156005859 5.771063804626465 13.50466156005859 7.38878345489502 C 13.50466156005859 9.374163627624512 11.7188720703125 10.99188327789307 9.013921737670898 13.44997406005859 L 8.252331733703613 14.13802337646484 Z" stroke="none" fill="#fff"/>
  </g>
</svg>
