<svg id="new_path" xmlns="http://www.w3.org/2000/svg" width="19.424" height="22.279" viewBox="0 0 19.424 22.279">
  <path id="Path_14780" data-name="Path 14780" d="M-554.9,537.974a.516.516,0,0,0-.239-.315.516.516,0,0,0-.392-.054h0a.517.517,0,0,0-.365.633l.607,2.267-2.585-2.052a.516.516,0,0,0-.38-.109.516.516,0,0,0-.346.193.52.52,0,0,0-.094.455l.938,3.5a.518.518,0,0,0,.616.393.517.517,0,0,0,.324-.227.517.517,0,0,0,.069-.39.165.165,0,0,0-.011-.044l-.533-1.987,2.585,2.052a.518.518,0,0,0,.726-.084.52.52,0,0,0,.094-.455Z" transform="translate(561.958 -524.321)" fill="#5a5a5a"/>
  <path id="Path_14781" data-name="Path 14781" d="M-547.443,535.436a.518.518,0,0,0-.365.634l.416,1.551-.462-.483a.518.518,0,0,0-.731-.015.528.528,0,0,0-.141.238l-.208.77-.44-1.643a.517.517,0,0,0-.649-.337.517.517,0,0,0-.349.6l.938,3.5a.516.516,0,0,0,.241.314.516.516,0,0,0,.393.05.515.515,0,0,0,.364-.364l.465-1.74,1.223,1.278a.518.518,0,0,0,.731.015.52.52,0,0,0,.142-.507l-.938-3.5A.518.518,0,0,0-547.443,535.436Z" transform="translate(561.958 -524.321)" fill="#5a5a5a"/>
  <path id="Path_14782" data-name="Path 14782" d="M-550.708,540.062l-1.581.424-.2-.751,1.58-.423a.517.517,0,0,0,.324-.227.517.517,0,0,0,.069-.39.517.517,0,0,0-.616-.393.3.3,0,0,0-.044.012l-1.581.424-.2-.751,1.58-.426a.516.516,0,0,0,.3-.254.516.516,0,0,0,.034-.394.517.517,0,0,0-.6-.35l-2.079.558a.517.517,0,0,0-.366.633l.938,3.5a.517.517,0,0,0,.633.366l2.08-.558a.517.517,0,0,0,.337-.649.516.516,0,0,0-.611-.351Z" transform="translate(561.958 -524.321)" fill="#5a5a5a"/>
  <path id="Path_14783" data-name="Path 14783" d="M-542.61,540.265l-1.784-6.656a2.224,2.224,0,0,0-2.178-1.644h0l-9.221-7.528a.515.515,0,0,0-.379-.113.516.516,0,0,0-.348.188.531.531,0,0,0-.082.142l-4.218,11.131a2.224,2.224,0,0,0-1.063,2.514l1.785,6.655a2.222,2.222,0,0,0,2.719,1.57l13.2-3.539A2.223,2.223,0,0,0-542.61,540.265Zm-13.281-14.575,8.022,6.547-11.694,3.135Zm11.443,16.295-13.2,3.539a1.188,1.188,0,0,1-1.453-.838l-1.784-6.656a1.188,1.188,0,0,1,.838-1.453l13.2-3.539a1.19,1.19,0,0,1,1.453.838l1.785,6.657A1.187,1.187,0,0,1-544.448,541.985Z" transform="translate(561.958 -524.321)" fill="#5a5a5a"/>
  <path id="Path_14784" data-name="Path 14784" d="M-559.772,537.08a.516.516,0,0,0-.392-.051.517.517,0,0,0-.365.633.517.517,0,0,0,.633.366.519.519,0,0,0,.366-.634.522.522,0,0,0-.242-.314Z" transform="translate(561.958 -524.321)" fill="#5a5a5a"/>
  <path id="Path_14785" data-name="Path 14785" d="M-546.128,533.422a.517.517,0,0,0-.392-.051.518.518,0,0,0-.366.633.519.519,0,0,0,.634.366.518.518,0,0,0,.365-.634.514.514,0,0,0-.241-.314Z" transform="translate(561.958 -524.321)" fill="#5a5a5a"/>
</svg>
