<svg xmlns="http://www.w3.org/2000/svg" width="19.422" height="22.275" viewBox="0 0 19.422 22.275">
  <g id="new_fill" transform="translate(0)">
    <path id="Path_13485" data-name="Path 13485" d="M656.89,560.27l-1.78-6.66a2.23,2.23,0,0,0-2.18-1.65v.01l-9.22-7.53a.521.521,0,0,0-.73.07.636.636,0,0,0-.08.14l-4.22,11.14a2.227,2.227,0,0,0-1.06,2.51l1.78,6.65a2.218,2.218,0,0,0,2.72,1.57l13.2-3.54A2.2,2.2,0,0,0,656.89,560.27Zm-15.14,2.22-.94-3.5a.517.517,0,0,1,.09-.45.524.524,0,0,1,.73-.09l2.58,2.05-.6-2.26a.507.507,0,0,1,.36-.63v-.01a.536.536,0,0,1,.64.37l1.01,3.78a.522.522,0,0,1-.1.45.511.511,0,0,1-.72.09l-2.59-2.06.53,1.99c.01.02.01.03.02.05a.519.519,0,0,1-.4.61A.507.507,0,0,1,641.75,562.49Zm-2.14-4.46a.528.528,0,0,1-.64-.37.517.517,0,0,1,.37-.63.487.487,0,0,1,.39.05.5.5,0,0,1,.24.31A.521.521,0,0,1,639.61,558.03Zm13.37-4.66a.552.552,0,0,1,.4.05.523.523,0,0,1,.24.32.517.517,0,1,1-1,.26A.511.511,0,0,1,652.98,553.37Zm-6.23,5.37,1.58-.43a.06.06,0,0,0,.04-.01.517.517,0,1,1,.22,1.01l-1.58.43.21.75,1.58-.43a.517.517,0,0,1,.26,1l-2.08.56a.517.517,0,0,1-.63-.37l-.94-3.5a.517.517,0,0,1,.37-.63l2.08-.56a.525.525,0,0,1,.6.35.512.512,0,0,1-.33.65l-1.58.43Zm2.38-1.98a.522.522,0,0,1,.35-.61.53.53,0,0,1,.65.34l.44,1.64.21-.77a.493.493,0,0,1,.14-.24.519.519,0,0,1,.73.02l.46.48-.41-1.55a.513.513,0,0,1,.99-.27l.94,3.5a.534.534,0,0,1-.14.51.519.519,0,0,1-.73-.02l-1.23-1.28-.46,1.74a.531.531,0,0,1-.37.37.517.517,0,0,1-.63-.37Zm-5.52-11.07,8.03,6.55-11.7,3.13Z" transform="translate(-637.546 -544.323)" fill="#fff"/>
  </g>
</svg>
