<svg xmlns="http://www.w3.org/2000/svg" width="22" height="22" viewBox="0 0 22 22">
  <g id="notificationbar_icon" transform="translate(0.226 -0.323)">
    <g id="Rectangle_1259" data-name="Rectangle 1259" transform="translate(-0.226 0.323)" fill="#363636" stroke="#707070" stroke-width="1" opacity="0">
      <rect width="22" height="22" stroke="none"/>
      <rect x="0.5" y="0.5" width="21" height="21" fill="none"/>
    </g>
    <g id="Icon_ionic-ios-notifications" data-name="Icon ionic-ios-notifications" transform="matrix(0.799, -0.602, 0.602, 0.799, 0.224, 8.687)">
      <g id="Path_10188" data-name="Path 10188" transform="translate(4.629 14.405)" fill="none">
        <path d="M2,2.2A1.956,1.956,0,0,0,4,0H0A1.957,1.957,0,0,0,2,2.2Z" stroke="none"/>
        <path d="M 2.000425100326538 1.49960732460022 C 2.416385173797607 1.49960732460022 2.737175226211548 1.373027324676514 2.953875064849854 1.123387336730957 C 3.054662704467773 1.007268667221069 3.134090423583984 0.8648784756660461 3.191003322601318 0.7000053524971008 L 0.8058363795280457 0.6999993920326233 C 0.9511536955833435 1.120262265205383 1.281502604484558 1.49960732460022 2.000405073165894 1.49960732460022 L 2.000425100326538 1.49960732460022 M 2.000405073165894 2.199607372283936 C 0.7055351138114929 2.199607372283936 5.109481662657345e-06 1.286567330360413 -4.890518084721407e-06 -2.618369990159408e-06 L 3.996645212173462 7.381629984593019e-06 C 3.996655225753784 1.286577343940735 3.291115045547485 2.199617385864258 2.000405073165894 2.199607372283936 Z" stroke="none" fill="#363636"/>
      </g>
      <g id="Path_10189" data-name="Path 10189" transform="translate(0 0)" fill="none">
        <path d="M13.108,12.3c-.639-.842-1.9-1.336-1.9-5.109,0-3.872-1.71-5.428-3.3-5.8-.149-.037-.257-.087-.257-.245v-.12a1.013,1.013,0,1,0-2.025,0v.12c0,.154-.108.208-.257.245-1.6.378-3.3,1.93-3.3,5.8,0,3.773-1.258,4.262-1.9,5.109a.824.824,0,0,0,.66,1.32H12.453A.824.824,0,0,0,13.108,12.3Z" stroke="none"/>
        <path d="M 12.05916404724121 12.6169261932373 C 12.0391674041748 12.59599208831787 12.01864337921143 12.57460880279541 11.99763298034668 12.5527172088623 C 11.28642272949219 11.81174755096436 10.21164321899414 10.69199752807617 10.21163272857666 7.188267707824707 C 10.2116231918335 4.496877670288086 9.288832664489746 2.736997604370117 7.679862976074219 2.359897613525391 L 7.672673225402832 2.35820746421814 L 7.665513038635254 2.356417655944824 C 6.723923206329346 2.121017456054688 6.650743007659912 1.36692750453949 6.650743007659912 1.141417503356934 L 6.650743007659912 1.021057486534119 C 6.650743007659912 1.01417088508606 6.643652439117432 1.004656672477722 6.638281345367432 1.000141739845276 L 6.636075019836426 1.000159502029419 C 6.631084442138672 1.005370259284973 6.625432968139648 1.014173626899719 6.625432968139648 1.021057486534119 L 6.625432968139648 1.141337513923645 C 6.625463008880615 1.60609757900238 6.358902931213379 2.169347524642944 5.610672950744629 2.356407642364502 L 5.604423046112061 2.357967615127563 L 5.59816312789917 2.359447479248047 C 3.988033056259155 2.74002742767334 3.064573049545288 4.500057697296143 3.06458306312561 7.18823766708374 C 3.064593076705933 10.41934776306152 2.221442937850952 11.56702709197998 1.282113075256348 12.54752731323242 C 1.259426951408386 12.57120704650879 1.23728346824646 12.59432125091553 1.215775609016418 12.61689853668213 L 6.654723167419434 12.61690711975098 L 12.05916404724121 12.6169261932373 M 12.45256328582764 13.61692714691162 L 6.654723167419434 13.61690711975098 L 0.8278330564498901 13.61689758300781 C 0.1472030282020569 13.61688709259033 -0.2429169714450836 12.84080791473389 0.1679530292749405 12.29712772369385 C 0.8070830106735229 11.45048713684082 2.064593076705933 10.96076774597168 2.06458306312561 7.18823766708374 C 2.064573049545288 3.316107511520386 3.770303010940552 1.763937592506409 5.368133068084717 1.38626754283905 C 5.517532825469971 1.348917484283447 5.625442981719971 1.294967532157898 5.625432968139648 1.141407489776611 L 5.625432968139648 1.021057486534119 C 5.625432968139648 0.469713568687439 6.074053764343262 -3.585815377959989e-08 6.623672008514404 -3.585815377959989e-08 C 6.628442764282227 -3.585815377959989e-08 6.633296966552734 3.611282227211632e-05 6.638082981109619 0.0001075422696885653 C 6.64052677154541 8.93049655132927e-05 6.642967224121094 8.023757982300594e-05 6.645407199859619 8.023757982300594e-05 C 7.198215007781982 8.023757982300594e-05 7.650743007659912 0.4673814177513123 7.650743007659912 1.021057486534119 L 7.650743007659912 1.141417503356934 C 7.650743007659912 1.299127578735352 7.758653163909912 1.34892749786377 7.908052921295166 1.386277556419373 C 9.50173282623291 1.7597975730896 11.2116231918335 3.31612753868103 11.21163272857666 7.188267707824707 C 11.21164321899414 10.96079730987549 12.46915340423584 11.45466709136963 13.10829257965088 12.29716777801514 C 13.51916313171387 12.8366870880127 13.12904262542725 13.61692714691162 12.45256328582764 13.61692714691162 Z" stroke="none" fill="#363636"/>
      </g>
    </g>
  </g>
</svg>
