<svg xmlns="http://www.w3.org/2000/svg" width="18" height="18" viewBox="0 0 18 18">
  <g id="side_bar_icon" transform="translate(-15.752 -41.752)">
    <g id="Rectangle_1259" data-name="Rectangle 1259" transform="translate(15.752 41.752)" fill="#363636" stroke="#707070" stroke-width="1" opacity="0">
      <rect width="18" height="18" stroke="none"/>
      <rect x="0.5" y="0.5" width="17" height="17" fill="none"/>
    </g>
    <g id="Icon_ionic-ios-menu" data-name="Icon ionic-ios-menu" transform="translate(17.287 46.115)">
      <path id="Path_10183" data-name="Path 10183" d="M18.807,11.728H5.122a.731.731,0,0,1-.622-.8h0a.731.731,0,0,1,.622-.8H18.807a.731.731,0,0,1,.622.8h0A.731.731,0,0,1,18.807,11.728Z" transform="translate(-4.5 -10.125)" fill="#363636"/>
      <path id="Path_10186" data-name="Path 10186" d="M18.807,11.728H5.122a.731.731,0,0,1-.622-.8h0a.731.731,0,0,1,.622-.8H18.807a.731.731,0,0,1,.622.8h0A.731.731,0,0,1,18.807,11.728Z" transform="translate(-4.5 -5.86)" fill="#363636"/>
      <path id="Path_10187" data-name="Path 10187" d="M18.807,11.728H5.122a.731.731,0,0,1-.622-.8h0a.731.731,0,0,1,.622-.8H18.807a.731.731,0,0,1,.622.8h0A.731.731,0,0,1,18.807,11.728Z" transform="translate(-4.5 -1.594)" fill="#363636"/>
    </g>
  </g>
</svg>
