<svg id="store_fill" xmlns="http://www.w3.org/2000/svg" width="18.795" height="14.42" viewBox="0 0 18.795 14.42">
  <path id="Path_11592" data-name="Path 11592" d="M56.021,128.26c-.33-.65-.61-1.33-.99-1.95a4.689,4.689,0,0,1-.7-2.94c.05-.53-.04-.58-.57-.58H39.811c-.46,0-.52.06-.52.52.01.35.01.7-.01,1.05a3.1,3.1,0,0,1-.23,1c-.49,1.04-1.02,2.06-1.53,3.09-.21.42-.1.6.38.6h1.39v7.02c0,.8.35,1.14,1.15,1.14h12.77c.8,0,1.13-.35,1.13-1.16v-7l1.21.01C56.281,129.06,56.361,128.93,56.021,128.26Zm-10.16-2.94h1.91l.29,3.09h-2.48c.1-1.03.18-2.05.28-3.09Zm-2.32.06c.26-.21.79-.07,1.21-.08h.48l-.3,3.11h-2.3c.18-.64.34-1.26.52-1.88.11-.4.12-.95.39-1.15Zm-4.19,2.91h-.01a.277.277,0,0,1-.21.13c-.28.01-.56.01-.9.01l.98-1.97c.07-.16.15-.3.23-.46.38-.75.38-.75,1.3-.68C40.261,126.34,39.811,127.31,39.351,128.29Zm.69.14a1.382,1.382,0,0,1,.08-.27c.4-.87.8-1.75,1.22-2.62a.5.5,0,0,1,.37-.24c.35-.03.72-.01,1.12-.01-.28,1.02-.54,1.99-.82,2.97a.347.347,0,0,1-.26.16C41.191,128.43,40.631,128.43,40.041,128.43Zm5.64,7.95a.781.781,0,0,1-.78-.78.773.773,0,0,1,.78-.77.764.764,0,0,1,.77.77.773.773,0,0,1-.77.78Zm2.67,0a.781.781,0,0,1-.78-.78.773.773,0,0,1,.78-.77.764.764,0,0,1,.77.77.773.773,0,0,1-.77.78Zm1.83-6.15c-.38.77-.76,1.55-1.17,2.3a.7.7,0,0,1-.49.27c-1.07.02-2.14.01-3.21.01.08.63.08.63.66.63.95,0,1.9.01,2.86.01.24,0,.47.04.47.34-.01.28-.24.3-.46.3-1.14-.01-2.28-.02-3.41-.01a.512.512,0,0,1-.57-.41c-.32-1.02-.66-2.04-.98-3.06a.368.368,0,0,0-.42-.32h-.02a8.142,8.142,0,0,1-1.21-.01.584.584,0,0,1-.4-.3c-.04-.24.17-.31.39-.31,2.55,0,5.09,0,7.64.01C50.231,129.68,50.351,129.89,50.181,130.23Zm-1.48-1.82c-.1-1.02-.2-2.04-.3-3.11.55,0,1.08-.01,1.6,0a.21.21,0,0,1,.17.13c.28.98.55,1.97.83,2.98Zm3.18.01a.329.329,0,0,1-.25-.16c-.29-.97-.56-1.95-.84-2.97.45,0,.85,0,1.25.01a.3.3,0,0,1,.2.13c.46.98.91,1.95,1.4,2.99-.641,0-1.2.01-1.76,0Zm2.06-.82c-.3-.66-.6-1.3-.9-1.96-.05-.1-.08-.21-.14-.35.29,0,.54-.01.78.01a.3.3,0,0,1,.21.13c.5.97.98,1.94,1.5,2.97-1.04.07-1.04.07-1.45-.8Z" transform="translate(-37.419 -122.79)" fill="#fff"/>
  <path id="Path_11593" data-name="Path 11593" d="M44.991,131.96a.385.385,0,0,0,.29.22c1.01.01,2.01.01,3.02,0a.344.344,0,0,0,.25-.13c.3-.55.58-1.12.87-1.72h-4.97C44.631,130.9,44.8,131.43,44.991,131.96Z" transform="translate(-37.419 -122.79)" fill="#fff"/>
  <path id="Path_11594" data-name="Path 11594" d="M45.571,135.33a.294.294,0,1,0,.38.17A.294.294,0,0,0,45.571,135.33Z" transform="translate(-37.419 -122.79)" fill="#fff"/>
  <path id="Path_11595" data-name="Path 11595" d="M48.241,135.33a.294.294,0,1,0,.38.17.294.294,0,0,0-.38-.17Z" transform="translate(-37.419 -122.79)" fill="#fff"/>
</svg>
