<svg id="store_path" xmlns="http://www.w3.org/2000/svg" width="18.796" height="14.427" viewBox="0 0 18.796 14.427">
  <path id="Path_11193" data-name="Path 11193" d="M-363,555.3v2.3q0,2.35,0,4.7c0,.809-.337,1.152-1.133,1.153q-6.385,0-12.771,0c-.8,0-1.147-.34-1.147-1.139q0-3.271,0-6.542v-.472c-.483,0-.935,0-1.388,0-.48,0-.594-.182-.383-.606.51-1.029,1.042-2.047,1.529-3.086a3.219,3.219,0,0,0,.233-1,10.266,10.266,0,0,0,.009-1.057c0-.457.061-.519.524-.519q3.428,0,6.855,0h7.09c.532,0,.621.051.572.582a4.694,4.694,0,0,0,.7,2.938c.375.625.663,1.3.99,1.955.337.673.264.8-.474.8Zm-14.39.01a.907.907,0,0,0-.031.147q0,3.469-.006,6.937c0,.358.191.435.5.434,1.346-.007,2.691,0,4.037,0h.776c-.659-.538-.775-1.089-.377-1.549a.893.893,0,0,1,1.321-.083,1.311,1.311,0,0,1,.314.684c.056.41-.222.686-.583.917h1.819c-.622-.467-.756-1-.4-1.469a.93.93,0,0,1,1.323-.181.8.8,0,0,1,.346.858,4.15,4.15,0,0,1-.463.825c1.5,0,3.038,0,4.579,0,.581,0,.611-.032.612-.633q0-3.292,0-6.585a2.891,2.891,0,0,0-.031-.3Zm-.016-4.429h13.758v-1.2h-13.758Zm8.125,3.777-.292-3.092h-1.908c-.1,1.043-.188,2.058-.283,3.092Zm-3.127,0,.3-3.116c-.18,0-.333,0-.486,0-.413.011-.942-.123-1.207.082s-.279.75-.392,1.149c-.175.62-.34,1.243-.515,1.885Zm6.072,0c-.281-1.014-.553-2-.834-2.989a.223.223,0,0,0-.166-.124c-.528-.01-1.057-.006-1.606-.006.1,1.075.2,2.093.3,3.118Zm-8.167-3.12c-.407,0-.772-.021-1.132.011a.524.524,0,0,0-.367.239c-.422.866-.82,1.744-1.223,2.62a2.042,2.042,0,0,0-.079.265c.594,0,1.154.007,1.714-.007a.329.329,0,0,0,.255-.159C-375.054,553.528-374.788,552.55-374.506,551.532Zm10.8,3.136c-.483-1.041-.935-2.02-1.4-2.995a.279.279,0,0,0-.2-.134c-.4-.013-.8-.006-1.247-.006.282,1.019.548,2,.832,2.97a.33.33,0,0,0,.256.158C-364.9,554.675-364.342,554.668-363.7,554.668Zm-12.9-3.112c-.921-.063-.921-.063-1.3.686-.076.152-.153.3-.229.455l-.983,1.969c.345,0,.627.009.908-.006a.288.288,0,0,0,.211-.127C-377.529,553.558-377.077,552.578-376.6,551.556Zm14.651,3.089c-.513-1.023-1-2-1.5-2.974a.292.292,0,0,0-.206-.131c-.244-.016-.49-.006-.782-.006.056.143.093.25.14.352.3.652.6,1.3.9,1.954C-362.99,554.719-362.991,554.719-361.953,554.646Zm-9.367,7.26c-.224-.16-.343-.309-.464-.311a.391.391,0,0,0-.284.269.4.4,0,0,0,.25.3C-371.7,562.18-371.562,562.042-371.319,561.906Zm2.047-.471c-.148.206-.309.334-.29.427a.476.476,0,0,0,.3.306c.072.018.277-.172.279-.272C-368.982,561.775-369.129,561.65-369.273,561.435Z" transform="translate(379.926 -549.022)" fill="#5a5a5a"/>
  <path id="Path_11194" data-name="Path 11194" d="M-343.356,603.827c.083.629.083.628.658.629.953,0,1.906.01,2.859.012.242,0,.478.042.472.335-.006.275-.236.3-.461.295-1.136-.008-2.272-.02-3.408-.01a.5.5,0,0,1-.566-.409c-.318-1.021-.663-2.034-.98-3.055a.375.375,0,0,0-.439-.32,7.675,7.675,0,0,1-1.212-.014.545.545,0,0,1-.4-.3c-.045-.236.167-.311.39-.31,2.546.006,5.092.008,7.638.018.367,0,.484.208.318.548-.378.774-.754,1.549-1.167,2.3a.664.664,0,0,1-.491.268C-341.214,603.839-342.283,603.827-343.356,603.827Zm4.115-2.479h-4.977c.186.568.349,1.1.542,1.628a.4.4,0,0,0,.293.214c1.005.016,2.011.013,3.017,0a.33.33,0,0,0,.251-.121C-339.818,602.513-339.539,601.943-339.241,601.348Z" transform="translate(351.25 -593.791)" fill="#5a5a5a"/>
</svg>
