<svg xmlns="http://www.w3.org/2000/svg" viewBox="0 0 26 24"><defs><style>.cls-1{fill:#2661b2;fill-opacity:0;}</style></defs><title>clothes_vector</title><g id="Layer_2" data-name="Layer 2"><g id="Layer_1-2" data-name="Layer 1"><rect id="Rectangle_2472" data-name="Rectangle 2472" class="cls-1" width="26" height="24"/><g id="Page-1"><g id="_030---Shorts-and-Tshirts" data-name=" 030---Shorts-and-Tshirts"><g id="Shape"><path d="M25.27,5.92,20,.67a1,1,0,0,0-.69-.29H6.69A.94.94,0,0,0,6,.67L.74,5.92a1,1,0,0,0,0,1.4l2.73,2.73a1,1,0,0,0,.7.29.94.94,0,0,0,.69-.29l.32-.31.34-.34V22.63a1,1,0,0,0,1,1H19a.39.39,0,0,0,.39-.39.38.38,0,0,0-.39-.39H6.3V8.45a.38.38,0,0,0-.24-.36l-.15,0a.36.36,0,0,0-.27.12L4.31,9.5l-.14.14L4,9.5,1.29,6.76l-.14-.14.14-.14L6.55,1.22l0-.06H9.09v.2a3.93,3.93,0,1,0,7.85,0v-.2H19.4l.06.06,5.25,5.26.15.14-.15.14L22,9.5l-.14.14-.14-.14L20.37,8.17a.41.41,0,0,0-.28-.11l-.15,0a.4.4,0,0,0-.24.36l.07,13.37a.38.38,0,0,0,.39.39.39.39,0,0,0,.39-.39L20.48,9.88V9.39l.34.35.32.31a.94.94,0,0,0,.69.29,1,1,0,0,0,.7-.29l2.74-2.73A1,1,0,0,0,25.27,5.92ZM16.16,1.36a3.15,3.15,0,0,1-6.29,0v-.2h6.29Z"/></g><g id="Shape-2"><path d="M17,6.43a2,2,0,0,0-.72-.14,1.82,1.82,0,0,0-1.32.55A1.87,1.87,0,0,0,16.25,10,1.87,1.87,0,0,0,17,6.43Zm-.72,2.81a1.09,1.09,0,1,1,1.09-1.08A1.08,1.08,0,0,1,16.25,9.24Z"/></g></g></g><g id="_030---Shorts-and-Tshirts-2" data-name=" 030---Shorts-and-Tshirts-2"><g id="Shape-3"><path d="M25.27,5.92,20,.67a1,1,0,0,0-.69-.29H6.69A.94.94,0,0,0,6,.67L.74,5.92a1,1,0,0,0,0,1.4l2.73,2.73a1,1,0,0,0,.7.29.94.94,0,0,0,.69-.29l.32-.31.34-.34V22.63a1,1,0,0,0,1,1H19a.39.39,0,0,0,.39-.39.38.38,0,0,0-.39-.39H6.3V8.45a.38.38,0,0,0-.24-.36l-.15,0a.36.36,0,0,0-.27.12L4.31,9.5l-.14.14L4,9.5,1.29,6.76l-.14-.14.14-.14L6.55,1.22l0-.06H9.09v.2a3.93,3.93,0,1,0,7.85,0v-.2H19.4l.06.06,5.25,5.26.15.14-.15.14L22,9.5l-.14.14-.14-.14L20.37,8.17a.41.41,0,0,0-.28-.11l-.15,0a.4.4,0,0,0-.24.36l.07,13.37a.38.38,0,0,0,.39.39.39.39,0,0,0,.39-.39L20.48,9.88V9.39l.34.35.32.31a.94.94,0,0,0,.69.29,1,1,0,0,0,.7-.29l2.74-2.73A1,1,0,0,0,25.27,5.92ZM16.16,1.36a3.15,3.15,0,0,1-6.29,0v-.2h6.29Z"/></g><g id="Shape-4"><path d="M17,6.43a2,2,0,0,0-.72-.14,1.82,1.82,0,0,0-1.32.55A1.87,1.87,0,0,0,16.25,10,1.87,1.87,0,0,0,17,6.43Zm-.72,2.81a1.09,1.09,0,1,1,1.09-1.08A1.08,1.08,0,0,1,16.25,9.24Z"/></g></g></g></g></svg>