<svg xmlns="http://www.w3.org/2000/svg" viewBox="0 0 32 24"><defs><style>.cls-1{fill:#2661b2;fill-opacity:0;}</style></defs><title>computer_vector</title><g id="Layer_2" data-name="Layer 2"><g id="Layer_1-2" data-name="Layer 1"><rect id="Rectangle_2473" data-name="Rectangle 2473" class="cls-1" width="32" height="24"/><g id="laptop"><g id="Group_11546" data-name="Group 11546"><g id="Group_11545" data-name="Group 11545"><g id="Path_17904" data-name="Path 17904"><path d="M31.5,21.71v-.06a0,0,0,0,1,0,0v0L29,16.76V.88A.78.78,0,0,0,28.24.1H3.77A.78.78,0,0,0,3,.88V16.8L.53,21.63a0,0,0,0,1,0,0v0a.08.08,0,0,0,0,0,.17.17,0,0,0,0,.05V23a1,1,0,0,0,1,.95H30.56a1,1,0,0,0,1-.95v-1.2A.08.08,0,0,0,31.5,21.71ZM3.7.82H28.3V16.51H3.7Zm-.14,16.4H28.44l2.13,4.21H20.28l-.52-1.9A.76.76,0,0,0,19,19H13a.76.76,0,0,0-.73.56l-.52,1.9H1.43Zm16,4.21H12.46l.48-1.74h6.12Zm11,1.75H1.44A.23.23,0,0,1,1.2,23v-.8H30.79V23A.23.23,0,0,1,30.56,23.18Z"/></g></g></g><g id="Group_11548" data-name="Group 11548"><g id="Group_11547" data-name="Group 11547"><g id="Path_17905" data-name="Path 17905"><path d="M27.12,9.88v4.84a.61.61,0,0,1-.61.61h-21a.61.61,0,0,1-.61-.61V9.88a.36.36,0,1,1,.71,0v4.74H26.41V9.88a.36.36,0,1,1,.71,0Z"/></g></g></g><g id="Group_11550" data-name="Group 11550"><g id="Group_11549" data-name="Group 11549"><g id="Path_17906" data-name="Path 17906"><path d="M27.12,2.61V7.44a.36.36,0,1,1-.71,0V2.7H5.59V7.44a.36.36,0,1,1-.71,0V2.6A.61.61,0,0,1,5.49,2h21a.62.62,0,0,1,.44.18A.6.6,0,0,1,27.12,2.61Z"/></g></g></g></g></g></g></svg>