<svg xmlns="http://www.w3.org/2000/svg" width="27.843" height="24" viewBox="0 0 27.843 24">
  <g id="shoes_vector" opacity="0.8">
    <g id="sneaker" transform="translate(0 2)">
      <g id="Group_11542" data-name="Group 11542">
        <path id="Path_17902" data-name="Path 17902" d="M27.734,83.345a3.606,3.606,0,0,0-2.044-2,15.941,15.941,0,0,1-4.751-3.92l.226-.139a.413.413,0,1,0-.432-.7l-.339.208q-.3-.356-.581-.718l.336-.218a.413.413,0,0,0-.45-.693l-.389.253q-.327-.44-.627-.876l.289-.179a.413.413,0,1,0-.436-.7l-.312.194a19.535,19.535,0,0,1-1.316-2.332,2.014,2.014,0,0,1,.345-2.048.413.413,0,0,0-.584-.584,2.683,2.683,0,0,0-.649,2.516,14.72,14.72,0,0,1-2.466.477c-2.475.248-3.692-.4-4.276-.981A7.26,7.26,0,0,1,7.015,66.64a.413.413,0,0,0-.74-.232L.086,74.464a.413.413,0,0,0,.1.6c.116.075,11.6,7.5,14.839,9.464a18.448,18.448,0,0,0,8.956,2.357,10.589,10.589,0,0,0,2.2-.205.413.413,0,0,0,.253-.17l1.284-1.868,0,0a.419.419,0,0,0,.027-.046l0-.009a.41.41,0,0,0,.018-.047l0,0,0-.005,0-.005A2.092,2.092,0,0,0,27.734,83.345ZM9.882,78.6c3.161,2.021,5.325,3.387,6.431,4.059a18.448,18.448,0,0,0,8.956,2.357c.436,0,.85-.02,1.237-.058l-.65.946a14.281,14.281,0,0,1-4.892-.123,16.418,16.418,0,0,1-5.506-1.961c-2.894-1.757-12.425-7.906-14.443-9.209l.88-1.146c2.945,1.9,5.221,3.362,6.626,4.262a.413.413,0,0,0,.446-.7L6.6,75.517a5.447,5.447,0,0,0,.66-2.6,5.472,5.472,0,0,0-1.254-3.484.413.413,0,1,0-.636.527,4.644,4.644,0,0,1,1.065,2.957,4.624,4.624,0,0,1-.531,2.156c-1.024-.659-2.2-1.415-3.507-2.259l3.968-5.166a8.761,8.761,0,0,0,2.325,3.839c2.1,2.1,6.357,1.066,7.616.7a21.557,21.557,0,0,0,1.216,2.1l-1.4.872a.413.413,0,1,0,.436.7l1.427-.886c.2.3.417.595.636.891l-1.116.725a.413.413,0,1,0,.45.693l1.166-.758q.278.356.564.7l-1.037.637a.413.413,0,1,0,.432.7l1.146-.7a16.051,16.051,0,0,0,5.12,4.234c1.5.684,1.679,1.555,1.673,1.96a14.544,14.544,0,0,1-4.771-.145,16.418,16.418,0,0,1-5.506-1.96c-1.1-.669-3.258-2.031-6.415-4.048a.413.413,0,1,0-.445.7Z" transform="translate(0 -66.246)"/>
      </g>
    </g>
    <g id="Rectangle_1585" data-name="Rectangle 1585" transform="translate(2.444)">
      <rect id="Rectangle_1585-2" data-name="Rectangle 1585" width="23" height="24" fill="#2661b2" opacity="0"/>
    </g>
  </g>
</svg>
