<svg xmlns="http://www.w3.org/2000/svg" viewBox="0 0 24 24"><defs><style>.cls-1{fill:#2661b2;fill-opacity:0;}</style></defs><title>watches_vector</title><g id="Layer_2" data-name="Layer 2"><g id="Layer_1-2" data-name="Layer 1"><g id="watch"><g id="Path_17907" data-name="Path 17907"><path d="M18.44,10.45h-.62v0a6.51,6.51,0,0,0-1.59-2.94h0V5a.84.84,0,0,0-.85-.84h-.08V2a2,2,0,0,0-2-2H9.41A1.92,1.92,0,0,0,8.08.55.32.32,0,0,0,8,1a.32.32,0,0,0,.22.12.34.34,0,0,0,.24-.07s0,0,0,0A1.37,1.37,0,0,1,9.41.68H10V4.12H8.08v-2a.32.32,0,0,0-.29-.35h0a.28.28,0,0,0-.21.08.28.28,0,0,0-.12.21v2H7.34A.84.84,0,0,0,6.49,5V7.48h0a6.63,6.63,0,0,0,0,9h0V19a.85.85,0,0,0,.85.84h.09V22a2,2,0,0,0,2,2h3.88a2,2,0,0,0,1.83-1.22.33.33,0,0,0,0-.26.46.46,0,0,0-.16-.18.32.32,0,0,0-.44.16s0,0,0,0a1.33,1.33,0,0,1-1.23.82h-.56V19.88h1.89v1.36a.3.3,0,0,0,.12.2.35.35,0,0,0,.24.08.33.33,0,0,0,.29-.29V19.88h.09a.85.85,0,0,0,.85-.84V16.52h0a6.64,6.64,0,0,0,1.59-3h.62a.87.87,0,0,0,.86-.87V11.31A.86.86,0,0,0,18.44,10.45ZM12.73.68h.56A1.33,1.33,0,0,1,14.62,2V4.12H12.73Zm-2.1,0h1.45V4.12H10.63ZM7.14,5a.21.21,0,0,1,.18-.2h8a.21.21,0,0,1,.2.2V6.87l0,0a6.68,6.68,0,0,0-8.34,0l0,0ZM10,23.32H9.41A1.33,1.33,0,0,1,8.08,22V19.88H10Zm2.11,0H10.63V19.88h1.45ZM15.56,19a.21.21,0,0,1-.2.2h-8a.2.2,0,0,1-.2-.19V17.13l0,.05a6.7,6.7,0,0,0,8.34,0l0-.05ZM11.35,18a6,6,0,0,1,0-12h0a6,6,0,0,1,0,12Zm7.29-5.31a.19.19,0,0,1-.2.2h-.5v0a6.27,6.27,0,0,0,0-1.73v0h.5a.2.2,0,0,1,.2.2Z"/></g><g id="Path_17908" data-name="Path 17908"><path d="M11.68,8.63v.24a.33.33,0,0,1-.29.3A.33.33,0,0,1,11,8.88V8.63a.31.31,0,0,1,.29-.28h0a.31.31,0,0,1,.21.07A.32.32,0,0,1,11.68,8.63Z"/></g><g id="Path_17909" data-name="Path 17909"><path d="M15,12a.32.32,0,0,1-.29.36h-.25a.33.33,0,0,1-.29-.28.32.32,0,0,1,.29-.36h.25A.31.31,0,0,1,15,12Z"/></g><g id="Path_17910" data-name="Path 17910"><path d="M11.67,15.12v.25a.31.31,0,0,1-.29.28h0a.31.31,0,0,1-.21-.07.32.32,0,0,1-.12-.21v-.25a.32.32,0,0,1,.33-.32A.31.31,0,0,1,11.67,15.12Z"/></g><g id="Path_17911" data-name="Path 17911"><path d="M8.6,12a.38.38,0,0,1-.12.21.32.32,0,0,1-.25.07H8a.32.32,0,0,1,0-.64H8.3a.31.31,0,0,1,.23.12A.38.38,0,0,1,8.6,12Z"/></g><g id="Path_17912" data-name="Path 17912"><path d="M11.68,10v2a.33.33,0,0,1-.33.33h-1a.32.32,0,0,1,0-.64H11V10a.35.35,0,0,1,.29-.29h0a.38.38,0,0,1,.21.07A.37.37,0,0,1,11.68,10Z"/></g><g id="Path_17913" data-name="Path 17913"><path d="M16.4,12a5.07,5.07,0,0,1-5,5.06h0a5.06,5.06,0,0,1-4-2,5,5,0,0,1,4-8.12,5,5,0,0,1,4,2,.33.33,0,0,1,0,.43.41.41,0,0,1-.22.07h0a.3.3,0,0,1-.22-.11,4.4,4.4,0,1,0,.63,1.14.32.32,0,0,1,.18-.39l.12,0h.13l.09.06,0,0a.24.24,0,0,1,.06.09A5,5,0,0,1,16.4,12Z"/></g></g><rect id="Rectangle_2474" data-name="Rectangle 2474" class="cls-1" width="24" height="24"/></g></g></svg>