<svg xmlns="http://www.w3.org/2000/svg" width="24.283" height="24" viewBox="0 0 24.283 24">
  <g id="woman_bag_vector" transform="translate(0.283)" opacity="0.8">
    <g id="female" transform="translate(0)">
      <ellipse id="Ellipse_670" data-name="Ellipse 670" cx="1" cy="0.5" rx="1" ry="0.5" transform="translate(10.717 23)"/>
      <path id="Path_17903" data-name="Path 17903" d="M5.958,23.745A.469.469,0,0,0,6.375,24H9.89a.469.469,0,1,0,0-.937H6.661L1.041,12.09,5.163,7.968H7.431c-.065.633-.1,1.28-.115,1.934a1.875,1.875,0,1,0,.938,0c.012-.656.052-1.3.119-1.935h7.254c.067.632.107,1.28.119,1.935a1.875,1.875,0,1,0,.938,0c-.011-.654-.05-1.3-.115-1.933h2.268l4.121,4.121-5.62,10.972H14.109a.469.469,0,1,0,0,.937h3.516a.469.469,0,0,0,.417-.255l5.906-11.531a.469.469,0,0,0-.086-.545l-4.5-4.5a.469.469,0,0,0-.331-.137H16.453C16.056,4.342,14.726,0,12,0S7.944,4.342,7.547,7.031H4.969a.469.469,0,0,0-.331.137l-4.5,4.5a.469.469,0,0,0-.086.545ZM8.719,11.719a.937.937,0,1,1-.937-.937A.938.938,0,0,1,8.719,11.719Zm8.437,0a.937.937,0,1,1-.937-.937A.938.938,0,0,1,17.156,11.719ZM12,.937c1.511,0,2.95,2.532,3.5,6.094H8.5C9.05,3.469,10.489.937,12,.937Z" transform="translate(0 0)"/>
    </g>
    <rect id="Rectangle_2466" data-name="Rectangle 2466" width="24" height="24" transform="translate(-0.283)" fill="#2661b2" opacity="0"/>
  </g>
</svg>
