<svg xmlns="http://www.w3.org/2000/svg" width="14.198" height="14.193" viewBox="0 0 14.198 14.193">
  <g id="follow_icon" transform="translate(-313 -138.017)">
    <path id="Path_14747" data-name="Path 14747" d="M-2483.969,420.717a1.237,1.237,0,0,1-1.237,1.237,1.237,1.237,0,0,1-1.237-1.237,6.013,6.013,0,0,0-1.784-4.288,5.976,5.976,0,0,0-4.141-1.785,1.271,1.271,0,0,1-.147.009,1.237,1.237,0,0,1-1.237-1.237,1.237,1.237,0,0,1,1.237-1.237h.049a8.546,8.546,0,0,1,8.5,8.509C-2483.969,420.7-2483.969,420.707-2483.969,420.717Z" transform="translate(2806.752 -269.744)" fill="#fff"/>
    <path id="Path_14748" data-name="Path 14748" d="M-2479.554,347.129v0a1.237,1.237,0,0,1-1.236,1.237,1.237,1.237,0,0,1-1.237-1.237c0-.01,0-.021,0-.031h0a10.364,10.364,0,0,0-3.081-7.363,10.325,10.325,0,0,0-7.3-3.091q-.051,0-.1,0a1.237,1.237,0,0,1-1.237-1.237,1.237,1.237,0,0,1,1.237-1.237h.013a12.7,12.7,0,0,1,5.514,1.241A12.878,12.878,0,0,1-2481,341.2a12.693,12.693,0,0,1,1.447,5.918Z" transform="translate(2806.752 -196.159)" fill="#fff"/>
    <circle id="Ellipse_632" data-name="Ellipse 632" cx="1.237" cy="1.237" r="1.237" transform="translate(314.151 148.48)" fill="#fff"/>
  </g>
</svg>
