<svg xmlns="http://www.w3.org/2000/svg" width="14.248" height="12.234" viewBox="0 0 14.248 12.234">
  <g id="sales_history_icon" transform="translate(-29.561 -375)">
    <path id="Path_17978" data-name="Path 17978" d="M-382.937,700.6h1.831a.163.163,0,0,1,.169.1.158.158,0,0,1-.045.184l-.005.006-2.39,2.578a.162.162,0,0,1-.272,0l-2.384-2.573a.168.168,0,0,1-.052-.2.169.169,0,0,1,.179-.1h1.822c0-.028,0-.052,0-.076a5.98,5.98,0,0,1,1.107-3.431,5.981,5.981,0,0,1,4.055-2.529,6.109,6.109,0,0,1,6.83,4.353,6.114,6.114,0,0,1-4.664,7.678,6.026,6.026,0,0,1-3.189-.205.572.572,0,0,1-.4-.591.562.562,0,0,1,.513-.519.678.678,0,0,1,.266.035,4.958,4.958,0,0,0,5.75-1.985,4.965,4.965,0,0,0-3.162-7.6,4.967,4.967,0,0,0-5.854,3.815A4.8,4.8,0,0,0-382.937,700.6Z" transform="translate(415.661 -319.486)" fill="#2661b2"/>
    <path id="Path_17979" data-name="Path 17979" d="M-373.782,700.179a.187.187,0,0,0-.264,0l-3.6,3.6a.186.186,0,0,0,0,.263.185.185,0,0,0,.132.055.187.187,0,0,0,.132-.055l3.6-3.6A.186.186,0,0,0-373.782,700.179Z" transform="translate(413.38 -321.017)" fill="#2661b2"/>
    <path id="Path_17980" data-name="Path 17980" d="M-376.814,700.126a.886.886,0,0,0-.886.885.886.886,0,0,0,.886.886.886.886,0,0,0,.885-.886A.886.886,0,0,0-376.814,700.126Zm0,1.4a.513.513,0,0,1-.513-.513.513.513,0,0,1,.513-.512.512.512,0,0,1,.512.512A.513.513,0,0,1-376.814,701.524Z" transform="translate(413.381 -321.017)" fill="#2661b2"/>
    <path id="Path_17981" data-name="Path 17981" d="M-373.793,703.143a.887.887,0,0,0-.886.886.887.887,0,0,0,.886.885.886.886,0,0,0,.885-.885A.886.886,0,0,0-373.793,703.143Zm0,1.4a.513.513,0,0,1-.513-.512.514.514,0,0,1,.513-.513.513.513,0,0,1,.512.513A.512.512,0,0,1-373.793,704.541Z" transform="translate(412.561 -321.836)" fill="#2661b2"/>
  </g>
</svg>
