<svg xmlns="http://www.w3.org/2000/svg" width="14.248" height="9.183" viewBox="0 0 14.248 9.183">
  <g id="vouchers_icon" transform="translate(-29.561 -337.141)">
    <path id="Path_17949" data-name="Path 17949" d="M392.417,301a.417.417,0,1,0,.417.417A.418.418,0,0,0,392.417,301Z" transform="translate(-351.53 41.985)" fill="#2661b2"/>
    <path id="Path_17950" data-name="Path 17950" d="M13.831,91H4.209v1.252a.417.417,0,1,1-.835,0V91H.417A.417.417,0,0,0,0,91.417v2.5a.417.417,0,0,0,.417.417,1.252,1.252,0,0,1,0,2.5A.417.417,0,0,0,0,97.261v2.5a.417.417,0,0,0,.417.417H3.339V98.931a.417.417,0,1,1,.835,0v1.252h9.656a.417.417,0,0,0,.417-.417V91.417A.417.417,0,0,0,13.831,91ZM4.174,97.261a.417.417,0,1,1-.835,0v-.835a.417.417,0,1,1,.835,0Zm0-2.5a.417.417,0,0,1-.835,0v-.835a.417.417,0,1,1,.835,0Zm2.56-.835a1.252,1.252,0,1,1,1.252,1.252A1.254,1.254,0,0,1,6.734,93.922Zm1.021,4.522a.417.417,0,0,1-.116-.579l3.339-5.009a.417.417,0,1,1,.695.463L8.334,98.328A.418.418,0,0,1,7.755,98.444Zm3.571.07a1.252,1.252,0,1,1,1.252-1.252A1.254,1.254,0,0,1,11.326,98.514Z" transform="translate(29.561 246.141)" fill="#2661b2"/>
    <path id="Path_17951" data-name="Path 17951" d="M272.417,181a.417.417,0,1,0,.417.417A.418.418,0,0,0,272.417,181Z" transform="translate(-234.87 158.646)" fill="#2661b2"/>
  </g>
</svg>
