<svg xmlns="http://www.w3.org/2000/svg" width="17.757" height="17" viewBox="0 0 17.757 17">
  <g id="cart_path" transform="translate(-163.15 -129)">
    <path id="Path_13478" data-name="Path 13478" d="M635.146,523.443a1.248,1.248,0,1,1-1.253-1.253A1.256,1.256,0,0,1,635.146,523.443Z" transform="translate(-464.159 -378.696)" fill="#2661b2"/>
    <path id="Path_13479" data-name="Path 13479" d="M643.786,523.443a1.248,1.248,0,1,1-1.243-1.253A1.248,1.248,0,0,1,643.786,523.443Z" transform="translate(-464.407 -378.696)" fill="#2661b2"/>
    <path id="Path_13480" data-name="Path 13480" d="M634.221,519.685a2.005,2.005,0,0,1-1.963-1.62l-1.274-6.368a.5.5,0,0,1-.014-.066l-.679-3.393h-2.654a.486.486,0,1,1,0-.971h3.053a.486.486,0,0,1,.476.39l.686,3.426h12.572a.487.487,0,0,1,.477.577l-1.221,6.4a2.032,2.032,0,0,1-2.012,1.623h-7.447Zm-2.176-7.63,1.166,5.821a1.06,1.06,0,0,0,1.039.838h7.426a1.047,1.047,0,0,0,1.05-.837l1.109-5.822Z" transform="translate(-464.001 -378.267)" fill="#2661b2"/>
  </g>
</svg>
