<svg xmlns="http://www.w3.org/2000/svg" width="18.28" height="17.5" viewBox="0 0 18.28 17.5">
  <g id="cart_fill" transform="translate(-163.149 -109)">
    <path id="Path_13464" data-name="Path 13464" d="M635.22,497.38a1.285,1.285,0,1,1-1.29-1.28A1.293,1.293,0,0,1,635.22,497.38Z" transform="translate(-464.001 -372.17)" fill="#2661b2"/>
    <path id="Path_13465" data-name="Path 13465" d="M643.86,497.38a1.285,1.285,0,1,1-1.28-1.28A1.285,1.285,0,0,1,643.86,497.38Z" transform="translate(-464.001 -372.17)" fill="#2661b2"/>
    <path id="Path_13466" data-name="Path 13466" d="M645.42,485.69l-1.25,6.59a2.091,2.091,0,0,1-2.07,1.67h-7.67a2.056,2.056,0,0,1-2.02-1.66l-1.31-6.56c-.01-.02-.01-.05-.02-.07l-.7-3.49h-2.73a.508.508,0,0,1-.5-.5.5.5,0,0,1,.5-.5h3.14a.5.5,0,0,1,.49.4l.71,3.53h12.94a.49.49,0,0,1,.49.59Z" transform="translate(-464.001 -372.17)" fill="#2661b2"/>
  </g>
</svg>
