<svg xmlns="http://www.w3.org/2000/svg" width="18.204" height="17.469" viewBox="0 0 18.204 17.469">
  <g id="home_path" transform="translate(-594.009 -507.068)">
    <g id="Group_4801" data-name="Group 4801">
      <g id="Group_4800" data-name="Group 4800">
        <g id="Path_10864" data-name="Path 10864">
          <path id="Path_13455" data-name="Path 13455" d="M612.029,513.478l-8.63-6.319a.473.473,0,0,0-.559,0l-8.631,6.319a.473.473,0,0,0,.546.773l.013-.01,8.348-6.114,8.351,6.114a.473.473,0,0,0,.559-.763Z" fill="#2661b2"/>
        </g>
      </g>
    </g>
    <g id="Group_4803" data-name="Group 4803">
      <g id="Group_4802" data-name="Group 4802">
        <g id="Path_10865" data-name="Path 10865">
          <path id="Path_13456" data-name="Path 13456" d="M609.741,515.591a.473.473,0,0,0-.473.473h0v7.53h-3.784v-4.11a2.366,2.366,0,0,0-4.731,0v4.11H596.97v-7.53a.473.473,0,0,0-.946,0v8a.473.473,0,0,0,.473.473h4.731a.472.472,0,0,0,.471-.436.22.22,0,0,0,0-.037v-4.583a1.42,1.42,0,0,1,2.839,0h0v4.583a.208.208,0,0,0,0,.036.473.473,0,0,0,.471.437h4.731a.473.473,0,0,0,.473-.473h0v-8A.473.473,0,0,0,609.741,515.591Z" fill="#2661b2"/>
        </g>
      </g>
      <g id="Path_10866" data-name="Path 10866">
        <path id="Path_13457" data-name="Path 13457" d="M596.743,516.551l-.6-.8,6.791-5.109a.5.5,0,0,1,.607,0l6.584,5.11-.613.79-6.282-4.876Z" fill="#2661b2"/>
      </g>
    </g>
    <g id="Line_22" data-name="Line 22">
      <path id="Path_13458" data-name="Path 13458" d="M608.81,511.813a.5.5,0,0,1-.5-.5v-2.277a.5.5,0,0,1,1,0v2.277A.5.5,0,0,1,608.81,511.813Z" fill="#2661b2"/>
    </g>
  </g>
</svg>
