<svg xmlns="http://www.w3.org/2000/svg" width="15.205" height="17" viewBox="0 0 15.205 17">
  <g id="profile_path" transform="translate(-318 -129)">
    <path id="Path_13470" data-name="Path 13470" d="M699.779,524.943a.426.426,0,0,1-.426-.426h0v-1.794a3.166,3.166,0,0,0-3.162-3.162h-7.177a3.166,3.166,0,0,0-3.162,3.162v1.794a.426.426,0,1,1-.852,0v-1.8a4.02,4.02,0,0,1,4.014-4.014h7.177a4.019,4.019,0,0,1,4.014,4.014v1.794A.426.426,0,0,1,699.779,524.943Z" transform="translate(-367 -378.944)" fill="#2661b2"/>
    <path id="Path_13471" data-name="Path 13471" d="M692.661,515.8a4.014,4.014,0,1,1,4.014-4.014h0A4.02,4.02,0,0,1,692.661,515.8Zm0-7.177a3.162,3.162,0,1,0,3.162,3.162h0A3.166,3.166,0,0,0,692.661,508.62Z" transform="translate(-367.059 -378.768)" fill="#2661b2"/>
  </g>
</svg>
