<svg xmlns="http://www.w3.org/2000/svg" width="17.469" height="17.469" viewBox="0 0 17.469 17.469">
  <g id="profile_fill" transform="translate(-320 -116.531)">
    <path id="Path_13467" data-name="Path 13467" d="M691.933,488.826a4.913,4.913,0,1,0-4.913-4.913A4.913,4.913,0,0,0,691.933,488.826Zm4.366,1.092h-1.88a5.937,5.937,0,0,1-4.974,0h-1.879a4.367,4.367,0,0,0-4.367,4.367v.546a1.638,1.638,0,0,0,1.638,1.638H699.03a1.638,1.638,0,0,0,1.638-1.638h0v-.546a4.367,4.367,0,0,0-4.367-4.367Z" transform="translate(-363.199 -362.469)" fill="#2661b2"/>
  </g>
</svg>
