<svg xmlns="http://www.w3.org/2000/svg" width="17" height="17" viewBox="0 0 17 17">
  <g id="search_path" transform="translate(1578.91 -385)">
    <g id="Path_17877" data-name="Path 17877" transform="translate(-1578.91 385)">
      <path id="Path_17945" data-name="Path 17945" d="M-1571.284,400.252a7.635,7.635,0,0,1-7.626-7.626,7.635,7.635,0,0,1,7.625-7.626h0a7.577,7.577,0,0,1,5.392,2.233,7.576,7.576,0,0,1,2.234,5.392h0A7.634,7.634,0,0,1-1571.284,400.252Zm0-13.977h0a6.358,6.358,0,0,0-6.349,6.351,6.357,6.357,0,0,0,6.35,6.351,6.357,6.357,0,0,0,6.351-6.351,6.308,6.308,0,0,0-1.861-4.491A6.3,6.3,0,0,0-1571.284,386.275Z" transform="translate(1578.91 -385)" fill="#2661b2"/>
    </g>
    <g id="Path_17878" data-name="Path 17878" transform="translate(-1566.987 396.924)">
      <path id="Path_17946" data-name="Path 17946" d="M-1563.252,401.3a.636.636,0,0,1-.45-.187l-3.8-3.8a.637.637,0,0,1,0-.9.637.637,0,0,1,.9,0l3.8,3.8a.637.637,0,0,1,0,.9A.639.639,0,0,1-1563.252,401.3Z" transform="translate(1567.69 -396.22)" fill="#2661b2"/>
    </g>
  </g>
</svg>
