<svg xmlns="http://www.w3.org/2000/svg" width="15.719" height="16.817" viewBox="0 0 15.719 16.817">
  <g id="search_fill" transform="translate(1576.155 -411.183)">
    <g id="Path_17877" data-name="Path 17877" transform="translate(-1576.155 411.183)">
      <path id="Path_17943" data-name="Path 17943" d="M-1568.61,413.286a5.447,5.447,0,0,1,5.44,5.441,5.448,5.448,0,0,1-5.441,5.441,5.448,5.448,0,0,1-5.441-5.441,5.447,5.447,0,0,1,5.44-5.441h0m0-2.1h0a7.543,7.543,0,0,0-7.543,7.544,7.544,7.544,0,0,0,7.544,7.544,7.543,7.543,0,0,0,7.544-7.544h0a7.542,7.542,0,0,0-7.544-7.543Z" transform="translate(1576.155 -411.183)" fill="#2661b2"/>
    </g>
    <g id="Path_17878" data-name="Path 17878" transform="translate(-1565.457 422.979)">
      <path id="Path_17944" data-name="Path 17944" d="M-1561.589,427.425a.628.628,0,0,1-.446-.185l-3.759-3.759a.632.632,0,0,1,0-.893.632.632,0,0,1,.892,0l3.759,3.759a.632.632,0,0,1,0,.893A.632.632,0,0,1-1561.589,427.425Z" transform="translate(1565.979 -422.403)" fill="#2661b2"/>
    </g>
  </g>
</svg>
