<svg xmlns="http://www.w3.org/2000/svg" width="18" height="18" viewBox="0 0 18 18">
  <g id="about_icon" transform="translate(-17 -454)">
    <g id="Ellipse_141" data-name="Ellipse 141" transform="translate(17 454)" fill="none" stroke="#323232" stroke-width="1">
      <circle cx="9" cy="9" r="9" stroke="none"/>
      <circle cx="9" cy="9" r="8.5" fill="none"/>
    </g>
    <g id="Group_4448" data-name="Group 4448" transform="translate(23.996 457.685)">
      <path id="Path_10514" data-name="Path 10514" d="M-36.605,500.689q-1.969,2.07-2.945,2.07a1.078,1.078,0,0,1-.909-.551,2.431,2.431,0,0,1-.37-1.384,15.091,15.091,0,0,1,1.212-4.965l2.138-.446h.1l-.842,2.634a8.956,8.956,0,0,0-.522,2.331.763.763,0,0,0,.122.45.364.364,0,0,0,.307.173,1.127,1.127,0,0,0,.661-.24,8.11,8.11,0,0,0,1.048-1.04Z" transform="translate(40.83 -492.008)" fill="#323232"/>
      <ellipse id="Ellipse_140" data-name="Ellipse 140" cx="1.117" cy="0.917" rx="1.117" ry="0.917" transform="matrix(0.292, -0.956, 0.956, 0.292, 1.559, 2.137)" fill="#323232"/>
    </g>
  </g>
</svg>
