<svg xmlns="http://www.w3.org/2000/svg" viewBox="0 0 17.42 16.29"><defs><style>.cls-1{fill:#323232;}</style></defs><title>add_products</title><g id="Layer_2" data-name="Layer 2"><g id="Layer_1-2" data-name="Layer 1"><g id="Group_10196" data-name="Group 10196"><g id="Group_5184" data-name="Group 5184"><g id="Icon_feather-edit" data-name="Icon feather-edit"><g id="Path_11162" data-name="Path 11162"><path class="cls-1" d="M13.83,16.29H2.17A2.17,2.17,0,0,1,0,14.13V2.46A2.17,2.17,0,0,1,2.17.3H8a.5.5,0,0,1,.5.5.5.5,0,0,1-.5.5H2.17A1.16,1.16,0,0,0,1,2.46V14.13a1.16,1.16,0,0,0,1.17,1.16H13.83A1.16,1.16,0,0,0,15,14.13V8.3a.5.5,0,0,1,.5-.5.5.5,0,0,1,.5.5v5.83A2.16,2.16,0,0,1,13.83,16.29Z"/></g></g></g><g id="Icon_awesome-plus" data-name="Icon awesome-plus"><path class="cls-1" d="M17,2.58H14.83V.47A.47.47,0,0,0,14.36,0h-.47a.48.48,0,0,0-.47.47h0V2.58H11.31a.47.47,0,0,0-.47.47v.47a.47.47,0,0,0,.47.47h2.11V6.11a.48.48,0,0,0,.47.47h.47a.47.47,0,0,0,.47-.47h0V4H17a.47.47,0,0,0,.47-.47V3.05A.47.47,0,0,0,17,2.58Z"/></g></g></g></g></svg>