<svg xmlns="http://www.w3.org/2000/svg" width="18.263" height="17" viewBox="0 0 18.263 17">
  <g id="favorite_icon" transform="translate(-659.599 -507.267)">
    <path id="Path_13468" data-name="Path 13468" d="M668.729,524.267l-1.574-1.432C662.6,518.7,659.6,515.98,659.6,512.5a5.194,5.194,0,0,1,5.137-5.236h.106a5.651,5.651,0,0,1,3.888,1.593,5.653,5.653,0,0,1,3.894-1.593,5.258,5.258,0,0,1,3.682,1.483,5.157,5.157,0,0,1,1.557,3.655v.112c0,3.459-2.993,6.18-7.524,10.3Zm-3.9-16.053a4.265,4.265,0,0,0-4.285,4.284c0,3.061,2.874,5.669,7.225,9.616l.96.875.937-.847c4.377-3.977,7.247-6.585,7.247-9.64a4.242,4.242,0,0,0-4.284-4.289,4.713,4.713,0,0,0-3.542,1.644l-.36.42-.36-.42A4.709,4.709,0,0,0,664.831,508.214Z" transform="translate(0)" fill="#444"/>
  </g>
</svg>
