<svg xmlns="http://www.w3.org/2000/svg" width="20.122" height="19.31" viewBox="0 0 20.122 19.31">
  <g id="home_icon" transform="translate(-8972.015 -3476.993)" style="isolation: isolate">
    <g id="home" transform="translate(8972.015 3476.993)">
      <g id="Group_4801" data-name="Group 4801" transform="translate(0 0)">
        <g id="Group_4800" data-name="Group 4800">
          <path id="Path_10864" data-name="Path 10864" d="M19.907,34.882,10.369,27.9a.523.523,0,0,0-.618,0L.213,34.882a.523.523,0,0,0,.618.844l9.229-6.758,9.229,6.758a.523.523,0,0,0,.618-.844Z" transform="translate(0.001 -27.798)" fill="#323232"/>
        </g>
      </g>
      <g id="Group_4803" data-name="Group 4803" transform="translate(2.219 4.393)">
        <g id="Group_4802" data-name="Group 4802" transform="translate(0 5.026)">
          <path id="Path_10865" data-name="Path 10865" d="M71.614,232.543a.523.523,0,0,0-.523.523v8.322H66.909v-4.543a2.614,2.614,0,1,0-5.229,0v4.543H57.5v-8.322a.523.523,0,0,0-1.046,0v8.845a.523.523,0,0,0,.523.523H62.2a.523.523,0,0,0,.521-.482.394.394,0,0,0,0-.041v-5.066a1.569,1.569,0,0,1,3.137,0v5.066a.387.387,0,0,0,0,.04.523.523,0,0,0,.521.483h5.228a.523.523,0,0,0,.523-.523v-8.845A.523.523,0,0,0,71.614,232.543Z" transform="translate(-56.452 -232.543)" fill="#323232"/>
        </g>
        <path id="Path_10866" data-name="Path 10866" d="M2.026-16.326l7.5-5.647,7.277,5.647" transform="translate(-1.562 21.973)" fill="none" stroke="#323232" stroke-linejoin="round" stroke-width="1"/>
      </g>
      <line id="Line_22" data-name="Line 22" y1="2.516" transform="translate(16.351 2.175)" fill="none" stroke="#323232" stroke-linecap="round" stroke-width="1"/>
    </g>
  </g>
</svg>
