<svg xmlns="http://www.w3.org/2000/svg" viewBox="0 0 16 16"><defs><style>.cls-1{fill:#323232;}</style></defs><title>login_icon</title><g id="Layer_2" data-name="Layer 2"><g id="Layer_1-2" data-name="Layer 1"><g id="d"><g id="Path_10835" data-name="Path 10835"><path class="cls-1" d="M13.84,16H10.5a.5.5,0,0,1,0-1h3.33a1.16,1.16,0,0,0,.83-.34,1.17,1.17,0,0,0,.34-.83V2.17A1.17,1.17,0,0,0,13.83,1H10.5A.5.5,0,0,1,10,.5a.5.5,0,0,1,.5-.5h3.33A2.17,2.17,0,0,1,16,2.16V13.83A2.17,2.17,0,0,1,13.84,16Z"/></g><g id="Path_10836" data-name="Path 10836"><path class="cls-1" d="M6.33,12.66A.47.47,0,0,1,6,12.52a.5.5,0,0,1,0-.71L9.79,8,6,4.19a.5.5,0,0,1,.71-.71l4.16,4.16A.51.51,0,0,1,11,8a.47.47,0,0,1-.15.35L6.69,12.52A.5.5,0,0,1,6.33,12.66Z"/></g><g id="Path_10837" data-name="Path 10837"><path class="cls-1" d="M10.5,8.5H.5A.5.5,0,0,1,0,8a.5.5,0,0,1,.5-.5h10A.5.5,0,0,1,11,8,.5.5,0,0,1,10.5,8.5Z"/></g></g></g></g></svg>