<svg xmlns="http://www.w3.org/2000/svg" width="23.334" height="23.471" viewBox="0 0 23.334 23.471">
  <g id="notification_icon" transform="translate(-12.602 -335.749)">
    <g id="Icon_ionic-ios-notifications" data-name="Icon ionic-ios-notifications" transform="translate(13.3 344.396) rotate(-30)">
      <path id="Path_11167" data-name="Path 11167" d="M22.47,18.667c-.766-1.01-2.273-1.6-2.273-6.123,0-4.64-2.049-6.506-3.959-6.953-.179-.045-.308-.1-.308-.293V5.154a1.214,1.214,0,1,0-2.427,0V5.3c0,.184-.129.249-.308.293-1.915.453-3.959,2.313-3.959,6.953,0,4.521-1.507,5.108-2.273,6.123a.987.987,0,0,0,.791,1.582H21.684A.987.987,0,0,0,22.47,18.667Z" transform="translate(-6.761 -3.93)" fill="none" stroke="#323232" stroke-width="1"/>
    </g>
    <path id="Path_11168" data-name="Path 11168" d="M11568.006,3204.935s.807,1.031,1.558,1.031,1.443-1.031,1.443-1.031" transform="translate(-11592.893 3365.335) rotate(-30)" fill="none" stroke="#323232" stroke-linecap="round" stroke-width="1"/>
  </g>
</svg>
