<svg xmlns="http://www.w3.org/2000/svg" viewBox="0 0 361.26 226.28"><defs><style>.cls-1{fill:#e5e5e5;}.cls-2{fill:#fefefe;}.cls-3{fill:#e6e6e6;}</style></defs><title>pattern</title><g id="Layer_2" data-name="Layer 2"><g id="Layer_1-2" data-name="Layer 1"><path id="Path_53" data-name="Path 53" class="cls-1" d="M38.65,78.33c-.28-2.22-.57-4.44-.88-6.89,2.1,1.69,2.53,2,3.21,2a2.71,2.71,0,0,0,2.83-1.79,3.32,3.32,0,0,0-1-3.64,14.54,14.54,0,0,0-4.21-2.4c2-1.89,2.75-3.82,1.94-4.85-1.05-1.32-1.9-1.34-4.1,0-.24-2-.46-3.77-.67-5.58a1.65,1.65,0,0,0-1.59-1.71,1.73,1.73,0,0,0-.45.05c-1.2.13-2.39.29-3.58.43-.91.11-1.49.63-1.3,1.54.22,1.09-.36,1.15-1.15,1.24-3.4.39-6.78.82-10.17,1.24-1.65.2-2.1.76-1.91,2.36.74,6.11,1.52,12.22,2.23,18.33a1.59,1.59,0,0,0,1.45,1.73,1.44,1.44,0,0,0,.65-.08c3.48-.46,7-.85,10.45-1.3.82-.11,1.42-.12,1.43,1s.64,1.29,1.57,1.15c1.09-.16,2.19-.27,3.29-.41C38.67,80.48,38.88,80.22,38.65,78.33ZM38.5,67.17a10.41,10.41,0,0,1,3.24,1.76,2.64,2.64,0,0,1,.68,1.55,1,1,0,0,1-.52,1.2,1.32,1.32,0,0,1-1.74-.32c-1.39-1-1.68-2.39-2.14-3.68-.13-.36,0-.76.49-.51Zm.36-5.9c.37.1.45.45.4.81a2.31,2.31,0,0,1-1.73,2,5.52,5.52,0,0,1,.52-2.4.68.68,0,0,1,.81-.43Zm-14-2.57c1.15-.07,2.29-.26,3.43-.39a6.31,6.31,0,0,1,.87,0c.07.36.14.63.18.91.27,2.19.5,4.38.83,6.57.13.88-.13,1.21-1,1.27-1.34.08-3,.8-3.9.24s-.52-2.47-.73-3.78S24.22,61,24,59.8c-.11-.7,0-1,.81-1.09Zm-6.49,9.42a6.69,6.69,0,0,1-.16-.75c-.28-2.24-.54-4.48-.84-6.72-.1-.73.08-1.07.85-1.12,1-.08,2.11-.21,3.15-.39.77-.13,1,.17,1.09.89.24,2.25.52,4.49.82,6.73.1.73-.08,1.06-.85,1.12-1,.08-2.1.25-3.15.37a1,1,0,0,1-.91-.13ZM24,78.18c-1.24.11-2.48.29-3.72.44-.19,0-.38,0-.63,0-.06-.23-.12-.46-.16-.7-.29-2.38-.57-4.76-.89-7.14-.08-.62.06-.93.71-.92a1.33,1.33,0,0,0,.28,0c1.29-.13,2.91-.78,3.76-.24s.51,2.39.7,3.66.33,2.67.5,4c.06.46.11.84-.55.9Zm5.53-.68c-3.26.38-3.26.39-3.66-2.88-.16-1.33-.24-2.69-.52-4S25.52,69,26.69,69a14.79,14.79,0,0,0,2.57-.31c.88-.18,1.27,0,1.36,1,.18,2.2.51,4.38.77,6.57a1.28,1.28,0,0,1-.24,1.23,12.84,12.84,0,0,0-1.64,0Zm4.33,2.08c-.78-.07-.48-.93-.54-1.42C32.4,71.1,31.57,64,30.66,57c-.14-1.06,0-1.5,1.19-1.6,2.31-.18,2.31-.26,2.58,2q1.26,10.23,2.51,20.48c.05.42.05.84.1,1.61a22.78,22.78,0,0,1-3.2.14Z"/><path id="Path_70" data-name="Path 70" class="cls-1" d="M35.33,5.12a7.08,7.08,0,0,0-3.26-.37c-.42,0-.87.22-1.24-.13-1.4-1.37-3.3-1.83-4.94-2.78a2.49,2.49,0,0,0-1.65-.25c-4.49.56-9,1.13-13.47,1.64-1.23.14-1.66.62-1.48,1.87.41,2.86.77,5.72,1.05,8.59.13,1.33.68,1.71,2,1.53,3.48-.49,7-1,10.46-1.26,2.49-.2,4.68-.82,6.37-2.75.16-.18.34-.33.51-.5A7.49,7.49,0,0,1,34.34,8a2.11,2.11,0,0,0,1.55-1C36.48,6.13,36.38,5.52,35.33,5.12ZM29.32,9a26,26,0,0,0-2.7,2.32,2.19,2.19,0,0,1-1.4.62c-4.11.5-8.22,1-12.32,1.53-.85.11-1.18,0-1.26-1-.2-2.25-.49-4.49-.82-6.73-.13-.89.15-1.17,1-1.27Q17.93,3.85,24,3.05a3.12,3.12,0,0,1,1.8.34c1,.45,1.94,1,3.29,1.72-1.49.1-2.46.53-3.61.06a2.32,2.32,0,0,0-3,1.35c0,.07-.05.15-.08.22A2.51,2.51,0,0,0,24,9.91l.1,0a2.66,2.66,0,0,0,3-1.82c.17-.48.09-1.08.75-1.28s1.35-.62,1.69,0A1.55,1.55,0,0,1,29.32,9ZM25.44,8.1a.81.81,0,0,1-1.29.12A.94.94,0,0,1,24,6.92a.89.89,0,0,1,1.23-.24s0,0,0,.05C25.81,7.09,25.71,7.64,25.44,8.1Z"/><path id="Path_71" data-name="Path 71" class="cls-2" d="M33.61,6.52A14.77,14.77,0,0,1,32,7c-.28,0-.75.29-.83-.23s.44-.54.8-.55c.52,0,1,0,1.57.07Z"/><path id="Path_74" data-name="Path 74" class="cls-1" d="M53.71,42c-.42-2.4-.79-4.82-1.3-7.21-.61-2.8-.74-5.7-1.75-8.56.57.1,1,.2,1.42.25a3.35,3.35,0,0,0,3.34-2,3.55,3.55,0,0,0-4.92-4.61c-.56.42-1.39,1-1,1.71s1.08.07,1.64-.26a2.14,2.14,0,0,1,2.33,0,2,2,0,0,1,.71,2.2,1.42,1.42,0,0,1-1.5,1.28,15.32,15.32,0,0,0-3.94.26c-5.13.58-10.31.8-15.47,1.14-.88,0-1.69.3-1.91,1.21s.59,1.23,1.15,1.67L51.14,43.65c.61.47,1.23,1.11,2,.55S53.85,42.77,53.71,42Zm-20.24-14c2.55-.61,5-.44,7.4-.75,2.23-.29,4.48-.27,6.72-.48a1.66,1.66,0,0,1,2,1.22.29.29,0,0,1,0,.09,38.28,38.28,0,0,1,.78,4.53c.68,3.2,1.14,6.45,1.75,10Z"/><path id="Path_145" data-name="Path 145" class="cls-1" d="M62.29,72.32c-2.62-2-5.22-4.1-7.86-6.13a1.52,1.52,0,0,1-.51-2.28c2.77-5.39,5.41-10.85,8.08-16.3.19-.38.27-.81.43-1.21s.34-1.14,1-.93.74.87.52,1.45c-.33.84-.75,1.65-1.15,2.47-1.08,2.18-2.15,4.37-3.27,6.53-.46.9.21,1.22.72,1.62l11.26,8.8.79.63c.29.22.49.48.25.85a.73.73,0,0,1-1,.33h0a6.09,6.09,0,0,1-.93-.67c-3.68-2.87-7.37-5.74-11-8.63-.76-.6-1.21-.77-1.68.35-.65,1.59-1.52,3.08-2.29,4.62A1.27,1.27,0,0,0,56,65.58l.1.06c4.77,3.67,9.49,7.4,14.24,11.09.35.27.69.82,1.23.38a10,10,0,0,0,1.86-1.75c.19-.27-.5-.62-.83-.87-3.71-2.92-7.43-5.81-11.13-8.73-.47-.37-1.49-.71-.87-1.49.49-.62,1.21-.07,1.76.36,3.75,2.94,7.53,5.85,11.25,8.83.87.7,1.49.8,2.33,0a29.1,29.1,0,0,1,3.48-3c1.34-.91.9-1.4-.1-2.16-3.64-2.78-7.22-5.62-10.82-8.44l-.68-.53c-.42-.29-.61-.69-.31-1.1s.83-.37,1.25,0c.11.1.23.18.34.27l12.51,9.78c1.23,1,1.21,1.28,0,2.29Q77,74.5,72.4,78.4a1.52,1.52,0,0,1-2.15.17l-.12-.11C67.54,76.38,64.91,74.36,62.29,72.32Z"/><path id="Path_146" data-name="Path 146" class="cls-1" d="M22,196.23c3,2.37,6.06,4.76,9.11,7.1.73.56.87,1,.25,1.74-1.7,2.09-3.33,4.23-5,6.36-.32.41-.62.93-1.26.41s-.14-.92.15-1.34c1.53-2.11,1.53-2.1-.54-3.73-4.86-3.79-9.73-7.56-14.55-11.4-1-.77-1.6-.91-2.25.25A10.81,10.81,0,0,1,7,196.76c-.28.36-.58.48-1,.18s-.52-.58-.21-1c1.87-2.38,3.72-4.79,5.62-7.15.57-.72,1,0,1.44.31C15.91,191.48,18.94,193.86,22,196.23Z"/><path id="Path_147" data-name="Path 147" class="cls-1" d="M108.55,93.09c2.5,2,5,3.94,7.52,5.84.86.65,1.06,1.11.3,2-3.1,3.85-6.11,7.79-9.18,11.68-.31.39-.56,1.23-1.3.64s-.14-1.11.23-1.59c2.72-3.49,5.42-7,8.19-10.45.7-.87.7-1.34-.23-2.05-4.54-3.48-9-7-13.54-10.55l-.8-.63c-.42-.34-.89-.72-.41-1.29s.87-.18,1.26.13l1.82,1.42Z"/><path id="Path_149" data-name="Path 149" class="cls-1" d="M25.87,197.45l-7-5.51c-.44-.34-1.14-.71-.65-1.36s1.1-.1,1.57.26c5.11,4,10.21,8,15.35,12,.79.61.86,1.05.22,1.84-2.25,2.8-4.45,5.67-6.68,8.5-.3.39-.56,1-1.24.51s-.19-1,.14-1.43c1.86-2.39,3.69-4.8,5.61-7.14.75-.91.77-1.43-.23-2.16C30.53,201.16,28.22,199.28,25.87,197.45Z"/><path id="Path_153" data-name="Path 153" class="cls-1" d="M55.45,68.07a1.91,1.91,0,0,1,.64,2.63,1.73,1.73,0,0,1-.39.46,2.17,2.17,0,0,1-3.33-2.77,1.92,1.92,0,0,1,2.62-.7A1.87,1.87,0,0,1,55.45,68.07Z"/><path id="Path_154" data-name="Path 154" class="cls-1" d="M64.91,78.14c.88-1.16,1.71-1.3,2.8-.48,1.24.92,1.48,2,.67,3.07a2.24,2.24,0,0,1-3.07.54,2.09,2.09,0,0,1-.59-2.89A2.51,2.51,0,0,1,64.91,78.14Z"/><path id="Path_155" data-name="Path 155" class="cls-1" d="M11,200.12,8.16,197.9c-.41-.32-.71-.73-.28-1.21s.78-.22,1.15.06l5.89,4.61c.41.32.72.73.29,1.21s-.78.22-1.15-.06Z"/><path id="Path_160" data-name="Path 160" class="cls-1" d="M216,43.9c-.28-2.27-.58-4.54-.87-6.81,1.08.76,1.94,1.63,3.17,1.69A2.59,2.59,0,0,0,221.14,37a3.29,3.29,0,0,0-.92-3.65A15.08,15.08,0,0,0,216,31c2-1.92,2.73-3.81,1.94-4.83-1-1.29-1.74-1.32-4.14-.06-.22-1.86-.44-3.67-.65-5.47a1.69,1.69,0,0,0-1.64-1.74,1.88,1.88,0,0,0-.53.06c-1.09.15-2.19.29-3.29.41s-1.66.6-1.46,1.68c.16.91-.27,1-1,1.1-3.44.39-6.88.82-10.31,1.25-1.71.22-2.13.75-1.92,2.49q1.09,9,2.21,18c.22,1.78.52,2,2.37,1.77,3.43-.41,6.87-.82,10.3-1.27.84-.11,1.28,0,1.31,1s.61,1.32,1.55,1.18c1.19-.18,2.39-.3,3.58-.45C215.93,45.88,216.21,45.52,216,43.9Zm2.59-10a2.67,2.67,0,0,1,1.18,2.5c0,.6-.57.79-1,.86A2.27,2.27,0,0,1,216.67,36a5.55,5.55,0,0,1-1.27-3.4,9.23,9.23,0,0,1,3.2,1.3Zm-2.43-7.21c.63.17.48.73.35,1.19a2.12,2.12,0,0,1-1.62,1.6,4.92,4.92,0,0,1,.37-2.08c.16-.44.41-.85.9-.71ZM202,24.14l.14,0c1.38-.13,3.09-.82,4-.25s.57,2.55.8,3.91c.2,1.18.3,2.38.45,3.57.06.5.13,1-.59,1-1.34.14-2.67.32-4,.48a4.17,4.17,0,0,1-.5,0c-.06-.22-.11-.45-.15-.67-.3-2.38-.58-4.77-.89-7.15-.08-.59,0-.92.69-.91Zm-6.54,8.63q-.36-3.36-.82-6.72c-.1-.73.09-1.06.85-1.12,1.06-.08,2.1-.25,3.15-.37a8.47,8.47,0,0,1,.88,0,7.57,7.57,0,0,1,.19.89c.29,2.24.54,4.48.84,6.72.11.73-.09,1.06-.85,1.12-1.05.08-2.11.21-3.15.39-.77.13-1-.18-1.09-.9Zm5.18,10.89c-1.24.06-2.79.86-3.59.18s-.48-2.23-.63-3.41c-.19-1.39-.31-2.77-.53-4.15-.1-.67.06-1,.77-1,1.15-.09,2.29-.27,3.43-.41.38,0,.78-.16.85.45.29,2.53.61,5,.92,7.57a5.92,5.92,0,0,1-.05.84,9.18,9.18,0,0,0-1.17-.07Zm7.43-.93c-1.19.16-2.39.26-3.57.46-.79.13-1-.22-1.08-.92-.24-2.24-.52-4.48-.82-6.71-.11-.74.1-1.06.86-1.12,1.38-.1,3.06-.82,4.05-.26s.51,2.46.73,3.77.31,2.47.46,3.71c0,.28,0,.57.08.91a6.13,6.13,0,0,1-.72.17ZM211.17,45c-.76-.08-.46-.93-.53-1.43-.89-7.07-1.72-14.14-2.64-21.2-.14-1.08,0-1.64,1.21-1.56a1.78,1.78,0,0,0,.57-.07c1.33-.4,1.81,0,2,1.46.78,7,1.68,14,2.53,21.06a2.07,2.07,0,0,1-.18,1.6,16.88,16.88,0,0,1-2.93.14Z"/><path id="Path_161" data-name="Path 161" class="cls-1" d="M134.88,147.49c-.27-2.22-.56-4.44-.88-6.88,2.11,1.68,2.54,2,3.22,1.95a2.71,2.71,0,0,0,2.82-1.79,3.33,3.33,0,0,0-.95-3.65,14.54,14.54,0,0,0-4.21-2.4c2-1.88,2.76-3.82,1.94-4.85-1-1.32-1.9-1.33-4.1,0-.24-2-.45-3.77-.67-5.58a1.65,1.65,0,0,0-1.59-1.71,1.73,1.73,0,0,0-.45.05c-1.19.13-2.38.29-3.58.43-.9.12-1.49.64-1.3,1.54.23,1.1-.36,1.15-1.15,1.24-3.39.4-6.78.82-10.16,1.24-1.65.21-2.11.76-1.91,2.37.74,6.11,1.51,12.21,2.23,18.32.15,1.35.75,1.84,2.1,1.66,3.47-.47,7-.86,10.44-1.31.82-.1,1.42-.12,1.43,1s.64,1.29,1.58,1.15c1.09-.16,2.19-.27,3.29-.41C134.9,149.64,135.11,149.38,134.88,147.49Zm-.14-11.16A10.29,10.29,0,0,1,138,138.1a2.53,2.53,0,0,1,.68,1.54,1,1,0,0,1-.52,1.2,1.33,1.33,0,0,1-1.74-.31c-1.39-1-1.68-2.4-2.14-3.69C134.13,136.48,134.22,136.08,134.74,136.33Zm.35-5.9c.38.1.46.45.4.81a2.33,2.33,0,0,1-1.72,2,5.39,5.39,0,0,1,.51-2.41A.68.68,0,0,1,135.09,130.43Zm-14-2.56c1.15-.07,2.29-.27,3.44-.4a8.22,8.22,0,0,1,.86,0c.07.36.15.63.18.91.27,2.19.51,4.39.83,6.57.13.89-.13,1.21-1,1.27-1.33.08-3,.8-3.9.24s-.52-2.47-.73-3.78-.28-2.48-.47-3.71c-.12-.7,0-1,.8-1.1Zm-6.49,9.41a6.69,6.69,0,0,1-.16-.75c-.28-2.24-.53-4.48-.84-6.72-.1-.73.08-1.07.85-1.12q1.59-.12,3.15-.39c.77-.13,1,.17,1.09.89q.36,3.38.83,6.73c.1.72-.09,1.06-.86,1.12-1,.08-2.1.25-3.15.37a1,1,0,0,1-.91-.13Zm5.64,10.06c-1.24.12-2.48.3-3.72.44a5.53,5.53,0,0,1-.63,0c-.06-.23-.12-.46-.16-.69-.29-2.39-.57-4.77-.89-7.15-.08-.61.06-.92.71-.91l.28,0c1.28-.13,2.91-.79,3.76-.24s.5,2.38.7,3.65.33,2.67.5,4C120.83,146.9,120.87,147.28,120.21,147.34Zm5.53-.68c-3.26.38-3.26.39-3.66-2.88-.16-1.33-.24-2.68-.51-4s.18-1.63,1.35-1.65a14.68,14.68,0,0,0,2.57-.32c.88-.18,1.27,0,1.36,1,.18,2.19.51,4.38.77,6.57a1.28,1.28,0,0,1-.23,1.22c-.55,0-1.1,0-1.65,0Zm4.33,2.09c-.78-.08-.48-.93-.54-1.43-.89-7.06-1.73-14.13-2.64-21.19-.14-1.06,0-1.51,1.2-1.6,2.31-.19,2.3-.26,2.58,2q1.25,10.24,2.5,20.49c.05.42.06.84.11,1.6a21.56,21.56,0,0,1-3.21.14Z"/><path id="Path_162" data-name="Path 162" class="cls-1" d="M89.43,189.75c-.27-2.23-.56-4.44-.9-7.08l2,1.57a2.29,2.29,0,0,0,1.29.56,2.57,2.57,0,0,0,2.8-1.79,2.93,2.93,0,0,0-.72-3.44,9.93,9.93,0,0,0-3.09-2.07c-1.11-.43-1.61-.75-.33-1.8a2.87,2.87,0,0,0,.56-4,1.63,1.63,0,0,0-.17-.2c-.83-.88-2.08-.63-3.86.94-.25-2.33-.51-4.38-.68-6.43-.09-1-.51-1.33-1.5-1.16-1.28.21-2.58.33-3.87.49-.91.11-1.49.63-1.3,1.54.23,1.1-.37,1.14-1.15,1.24q-5.16.58-10.32,1.25c-1.43.18-1.93.81-1.76,2.22.74,6.16,1.52,12.32,2.24,18.48.15,1.26.68,1.6,1.9,1.46,3.62-.41,7.22-1.09,10.89-1.18.82,0,1.14.16,1.17,1,0,1.1.71,1.34,1.69,1.19s2.19-.28,3.29-.42C89.4,191.85,89.65,191.53,89.43,189.75Zm0-11.17a11.93,11.93,0,0,1,2.75,1.47,2.62,2.62,0,0,1,1,1.06,1.53,1.53,0,0,1-.38,1.95c-.56.45-1.12.19-1.69-.2-1.39-.93-1.77-2.45-2.3-3.86-.22-.58.22-.61.67-.42Zm0-6c.55.08.62.49.57,1-.1,1-.77,1.46-1.84,2l.47-2.31a.68.68,0,0,1,.72-.63Zm-13.84-2.49c1.38-.11,3.09-.82,4-.25s.57,2.55.8,3.9c.2,1.18.3,2.38.45,3.57.06.5.14,1-.58,1.05-1.34.15-2.67.33-4,.49a4.21,4.21,0,0,1-.5,0c-.06-.22-.12-.44-.16-.66-.29-2.38-.55-4.77-.89-7.14-.11-.76.21-.9.84-.95Zm-6.35,9.52c-.33-.27-.28-.63-.32-1-.28-2.2-.51-4.39-.83-6.58-.11-.81.13-1.08.94-1.2,4-.62,4-.65,4.48,3.33.17,1.34.33,2.67.49,4,.06.44.13.89-.51,1l-3.86.47a1.83,1.83,0,0,1-.4,0Zm4.59,10c-1.14.12-2.66.7-3.32.19s-.47-2.13-.62-3.26c-.18-1.33-.26-2.68-.52-4-.21-1,.16-1.34,1.13-1.38,1.24,0,2.88-.74,3.6-.18s.51,2.3.67,3.53.34,2.68.5,4c0,.27,0,.55,0,.88-.53.08-1,.17-1.48.22Zm7.46-.9c-1.38.06-3,.93-4,.23s-.52-2.49-.74-3.8-.31-2.48-.47-3.72c0-.44-.13-.9.51-1l4.15-.51a2.56,2.56,0,0,1,.47,0c0,.28.12.56.15.84.29,2.29.53,4.58.86,6.85.12.81-.18,1-.88,1Zm4.88,2.09a9.79,9.79,0,0,0-1.87.35c-.1-.51-.15-.79-.2-1.07-1.23-7.4-2-14.86-3-22.29-.12-.92.14-1.13,1-1.23,2.74-.33,2.74-.36,3.08,2.41.81,6.64,1.58,13.28,2.47,19.9.19,1.39-.1,1.95-1.52,1.93Z"/><path id="Path_164" data-name="Path 164" class="cls-1" d="M74.46,212.35c.25-3.86.61-7.73,1-11.59.18-1.83-.07-2.16-1.91-1.93l-21.47,2.63c-3.89.47-3.88.47-5.11-3.26-.27-.81-.37-1.71-.89-2.18-.74-.6-4.27-.33-4.72.22-.15.18-.29.4-.14.65a.78.78,0,0,0,.71.42,9.94,9.94,0,0,0,1.72-.18c1-.23,1.4,0,1.73,1.06,1.85,5.69,3.83,11.34,5.69,17a1.85,1.85,0,0,0,2.08,1.6,1.55,1.55,0,0,0,.31-.07q9.51-1.26,19-2.33a1.86,1.86,0,0,0,2-1.72A2,2,0,0,0,74.46,212.35Zm-24.39-5.79c-.76-.74-.73-1.77-1.11-2.61-.17-.37.15-.48.46-.52l3.09-.45.08.36Zm1.13,3.73a1.62,1.62,0,0,1-.53-1.94,53.27,53.27,0,0,1,4.27-5.42c.53-.59,1.6-.37,2.77-.45-2,2.51-3.69,4.75-5.46,7-.29.36-.52,1.24-1,.86Zm1.56,4.53c-1.2-2-1.2-2.13.17-3.88l5.4-6.91c1.61-2.06,1.61-2.06,4.54-2.14Zm1.94,0,3.63-4.65c1.9-2.43,3.88-4.79,5.66-7.3.95-1.34,2.11-1.6,3.79-1.5L64.15,206c-1.9,2.42-3.88,4.79-5.66,7.3-1,1.33-2.11,1.59-3.8,1.5Zm4.88-.61,9.91-12.68c.78-1,1.89-.64,3.25-.88l-2.46,3.14c-2.31,3-4.69,5.87-6.9,8.9a3.72,3.72,0,0,1-3.8,1.51Zm4.88-.56,9-11.57c0,1.74.32,3.46-1,5a44.88,44.88,0,0,0-3.8,4.9c-1,1.61-2.46,1.72-4.29,1.72Zm5.43-.73a1.69,1.69,0,0,1,.15-.37l3-3.84c0,4.63,0,4.18-3.15,4.21Z"/><path id="Path_165" data-name="Path 165" class="cls-1" d="M172.92,20.19c.9-1.35.87-2.91,1.18-4.39a2.21,2.21,0,0,0-1-2.45c-2.76-2.07-5.47-4.24-8.19-6.37l-6.25-4.89c-3.45-2.69-3.45-2.69-7.27-.53-.17.09-.32.21-.48.31a3.17,3.17,0,0,0-1.22,4.25c.49.89.19,1.37-.31,2-3,3.81-6,7.67-9,11.46-.73.9-.76,1.4.22,2.15Q148.7,28,156.71,34.36c.91.72,1.37.62,2-.27,3-3.89,6-7.73,9-11.62a1.75,1.75,0,0,1,1.91-.84A3.08,3.08,0,0,0,172.92,20.19Zm-28.28,2.86a.47.47,0,0,0-.12-.09c-3.23-2.2-3.23-2.2-.34-5.9l.44-.56c2.37-3,2.66-3,5.4-.25a.77.77,0,0,1,.07,1.22q-2.13,2.72-4.25,5.44a.72.72,0,0,1-1.2.14Zm12.09,9.47c-1.56-1.27-3.17-2.49-4.76-3.74s-3.09-2.44-4.66-3.63c-.64-.48-.73-.87-.21-1.52q3.32-4.17,6.57-8.4c.47-.61.86-.59,1.42-.15q4.75,3.75,9.54,7.46c.57.45.67.82.2,1.42q-3.32,4.17-6.57,8.4c-.5.66-.91.66-1.53.16Zm8.76-11.14c-1.8-1.38-3.57-2.78-5.35-4.17s-3.35-2.58-5-3.92c-.82-.68-1.36-.58-2,.25-1.62,2.06-1.65,2-3.73.41-.34-.26-.66-.55-1-.8-.57-.39-.55-.8-.13-1.31.87-1.09,1.7-2.22,2.59-3.29a1.88,1.88,0,0,1,2.65.18,1.72,1.72,0,0,1,.24.34A3.55,3.55,0,0,0,157,11.6a1.09,1.09,0,0,1,1.09.9A3.35,3.35,0,0,0,161.28,15a1.08,1.08,0,0,1,1.14.84,3.39,3.39,0,0,0,3.25,2.55,2.94,2.94,0,0,1,1.63,2.34,1.1,1.1,0,0,1-1.81.68Zm4.2-1.29c-1.5-.19-1.45-1.27-1.43-2.35a2.4,2.4,0,0,1,.23-.82c.15-.4.16-.76-.24-1a.7.7,0,0,0-.92.17,2,2,0,0,1-2.72.41c-.94-.66-.83-1.77-.52-2.77.13-.43.33-.85-.12-1.16s-.79,0-1.13.3a2,2,0,0,1-2.52.28c-.82-.54-.77-1.45-.68-2.33.05-.53.67-1.1,0-1.59s-1,.21-1.45.5a1.92,1.92,0,0,1-2.3,0,2.26,2.26,0,0,1-.6-2.38c.08-.52.67-1.1,0-1.55s-.93.26-1.34.52A1.91,1.91,0,0,1,151.26,6a2.09,2.09,0,0,1,.55-2.9l.22-.13.6-.38c1.7-1,3.17-1.24,4.84.38A82.08,82.08,0,0,0,164,8.14c2.5,1.95,5,3.94,7.51,5.84a2.06,2.06,0,0,1,.95,2.46c-.19.64-.26,1.31-.42,2a1.89,1.89,0,0,1-2,1.74,1.65,1.65,0,0,1-.32-.06Z"/><path id="Path_166" data-name="Path 166" class="cls-1" d="M91.81,123.94c.92-1.39.89-3,1.19-4.53a2,2,0,0,0-.93-2.21c-2.79-2.12-5.54-4.3-8.31-6.47l-6.25-4.88c-3.44-2.69-3.44-2.69-7.26-.54-.17.1-.32.22-.48.32a3.18,3.18,0,0,0-1.21,4.25c.49.89.18,1.37-.32,2-3,3.84-6,7.73-9.09,11.57-.65.82-.67,1.27.21,2q8.16,6.3,16.25,12.7c.91.73,1.37.62,2-.27,3-3.89,6-7.73,9-11.62a1.75,1.75,0,0,1,1.91-.84A3.05,3.05,0,0,0,91.81,123.94Zm-28.39,2.8c-3.24-2.21-3.25-2.21-.89-5.22l.53-.68c.17-.24.34-.46.53-.68.75-.78,1.17-2.36,2.17-2.3,1.26.08,2.16,1.46,3.23,2.24.49.36.29.74,0,1.11-1.41,1.81-2.84,3.62-4.25,5.44C64.3,127.23,63.93,127.09,63.42,126.74Zm12.2,9.53c-1.53-1.24-3.1-2.43-4.65-3.65s-3.16-2.5-4.78-3.72c-.64-.48-.7-.88-.19-1.52q3.27-4.12,6.48-8.29c.47-.61.85-.78,1.52-.25q4.74,3.76,9.54,7.46c.58.45.65.83.18,1.41q-3.31,4.19-6.57,8.41C76.64,136.8,76.22,136.76,75.62,136.27Zm8.78-11.12c-1.79-1.38-3.56-2.78-5.35-4.17s-3.35-2.58-5-3.92c-.8-.66-1.34-.63-2,.22-1.65,2.07-1.68,2-3.72.45-.31-.24-.59-.5-.92-.71-.68-.44-.72-.9-.19-1.52.69-.8,1.31-1.66,2-2.49,1.34-1.71,2.73-1.61,3.67.32a3.37,3.37,0,0,0,2.89,2,1.29,1.29,0,0,1,1.31,1,3.25,3.25,0,0,0,3.09,2.36,1.19,1.19,0,0,1,1.21,1,3.38,3.38,0,0,0,3.18,2.44,3.06,3.06,0,0,1,1.67,2.32,1.1,1.1,0,0,1-1.27.93,1.05,1.05,0,0,1-.53-.23Zm4.14-1.3c-1.43-.19-1.39-1.23-1.4-2.25a2.8,2.8,0,0,1,.26-1,.73.73,0,0,0-.18-.91.72.72,0,0,0-1,.15,2,2,0,0,1-2.73.36c-.86-.63-.78-1.69-.51-2.66.13-.46.44-.93-.13-1.27s-.78,0-1.12.35a2,2,0,0,1-2.52.24c-.77-.51-.75-1.39-.66-2.22a2.28,2.28,0,0,1,.19-.69c.17-.39.22-.77-.17-1s-.72-.11-1,.19a2,2,0,0,1-2.73.32,2.34,2.34,0,0,1-.48-2.67c.13-.42.39-.84,0-1.18s-.84,0-1.24.31c-1.13.82-2.34.7-2.88-.22a2,2,0,0,1,.54-2.84,1.64,1.64,0,0,1,.29-.16c.84-.45,1.74-.79,2.58-1.24s1.17,0,1.67.43l7.73,6c2.54,2,5,4,7.63,5.94a1.89,1.89,0,0,1,.81,2.23c-.18.7-.28,1.42-.44,2.12a1.91,1.91,0,0,1-2.41,1.64Z"/><path id="Path_168" data-name="Path 168" class="cls-1" d="M112.39,101.38c.64-.81.54-1.23-.24-1.84Q103,92.46,94,85.32c-.89-.71-1.32-.51-1.94.3q-4.52,5.89-9.15,11.71c-.69.86-.59,1.3.26,1.94,3,2.3,6,4.67,9,7s6.08,4.72,9.08,7.13c.81.65,1.27.69,2-.2Q107.71,107.23,112.39,101.38Zm-11.33,10.06c-2.63-2.1-5.29-4.15-7.94-6.22S87.76,101,85,98.92c-.75-.57-.82-1-.22-1.73,1.5-1.82,2.94-3.68,4.36-5.57.54-.73,1-.86,1.73-.26q8,6.36,16.13,12.62c.69.54.76.94.2,1.63-1.51,1.86-3,3.75-4.44,5.68C102.21,112.09,101.76,112,101.06,111.44Zm7.9-10q-8.05-6.32-16.13-12.61c-.56-.44-.88-.79-.33-1.51s1-.52,1.65,0c2.67,2.12,5.37,4.21,8.06,6.31s5.29,4.16,8,6.21c.61.47,1,.85.35,1.62s-1,.46-1.55,0Z"/><path id="Path_169" data-name="Path 169" class="cls-1" d="M25.25,161c-.27-2.47-.86-4.91-.64-7.44.33-3.87.51-7.74.73-11.62.06-1-.28-1.49-1.45-1.34Q12.65,142,1.41,143.36c-1.15.14-1.72.48-1.24,1.87,2.29,6.53,4.25,13.14,4.61,20.12,0,.19.06.38.08.57a1.28,1.28,0,0,0,.65.93c.49.54,1.13.35,1.74.28l14.61-1.79C26,164.86,25.71,165.13,25.25,161ZM4.88,154.84C4,151.9,3,149,2.05,146.08c-.24-.74-.11-1.15.78-1.26q10-1.19,20.06-2.44c.23,0,.47,0,.65,0,.36.27.19.56.17.83-.18,3.16-.38,6.31-.53,9.47,0,.72-.43.88-1,1L6,155.57A.86.86,0,0,1,4.91,155a.58.58,0,0,1,0-.19ZM23,163.57c-5.2.61-10.4,1.27-15.6,1.89a8.29,8.29,0,0,1-.88,0c-.08-.34-.16-.61-.2-.89-.28-2.19-.51-4.39-.83-6.57-.1-.76.11-1,.85-1.08,5.16-.6,10.3-1.23,15.45-1.89.83-.11,1.1.15,1.18.95q.35,3.3.81,6.58c.1.69-.1.91-.78,1Z"/><path id="Path_171" data-name="Path 171" class="cls-1" d="M106.62,59.55c-.16-1.29-.37-2.57-.46-3.87a34.9,34.9,0,0,1-.46-5.86c.36-3.87.53-7.74.75-11.61,0-.94-.23-1.53-1.43-1.37-7.49.95-15,1.84-22.48,2.78-1.56.19-1.71.45-1.2,2,2.22,6.5,4.18,13.06,4.54,20,0,.19.05.38.07.57a1.25,1.25,0,0,0,.61.93,1.37,1.37,0,0,0,1.19.38l17.61-2.16a1.35,1.35,0,0,0,1.32-1.38A1.13,1.13,0,0,0,106.62,59.55ZM86,51.06c-.92-2.92-1.88-5.83-2.83-8.75-.25-.75-.09-1.14.8-1.24q10-1.2,20.05-2.45c.23,0,.47,0,.65,0,.35.29.18.58.16.85-.18,3.16-.37,6.31-.53,9.47a.85.85,0,0,1-.78.91.27.27,0,0,1-.09,0l-16.48,2c-.65.08-.79-.25-1-.77Zm18,8.77c-5.1.6-10.21,1.24-15.31,1.86-.32,0-.66,0-.91,0a1,1,0,0,1-.36-.84c-.28-2.24-.52-4.49-.84-6.72-.1-.72.15-.9.81-1q7.73-.91,15.44-1.9c.77-.09,1.14,0,1.23.9q.33,3.3.81,6.58c.12.78-.15,1-.86,1Z"/><path id="Path_172" data-name="Path 172" class="cls-1" d="M164,87.41c.64-1.27,1.43-2.47,2.14-3.71,2.3-4,4.51-8.07,6.94-12,.87-1.39.5-2.06-.65-2.72a1.19,1.19,0,0,1-.72-1.5,1.07,1.07,0,0,1,.22-.37,4.82,4.82,0,0,0,.23-3.24c-.59-4.41-6.16-6.87-9.73-4.18-.93.7-1.36.56-2-.11-.89-.92-1.58-1.14-2.69,0-2.57,2.68-5.38,5.12-8.06,7.69-1.75,1.68-3.44,3.43-5.15,5.16-.71.7-.52,1.3.15,2A65.29,65.29,0,0,0,153,81.57a63.63,63.63,0,0,0,9,6.32C162.8,88.42,163.46,88.51,164,87.41Zm-.68-26.51a5.1,5.1,0,0,1,5.63.23,5.39,5.39,0,0,1,1.63,5.46c-.24.6-.55.83-1.18.39a18.11,18.11,0,0,1-3.29-2.26,18.3,18.3,0,0,1-3-2.64c-.63-.55-.34-.81.2-1.17ZM161.82,86a54.86,54.86,0,0,1-8-5.64,52.38,52.38,0,0,1-7.41-6.47c-.52-.56-.55-.83,0-1.37,3.86-3.69,7.68-7.42,11.52-11.13a5.08,5.08,0,0,1,.43-.38c.54-.43,1.12-.68,1.58,0s.07,1.2-.62,1.41a1.25,1.25,0,0,0-1,1.49V64a1.29,1.29,0,0,0,1.27,1.17c1,.06,1.36-.52,1.42-1.41,0-.37-.1-.85.39-1s.72.25,1,.52a23.33,23.33,0,0,0,6,4.67c.34.18.85.39.77.93s-.57.45-.91.55c-.89.28-1,1-.87,1.72a1.11,1.11,0,0,0,1.25.94h0a1.21,1.21,0,0,0,1.34-1.06v-.14a1.06,1.06,0,0,1,.72-1.12,1,1,0,0,1,1,.42c.42.47.06,1-.15,1.33-1,1.93-2.18,3.81-3.28,5.71-1.59,2.77-3.21,5.53-4.76,8.32-.46.81-.78.94-1.65.44Z"/><path id="Path_174" data-name="Path 174" class="cls-1" d="M51.22,114.66c2.76-5.67,5.49-11.34,8.3-17,.63-1.27.54-2.12-.73-2.82-.73-.4-1-.81-.53-1.82a4.22,4.22,0,0,0,.18-3.76c-1.57-3.4-5-4.39-8.09-2.19a1.1,1.1,0,0,1-1.56,0l0,0c-1.65-1.26-1.78-1.2-3.4.17-4.74,4-9.48,8-14.28,11.93-.94.77-1,1.2,0,1.94,3.06,2.33,6.07,4.72,9.1,7.09l9,7C50.33,116.12,50.55,116.05,51.22,114.66Zm-2.39-1.52C46.24,111.07,43.62,109,41,107s-5.06-4-7.61-5.94c-.75-.58-1.22-.89-.14-1.76,4.38-3.54,8.65-7.2,13-10.8.44-.36.9-.93,1.62-.35s1.17,1,0,1.49c-.7.29-1.15.75-.9,1.56a1.32,1.32,0,0,0,2.58-.3s0,0,0-.05c.08-1.07.54-1,1.19-.45,1.4,1.1,2.79,2.2,4.2,3.29.67.51.63.93-.14,1.23a1.35,1.35,0,0,0-1,1.66v0a1.14,1.14,0,0,0,1.19.86,1.31,1.31,0,0,0,1.36-1.25.62.62,0,0,0,0-.13c.05-.47.14-1,.76-.63s1.33.76.91,1.68q-1.11,2.4-2.28,4.78c-1.76,3.6-3.58,7.17-5.27,10.8C50,113.76,49.64,113.78,48.83,113.14Z"/><path id="Path_175" data-name="Path 175" class="cls-2" d="M53.58,90.81l-1.69-1.33c-1.1-.87-1.07-1,.2-1.7a3.58,3.58,0,0,1,4,.59,3.91,3.91,0,0,1,.85,4c-.28.71-.64.56-1.09.21C55.09,92,54.34,91.39,53.58,90.81Z"/><path id="Path_177" data-name="Path 177" class="cls-2" d="M19.74,198.89l-7.83-6.13c-.58-.45-1.21-.79-.48-1.69s1.1-.39,1.65,0L29,203.54c.53.42,1.11.74.46,1.6s-1.16.43-1.75,0Z"/><path id="Path_178" data-name="Path 178" class="cls-1" d="M131.56,74.28a7.19,7.19,0,0,0-3.25-.37c-.42,0-.88.22-1.24-.13-1.41-1.36-3.31-1.83-4.94-2.78a2.51,2.51,0,0,0-1.66-.25c-4.48.56-9,1.13-13.46,1.64-1.24.14-1.67.62-1.49,1.87.41,2.86.77,5.72,1,8.6.13,1.33.69,1.7,2,1.52,3.48-.49,7-1,10.46-1.26,2.5-.2,4.68-.82,6.37-2.75.16-.18.35-.33.51-.5a7.49,7.49,0,0,1,4.68-2.75,2.11,2.11,0,0,0,1.55-1C132.72,75.28,132.61,74.68,131.56,74.28Zm-6,3.91a26.1,26.1,0,0,0-2.71,2.32,2.17,2.17,0,0,1-1.4.62c-4.11.5-8.21,1-12.31,1.53-.86.12-1.18,0-1.27-1-.2-2.25-.49-4.49-.81-6.73-.13-.89.14-1.17,1-1.27q6.09-.69,12.17-1.49a3.17,3.17,0,0,1,1.81.34c1,.46,1.93,1,3.28,1.72-1.49.1-2.46.53-3.61.07a2.32,2.32,0,0,0-3,1.33,2.17,2.17,0,0,0-.07.24,2.49,2.49,0,0,0,1.57,3.16l.11,0a2.65,2.65,0,0,0,3-1.82c.18-.48.09-1.08.75-1.28s1.36-.62,1.69,0a1.56,1.56,0,0,1-.24,2.2Zm-3.89-.93a.81.81,0,0,1-1.28.13.94.94,0,0,1-.13-1.31.89.89,0,0,1,1.23-.23l.06,0c.49.36.39.91.12,1.37Z"/><path id="Path_179" data-name="Path 179" class="cls-2" d="M129.84,75.68c-.52.19-1.06.35-1.6.49-.28,0-.75.29-.83-.22s.44-.55.8-.56c.52,0,1,0,1.57.08Z"/><path id="Path_180" data-name="Path 180" class="cls-1" d="M50.43,178a6.54,6.54,0,0,0-3.25-.37c-.51.05-1.07.25-1.55-.61-1.41-.7-3-1.47-4.63-2.31a2.4,2.4,0,0,0-1.51-.26c-4.58.57-9.16,1.15-13.75,1.68a1.3,1.3,0,0,0-1.41,1.17,1.46,1.46,0,0,0,.07.55c.4,3,.76,5.92,1.09,8.88.12,1.21.68,1.53,1.82,1.38,4.44-.59,8.88-1.11,13.33-1.65a2.44,2.44,0,0,0,1.35-.44c1.37-1.18,2.76-2.35,4-3.63a3.73,3.73,0,0,1,2.06-1.19A4.24,4.24,0,0,0,50.91,180C51.69,179,51.57,178.53,50.43,178Zm-6,3.9a25,25,0,0,0-2.71,2.33,2.22,2.22,0,0,1-1.4.62c-4.1.5-8.21,1-12.31,1.53-.85.11-1.18,0-1.27-.95-.2-2.25-.49-4.5-.82-6.74-.12-.88.13-1.18,1-1.27Q33,176.77,39.12,176a3.24,3.24,0,0,1,1.81.33c1,.46,1.93,1,3.29,1.72-1.49.11-2.46.54-3.61.07a2.32,2.32,0,0,0-3,1.33,2,2,0,0,0-.07.23,2.5,2.5,0,0,0,1.57,3.17l.1,0a2.63,2.63,0,0,0,3-1.82c.18-.53.17-1.19.88-1.34s1.32-.65,1.63.17c.24.64.58,1.45-.3,2.08Zm-3.85-1a.76.76,0,0,1-1,.44.51.51,0,0,1-.16-.09,1,1,0,0,1-.4-1.3l.09-.14a.89.89,0,0,1,1.24-.23l0,0a.91.91,0,0,1,.16,1.29Zm6.34-1c-.25.06-.62.17-.66-.29s.28-.49.58-.49c.61,0,1.22,0,1.83,0l0,.26c-.59.16-1.18.35-1.78.48Z"/><path id="Path_182" data-name="Path 182" class="cls-1" d="M149.94,111.12c-.42-2.41-.78-4.82-1.3-7.21-.6-2.8-.73-5.7-1.74-8.56.57.1,1,.19,1.41.25a3.38,3.38,0,0,0,3.35-2A3.56,3.56,0,0,0,146.73,89c-.56.41-1.39,1-1,1.71s1.08.07,1.64-.26a2.14,2.14,0,0,1,2.33,0,2,2,0,0,1,.71,2.19A1.42,1.42,0,0,1,148.9,94a15.78,15.78,0,0,0-3.94.26c-5.13.58-10.3.81-15.46,1.14-.89.06-1.69.3-1.91,1.22s.59,1.23,1.14,1.66l18.64,14.58c.61.48,1.24,1.11,2,.56S150.08,111.93,149.94,111.12Zm-20.24-14c2.56-.61,5-.44,7.4-.76,2.23-.29,4.49-.26,6.72-.47a1.66,1.66,0,0,1,2,1.22.29.29,0,0,0,0,.09,43.12,43.12,0,0,1,.78,4.52c.68,3.21,1.14,6.46,1.74,10Z"/><path id="Path_183" data-name="Path 183" class="cls-1" d="M118,34.35c-1.11-3.36-2.08-6.77-3.2-10.12-.28-.86-.1-1.19.67-1.49a5.79,5.79,0,0,0,3.1-2.47c3.92-4.27,1.21-10.76-3.89-12.22a7.83,7.83,0,0,0-9.54,5.48,7.67,7.67,0,0,0,5.37,9.41c.22.06.43.11.65.15,1.37.2,1.53.85,1.45,2-.23,3.34-.38,6.69-.61,10a3.16,3.16,0,0,0,1.51,3.18,3.27,3.27,0,0,0,3.75-.46A3.33,3.33,0,0,0,118,34.35Zm-.62-14.89a6.27,6.27,0,0,1-8.61,1,6.39,6.39,0,0,1-1-8.87,6.46,6.46,0,0,1,8.78-1C119,12.6,119.9,16.75,117.38,19.46ZM115.29,37c-1.3.16-1.78-.62-1.74-1.71.09-2.42.28-4.84.42-7.26l.42-.06c.73,2.35,1.5,4.7,2.17,7.07a1.38,1.38,0,0,1-.66,1.83,1.42,1.42,0,0,1-.61.13Z"/><path id="Path_184" data-name="Path 184" class="cls-1" d="M36.92,138.19c-1.11-3.41-2.11-6.86-3.24-10.26-.26-.79-.12-1.12.61-1.4a5.82,5.82,0,0,0,3.12-2.44c4.1-4.42,1.09-11.07-4-12.33A7.78,7.78,0,0,0,24,117.52s0,.07,0,.1a7.71,7.71,0,0,0,5.87,9.18l.27,0c1.33.18,1.48.81,1.41,1.88-.22,3.39-.4,6.78-.62,10.17a3.11,3.11,0,0,0,5.19,2.71A3.16,3.16,0,0,0,36.92,138.19Zm-.61-15a6.2,6.2,0,1,1-.82-8.72,6.15,6.15,0,0,1,.88,8.65Zm-2.14,17.62c-1.31.16-1.77-.64-1.73-1.72.09-2.42.28-4.84.43-7.25l.4-.05c.73,2.31,1.5,4.61,2.17,6.94.29,1.05,0,1.93-1.27,2.09Z"/><path id="Path_185" data-name="Path 185" class="cls-1" d="M184.82,56.22a3.53,3.53,0,0,0,0-1.71c-.43-2.51-.8-5-1.34-7.5s-.65-5.13-1.57-7.74a16.69,16.69,0,0,0,1.73.08,3.52,3.52,0,1,0-2.08-6.5c-.59.39-1.38.92-.88,1.71s1,0,1.52-.29a2.9,2.9,0,0,1,.93-.38,1.75,1.75,0,0,1,2.15,1.22,1.36,1.36,0,0,1,.06.29c.13,1,0,2-1.25,2.24a23,23,0,0,1-3.79.38c-5.27.19-10.5.89-15.76,1a1.87,1.87,0,0,0-1.92,1c-.34.93.41,1.37,1,1.85L182.26,56.5A4.3,4.3,0,0,0,183,57C183.88,57.49,184.52,57.25,184.82,56.22ZM183,55.15,164.53,40.71c2.09-.19,4-.38,5.83-.53,2.49-.19,5-.3,7.45-.53s2.85.09,3.23,2.45c.58,3.64,1.27,7.26,1.93,10.89.12.7.31,1.38.47,2.06Z"/><path id="Path_186" data-name="Path 186" class="cls-1" d="M103.76,159c-.17-1.23-.42-2.45-.64-3.68L100.94,143a6.58,6.58,0,0,0,2,.07,3.75,3.75,0,0,0,2.8-2.95,3.37,3.37,0,0,0-1.55-3.46,3.57,3.57,0,0,0-4.06.12c-.44.39-1.1.89-.61,1.57s1,.09,1.43-.26a2.52,2.52,0,0,1,.91-.42,1.76,1.76,0,0,1,2.23,1.12,1.1,1.1,0,0,1,.06.26c.2,1,0,2-1.11,2.33s-2.75-.62-3.93.54c-5.28-.13-10.5.74-15.77.88a1.85,1.85,0,0,0-1.9,1.06c-.31.92.45,1.36,1.06,1.84l18.65,14.58c.58.45,1.13,1,1.93.58A1.66,1.66,0,0,0,103.76,159Zm-1.89-.07L83.4,144.45c2.11-.19,3.95-.41,5.79-.5,2.63-.13,5.26-.26,7.88-.57,2-.23,2.49.22,2.81,2.13.63,3.78,1.31,7.55,2,11.32.12.66.34,1.3.52,1.94Z"/><path id="Path_187" data-name="Path 187" class="cls-1" d="M62.85,143.42a12.1,12.1,0,0,0-17.09,1c-.17.19-.33.38-.49.58-4.2,5.34-3.15,13.3,2.16,16.93,4.81,4.34,12.87,3.35,16.87-1.82A12.07,12.07,0,0,0,62.85,143.42Zm-14.6,17.27a10.56,10.56,0,0,1-1.85-14.76A10.67,10.67,0,0,1,63.25,159c-3.47,4.37-10.36,5.64-15,1.65Z"/><path id="Path_188" data-name="Path 188" class="cls-1" d="M144,39.68a12.1,12.1,0,0,0-17.09.92l-.48.57c-4.24,5.36-3.16,13.32,2.12,16.94,4.82,4.37,12.88,3.36,16.87-1.79A12.06,12.06,0,0,0,144,39.68Zm-14.6,17.26c-4.74-3.48-5.29-10.4-1.78-14.87a10.68,10.68,0,0,1,16.78,13.2c-3.48,4.38-10.37,5.63-15,1.67Z"/><path id="Path_191" data-name="Path 191" class="cls-1" d="M72.54,215.62a2.29,2.29,0,0,0-3,3.45l.14.11a2.66,2.66,0,0,0,3-.31A2.54,2.54,0,0,0,72.54,215.62Zm-1.77,2.24c-.41-.31-.41-.6-.15-.9a.62.62,0,0,1,.88-.12h0a.57.57,0,0,1,.15.79l-.07.09A.59.59,0,0,1,70.77,217.86Z"/><path id="Path_194" data-name="Path 194" class="cls-1" d="M56.62,217.45a2,2,0,0,0-2.75.24l-.15.2a1.91,1.91,0,0,0-.11,2.7,2,2,0,0,0,.48.38,1.87,1.87,0,0,0,3-.33,2.25,2.25,0,0,0-.39-3.15Zm-1.68,2.3a.63.63,0,0,1-.09-.89h0c.22-.29.56-.43.85-.14a1,1,0,0,1,.17,1,.63.63,0,0,1-.94,0Z"/><path id="Path_195" data-name="Path 195" class="cls-2" d="M54.68,70.06a.6.6,0,0,1-.79.22l-.1-.07a.67.67,0,0,1-.17-.9c.18-.36.55-.33.85-.11A.66.66,0,0,1,54.68,70.06Z"/><path id="Path_196" data-name="Path 196" class="cls-2" d="M66.16,80a.61.61,0,0,1-.1-.93.64.64,0,0,1,.88-.14h0a.55.55,0,0,1,.22.84C66.89,80.13,66.48,80,66.16,80Z"/><path id="Path_199" data-name="Path 199" class="cls-1" d="M161.58,23.89c-.18.29-.61.35-1,.4l-9.13,1.12c-.58.07-1.3.16-1.34-.62,0-.62.54-.93,1.18-1,3.14-.37,6.28-.76,9.41-1.15a1.08,1.08,0,0,1,1.16.37C162,23.31,161.82,23.53,161.58,23.89Z"/><path id="Path_200" data-name="Path 200" class="cls-1" d="M157.75,20.79c-.42.49-3.72,1-4.27.6a.68.68,0,0,1-.3-.9.7.7,0,0,1,.44-.35,9.47,9.47,0,0,1,3.81-.49C158.1,19.69,158.25,20.23,157.75,20.79Z"/><path id="Path_201" data-name="Path 201" class="cls-1" d="M158.73,27.46a1.16,1.16,0,0,1-.89.65l-2.83.35c-.33,0-.72.08-.85-.31a.77.77,0,0,1,.49-.93,8.13,8.13,0,0,1,3.49-.45C158.57,26.79,158.9,27.17,158.73,27.46Z"/><path id="Path_202" data-name="Path 202" class="cls-1" d="M146.85,19.25a1,1,0,0,1-1.32.24l-.09-.07a.89.89,0,0,1-.16-1.25l0,0a.92.92,0,0,1,1.3-.1.76.76,0,0,1,.35,1A.57.57,0,0,1,146.85,19.25Z"/><path id="Path_203" data-name="Path 203" class="cls-1" d="M80.5,127.61c-.2.32-.62.38-1.06.44l-9.13,1.11c-.58.08-1.3.17-1.35-.6,0-.62.53-.94,1.18-1l9.55-1.16a1,1,0,0,1,1,.37C80.93,127.05,80.72,127.28,80.5,127.61Z"/><path id="Path_204" data-name="Path 204" class="cls-1" d="M72.23,125.07a.71.71,0,0,1,0-1,.76.76,0,0,1,.36-.2,18.37,18.37,0,0,1,3.69-.47c.61,0,.9.5.41,1.12S72.82,125.54,72.23,125.07Z"/><path id="Path_205" data-name="Path 205" class="cls-1" d="M77.49,131.41a1.21,1.21,0,0,1-.95.49l-2.4.29c-.42,0-1,.21-1.1-.33a.9.9,0,0,1,.78-1h0a19.75,19.75,0,0,1,3-.35C77.37,130.47,77.82,130.8,77.49,131.41Z"/><path id="Path_206" data-name="Path 206" class="cls-1" d="M64.37,123.24a1,1,0,0,1-.19-1.31.94.94,0,0,1,1.4-.09.75.75,0,0,1,.26,1,.41.41,0,0,1-.07.11C65.39,123.54,64.89,123.43,64.37,123.24Z"/><path id="Path_212" data-name="Path 212" class="cls-1" d="M92.27,96.48l-3-2.3c-.41-.32-.76-.71-.37-1.21s.85-.24,1.26.08L96,97.57c.41.31.76.71.37,1.2s-.85.25-1.26-.07Z"/><path id="Path_213" data-name="Path 213" class="cls-1" d="M88.42,100.08l-2.37-1.86c-.37-.29-.65-.65-.34-1.1s.83-.33,1.24,0q2.39,1.85,4.75,3.71c.43.33.66.74.3,1.23s-.83.17-1.21-.12Z"/><path id="Path_214" data-name="Path 214" class="cls-1" d="M95,105.19c-.79-.62-1.59-1.23-2.38-1.86-.37-.29-.58-.69-.24-1.11s.77-.29,1.14,0c1.56,1.2,3.1,2.42,4.65,3.63.38.3.59.7.25,1.12s-.77.28-1.15,0Z"/><path id="Path_215" data-name="Path 215" class="cls-1" d="M89.17,97.36c-.53-.41-1.06-.82-1.58-1.24S87,95.43,87.36,95a.7.7,0,0,1,1-.12l.06.06c1.1.84,2.2,1.7,3.28,2.57a.66.66,0,0,1,.2.92.36.36,0,0,1-.08.09.69.69,0,0,1-1,.1l0,0c-.54-.4-1.05-.82-1.58-1.24Z"/><path id="Path_216" data-name="Path 216" class="cls-1" d="M100.28,109.32c-.49-.39-1-.75-1.47-1.16a.69.69,0,0,1-.1-1,.69.69,0,0,1,1-.1h0c1,.74,2,1.51,2.94,2.3a.63.63,0,0,1,.14.89h0a.67.67,0,0,1-.91.24l-.1-.07C101.24,110.11,100.77,109.7,100.28,109.32Z"/><path id="Path_217" data-name="Path 217" class="cls-1" d="M13,148.73l3-3.85c.24-.31.56-.65.95-.39s.21.76-.06,1.1c-1.94,2.5-3.88,5-5.83,7.47-.28.36-.65.68-1.09.35s0-.76.2-1.06C11.14,151.13,12.09,149.93,13,148.73Z"/><path id="Path_218" data-name="Path 218" class="cls-1" d="M17.71,151.64l-1.23,1.58c-.21.27-.45.54-.82.23a.57.57,0,0,1-.13-.77q1.37-1.83,2.8-3.6A.49.49,0,0,1,19,149l.06.05a.57.57,0,0,1,0,.78c-.45.62-.93,1.21-1.4,1.81Z"/><path id="Path_219" data-name="Path 219" class="cls-1" d="M9.16,148.05c-.39.49-.76,1-1.15,1.46-.21.26-.44.56-.81.25a.61.61,0,0,1-.12-.86l0,0c.85-1.14,1.73-2.26,2.62-3.37.22-.28.56-.44.87-.15s.17.62,0,.9c-.46.61-.94,1.2-1.4,1.8Z"/><path id="Path_220" data-name="Path 220" class="cls-3" d="M15.49,162.17c-.23-1.3-.45-2.6-.68-3.91-.09-.51-.14-.92.61-1s1,.12,1,.82c.15,1.51.34,3,.56,4.53a.71.71,0,0,1-.4.91.78.78,0,0,1-.34,0q-3.28.38-6.59.81c-.47.06-.74,0-.75-.57a21.91,21.91,0,0,0-.61-5c-.13-.54.18-.65.62-.7s.94,0,1,.66c.11,1.18.29,2.36.39,3.55,0,.33,0,.57.44.5s.28-.36.24-.63c-.16-1.13-.27-2.27-.45-3.4-.09-.6.08-.93.72-.95s.91.21.84.74c-.17,1.24.49,2.41.29,3.64-.07.39.14.38.39.35s.33-.18.28-.49c-.18-1.13-.31-2.26-.45-3.4,0-.37-.24-.81.26-1a1.65,1.65,0,0,1,1-.1c.47.16.18.65.27,1,.33,1.22,0,2.57.71,3.72Z"/><path id="Path_221" data-name="Path 221" class="cls-1" d="M20.8,159.88c.82-.63.45-1.42.35-2.15s-.23-1.09.65-1.24.87.45.94,1c.17,1.43.35,2.86.52,4.29.06.48.21.94-.56,1s-1,0-1.05-.77c0-.33.18-.9-.49-.67s0,.49.07.74c.05.45.19.86-.49.93s-1,.12-1.12-.68c-.15-1.55-.36-3.11-.56-4.66-.06-.49,0-.85.59-.91s1.13.16.94.73C20.31,158.37,21.2,159,20.8,159.88Z"/><path id="Path_222" data-name="Path 222" class="cls-3" d="M7.57,158.42a2.6,2.6,0,0,1,.1.4c.22,1.76.44,3.53.64,5.29.06.53-.39.45-.7.5-.47.09-.86.06-.93-.56-.19-1.66-.4-3.31-.61-5a.54.54,0,0,1,.35-.68.45.45,0,0,1,.16,0C6.9,158.35,7.23,158.18,7.57,158.42Z"/><path id="Path_223" data-name="Path 223" class="cls-3" d="M19,163a1,1,0,0,1-1,.27.57.57,0,0,1-.55-.57,21.21,21.21,0,0,0-.59-4.83c-.13-.54.24-.77.73-.85s.76,0,.82.54c.2,1.64.41,3.29.6,4.94A2.83,2.83,0,0,1,19,163Z"/><path id="Path_231" data-name="Path 231" class="cls-1" d="M95.09,45.63l-2.83,3.62c-.31.39-.7.8-1.18.38s0-.78.28-1.08q2.81-3.64,5.66-7.24c.28-.36.61-.93,1.13-.52s0,.86-.23,1.22Z"/><path id="Path_232" data-name="Path 232" class="cls-1" d="M98.81,47.9l-1.23,1.57c-.18.23-.39.47-.71.3a.58.58,0,0,1-.29-.76l.06-.1c.9-1.22,1.85-2.42,2.81-3.6a.49.49,0,0,1,.69-.08l.07.07a.61.61,0,0,1,0,.79c-.45.61-.93,1.2-1.4,1.8Z"/><path id="Path_233" data-name="Path 233" class="cls-1" d="M90.31,44.24,89.17,45.7c-.21.25-.43.6-.81.35a.65.65,0,0,1-.11-1c.83-1.1,1.69-2.18,2.54-3.27.22-.27.55-.47.87-.23s.2.69,0,1C91.2,43.12,90.75,43.68,90.31,44.24Z"/><path id="Path_234" data-name="Path 234" class="cls-3" d="M96.12,58.47a13.16,13.16,0,0,0-.2-3.91c-.07-.59-.11-1,.7-1.06s.87.31.93.92c.14,1.42.29,2.84.52,4.24.11.71,0,1.09-.79,1.17q-3.23.35-6.44.79c-.7.09-.8-.21-.83-.79a20.47,20.47,0,0,0-.56-4.61c-.13-.47-.13-.85.53-.89.5,0,1-.14,1.06.59.11,1.14.25,2.27.41,3.41,0,.26-.27.74.37.71s.3-.43.27-.72c-.14-1.09-.25-2.18-.41-3.26-.08-.56,0-1,.65-1s1,.26.88.95c-.12,1.18.48,2.31.28,3.5,0,.32.18.28.36.28.43,0,.36-.25.31-.58-.18-1.13-.25-2.28-.46-3.4-.16-.84.27-1,.94-1,.83-.06.55.52.62,1C95.47,56,95.31,57.31,96.12,58.47Z"/><path id="Path_235" data-name="Path 235" class="cls-1" d="M101.92,56.09c.76-.64.47-1.42.34-2.16s-.15-1.09.7-1.21.82.37.88.91c.18,1.47.35,2.95.55,4.42.07.53.11.92-.62,1s-1-.13-1-.82c0-.28.23-.8-.39-.65-.9.2,0,.54,0,.8,0,.48.11.85-.54.89-.5,0-1,.15-1.06-.58-.19-1.65-.4-3.29-.6-4.94-.06-.5.2-.69.65-.73s1,.13.87.48C101.36,54.41,102.31,55.18,101.92,56.09Z"/><path id="Path_236" data-name="Path 236" class="cls-3" d="M88.67,54.54c.06.33.13.61.16.89.2,1.57.37,3.15.58,4.72.08.54-.17.67-.62.71s-.91.14-1-.51c-.21-1.7-.41-3.4-.62-5.1a.49.49,0,0,1,.36-.6h.09C88,54.59,88.29,54.58,88.67,54.54Z"/><path id="Path_237" data-name="Path 237" class="cls-3" d="M99.25,53.28c.11.12.16.15.17.19.24,1.88.51,3.76.69,5.64,0,.42-.46.41-.78.43a.64.64,0,0,1-.76-.5.86.86,0,0,1,0-.16A19.06,19.06,0,0,0,98,54.19a.61.61,0,0,1,.33-.8l.05,0A4.31,4.31,0,0,1,99.25,53.28Z"/><path id="Path_238" data-name="Path 238" class="cls-1" d="M117,19A7.45,7.45,0,0,1,113.68,21c-.44.09-.91.13-1.08-.42a.82.82,0,0,1,.46-1.06l.18-.05c2.39-.48,3.27-2.09,3.39-4.33,0-.41.21-.8.67-.79a.82.82,0,0,1,.73.77C118.37,16.58,117.58,17.77,117,19Z"/><path id="Path_239" data-name="Path 239" class="cls-1" d="M35.86,122.79a7.8,7.8,0,0,1-3.21,1.91c-.49.11-1,.17-1.17-.47a.84.84,0,0,1,.58-1l.14,0c2.27-.44,3.12-2,3.31-4.09,0-.46.1-1,.61-1s.76.46.84,1C37.21,120.5,36.39,121.62,35.86,122.79Z"/><path id="Path_240" data-name="Path 240" class="cls-1" d="M45.82,154.27c-.38-.24-.27-.59-.08-1,.35-.65,1-.69,1.61-.77l15-1.83a3.35,3.35,0,0,1,1-.06.93.93,0,0,1,.88.81,1,1,0,0,1-.66.87,4.26,4.26,0,0,1-1.12.21l-14.86,1.83A3.23,3.23,0,0,1,45.82,154.27Z"/><path id="Path_241" data-name="Path 241" class="cls-1" d="M58.61,149.5a2.3,2.3,0,0,1-3.21.58l-.08-.06a2.59,2.59,0,0,1-.58-3.48,2.36,2.36,0,0,1,3.29-.6,2.67,2.67,0,0,1,.36.31,2.13,2.13,0,0,1,.47,3A2.26,2.26,0,0,1,58.61,149.5Z"/><path id="Path_242" data-name="Path 242" class="cls-1" d="M51.64,158.94a2.23,2.23,0,0,1-.57-3.09,3.11,3.11,0,0,1,.23-.28,2.45,2.45,0,0,1,3.85,3,2.27,2.27,0,0,1-3.16.63A2.45,2.45,0,0,1,51.64,158.94Z"/><path id="Path_243" data-name="Path 243" class="cls-1" d="M145,47.18a.6.6,0,0,1,.15,1,1.32,1.32,0,0,1-1,.56c-5.38.65-10.76,1.32-16.14,2-.51.06-1.31.21-1.33-.64A1.19,1.19,0,0,1,128,48.86l16-2A1.2,1.2,0,0,1,145,47.18Z"/><path id="Path_245" data-name="Path 245" class="cls-2" d="M56.52,148.38a.43.43,0,0,1-.11-.71c.18-.24.41-.39.7-.16a.54.54,0,0,1,.15.74C57.07,148.54,56.79,148.5,56.52,148.38Z"/><path id="Path_246" data-name="Path 246" class="cls-2" d="M53.49,156.74c.24.29.38.55.07.78s-.51.3-.77.06a.53.53,0,0,1-.13-.76C52.91,156.48,53.23,156.62,53.49,156.74Z"/><path id="Path_247" data-name="Path 247" class="cls-1" d="M139.4,42.42a2.34,2.34,0,0,0-3.32.07,2.88,2.88,0,0,0-.22.27,2.64,2.64,0,0,0,.65,3.58,2.33,2.33,0,0,0,3.24-.63l0-.06a2.11,2.11,0,0,0-.07-3A1.54,1.54,0,0,0,139.4,42.42Zm-1.78,2.2c-.3-.18-.31-.43-.11-.7s.41-.4.7-.17a.58.58,0,0,1,.16.76.54.54,0,0,1-.74.11Z"/><path id="Path_248" data-name="Path 248" class="cls-1" d="M135.89,51.45a2.65,2.65,0,0,0-3.48.36,2.23,2.23,0,0,0,.07,3.15,2,2,0,0,0,.27.22,2.27,2.27,0,0,0,3.22,0,1.93,1.93,0,0,0,.29-.35A2.66,2.66,0,0,0,135.89,51.45Zm-2.07,2.29a.51.51,0,0,1,0-.76.58.58,0,0,1,.78,0c.23.22.34.46.1.72s-.63.35-.9,0Z"/><path id="Path_252" data-name="Path 252" class="cls-1" d="M236.92,41.66c-2.58-2-5.15-4-7.74-6-.86-.67-1.21-1.2-.6-2.38,2.78-5.39,5.42-10.85,8.09-16.3.2-.42.27-.92.46-1.35s.36-1,1-.77a.93.93,0,0,1,.55,1.18v0a19.78,19.78,0,0,1-1.07,2.5c-1.09,2.23-2.17,4.47-3.35,6.65-.52,1,.13,1.3.69,1.74l11.26,8.8.79.63c.29.23.46.5.21.86a.74.74,0,0,1-1,.29h0a6.93,6.93,0,0,1-.93-.68c-3.64-2.84-7.3-5.67-10.91-8.54-.92-.73-1.36-.78-1.84.45a46.39,46.39,0,0,1-2.17,4.35,1.33,1.33,0,0,0,.39,2c4.77,3.66,9.49,7.39,14.24,11.09.34.26.73.84,1.22.33s1.52-.92,1.86-1.73c.12-.3-.45-.56-.75-.8l-10.58-8.27a9.36,9.36,0,0,1-.79-.62c-.39-.37-1.25-.66-.8-1.3s1.19-.22,1.74.21c3.83,3,7.68,6,11.47,9a1.39,1.39,0,0,0,2,.13l.14-.15c1.25-1.1,2.47-2.26,3.81-3.25,1-.71.76-1.1,0-1.71-3.73-2.88-7.44-5.8-11.15-8.7-.31-.24-.61-.48-.9-.73a.7.7,0,0,1,.85-1.11c.28.18.54.39.81.6L256,37.54c1.5,1.17,1.49,1.31.06,2.54q-4.54,3.84-9,7.72a1.53,1.53,0,0,1-2.16.13l-.12-.11C242.17,45.73,239.53,43.71,236.92,41.66Z"/><path id="Path_253" data-name="Path 253" class="cls-1" d="M155.83,145.44c-2.62-2-5.22-4.1-7.85-6.13a1.51,1.51,0,0,1-.52-2.27c2.77-5.4,5.41-10.86,8.08-16.3.19-.39.27-.82.43-1.22s.35-1.13,1-.93.74.88.52,1.45c-.33.85-.75,1.66-1.15,2.47-1.08,2.18-2.15,4.37-3.27,6.54-.46.89.21,1.21.72,1.61q5.63,4.41,11.26,8.81l.8.62c.28.23.48.48.24.86a.74.74,0,0,1-1,.32h0a5.66,5.66,0,0,1-.94-.66c-3.68-2.88-7.37-5.74-11-8.63-.76-.61-1.2-.78-1.67.35-.66,1.58-1.53,3.08-2.29,4.62a1.27,1.27,0,0,0,.31,1.76l.1.07c4.77,3.66,9.5,7.39,14.24,11.09.35.27.69.81,1.23.37a9.65,9.65,0,0,0,1.86-1.75c.19-.26-.49-.61-.82-.87-3.71-2.91-7.44-5.8-11.14-8.73-.46-.36-1.49-.7-.87-1.48.49-.62,1.22-.07,1.77.36,3.75,2.94,7.52,5.84,11.24,8.83.87.7,1.5.8,2.33,0a29,29,0,0,1,3.48-3c1.35-.91.9-1.4-.1-2.17-3.63-2.77-7.22-5.61-10.82-8.43-.22-.18-.44-.37-.68-.53-.42-.29-.6-.7-.3-1.11s.83-.37,1.24,0l.34.27,12.52,9.78c1.23,1,1.2,1.27,0,2.29q-4.6,3.87-9.17,7.78a1.53,1.53,0,0,1-2.16.18l-.12-.12C161.08,149.51,158.45,147.49,155.83,145.44Z"/><path id="Path_255" data-name="Path 255" class="cls-1" d="M202.1,166.21c2.5,2,5,3.94,7.51,5.85.86.65,1.07,1.1.31,2-3.1,3.86-6.11,7.79-9.18,11.68-.31.4-.56,1.24-1.3.65s-.15-1.12.23-1.6c2.72-3.49,5.42-7,8.19-10.44.7-.87.69-1.35-.23-2-4.55-3.48-9-7-13.54-10.56l-.8-.62c-.43-.34-.9-.73-.42-1.3s.87-.17,1.27.14l1.82,1.42Z"/><path id="Path_256" data-name="Path 256" class="cls-1" d="M283.23,62.48c2.54,2,5.06,4,7.63,5.93.8.61.86,1.06.23,1.84-3.14,4-6.23,8-9.35,11.92-.3.39-.58,1-1.23.49s-.24-.94.11-1.39c2.75-3.52,5.47-7.08,8.29-10.55.82-1,.67-1.5-.31-2.25-4.55-3.48-9-7-13.55-10.56-.3-.23-.61-.46-.9-.71s-.5-.63-.24-1,.75-.38,1.13-.09c1,.78,2.06,1.59,3.08,2.39Z"/><path id="Path_259" data-name="Path 259" class="cls-1" d="M230,37.36a1.91,1.91,0,0,1,.81,2.58,2.2,2.2,0,1,1-3.86-2.07A1.91,1.91,0,0,1,229.5,37,1.69,1.69,0,0,1,230,37.36Z"/><path id="Path_260" data-name="Path 260" class="cls-1" d="M242.49,47.12a2,2,0,0,1,.53,3,2.25,2.25,0,0,1-3.08.52,2.1,2.1,0,0,1-.56-2.92,3,3,0,0,1,.28-.33C240.54,46.3,241.36,46.22,242.49,47.12Z"/><path id="Path_261" data-name="Path 261" class="cls-1" d="M149,141.2a1.91,1.91,0,0,1,.65,2.63,2,2,0,0,1-.4.46,2.17,2.17,0,0,1-3.33-2.77,1.91,1.91,0,0,1,2.62-.7A1.87,1.87,0,0,1,149,141.2Z"/><path id="Path_262" data-name="Path 262" class="cls-1" d="M158.46,151.26c.87-1.16,1.7-1.3,2.8-.48s1.47,2,.66,3.08a2.25,2.25,0,0,1-3.07.53,2.08,2.08,0,0,1-.59-2.88A2.43,2.43,0,0,1,158.46,151.26Z"/><path id="Path_268" data-name="Path 268" class="cls-1" d="M309.55,117c-.28-2.28-.58-4.54-.87-6.82,1.08.76,1.94,1.64,3.17,1.69a2.58,2.58,0,0,0,2.83-1.75,3.29,3.29,0,0,0-.92-3.65,14.81,14.81,0,0,0-4.21-2.41c2-1.93,2.73-3.81,1.94-4.84-1-1.29-1.74-1.31-4.15-.06-.21-1.86-.43-3.66-.64-5.47A1.7,1.7,0,0,0,305.05,92a1.86,1.86,0,0,0-.52.07c-1.09.14-2.19.28-3.29.4s-1.66.6-1.46,1.68c.16.91-.27,1-1,1.1-3.44.39-6.87.83-10.31,1.26-1.71.21-2.13.75-1.92,2.49q1.11,9,2.21,18c.22,1.77.52,2,2.37,1.77,3.44-.42,6.87-.82,10.31-1.28.83-.11,1.27,0,1.3,1s.61,1.31,1.55,1.17c1.19-.17,2.39-.29,3.58-.44C309.47,119,309.75,118.65,309.55,117Zm2.59-10a2.66,2.66,0,0,1,1.18,2.49c0,.6-.57.79-1,.86a2.26,2.26,0,0,1-2.1-1.26,5.55,5.55,0,0,1-1.27-3.39,9,9,0,0,1,3.21,1.3Zm-2.43-7.22c.63.17.48.74.35,1.2a2.09,2.09,0,0,1-1.62,1.59,5.11,5.11,0,0,1,.37-2.08c.16-.44.41-.84.9-.71Zm-14.12-2.53.14,0c1.37-.14,3.09-.82,4-.25s.56,2.55.79,3.9c.2,1.18.3,2.38.45,3.57.07.5.13,1-.59,1-1.34.15-2.67.33-4,.48a2.66,2.66,0,0,1-.49,0,5,5,0,0,1-.16-.67c-.3-2.38-.57-4.76-.89-7.14-.08-.6,0-.93.7-.91Zm-6.54,8.63c-.25-2.25-.52-4.49-.83-6.73-.1-.73.09-1.06.86-1.12,1.05-.08,2.1-.25,3.15-.37a8.4,8.4,0,0,1,.88,0c.07.35.15.62.19.89.28,2.24.53,4.49.84,6.72.1.74-.09,1.07-.86,1.13-1,.08-2.1.2-3.14.38-.78.14-1-.17-1.09-.89Zm5.17,10.88c-1.23.06-2.79.87-3.59.19s-.47-2.24-.63-3.42c-.19-1.38-.31-2.77-.52-4.14-.11-.68,0-1,.76-1,1.15-.09,2.29-.27,3.44-.4.38,0,.77-.16.84.44.3,2.53.62,5.06.92,7.58a5.69,5.69,0,0,1-.05.83,11.31,11.31,0,0,0-1.17-.07Zm7.43-.92c-1.19.15-2.39.25-3.57.45-.79.13-1-.21-1.07-.91q-.37-3.36-.83-6.72c-.1-.74.11-1.06.86-1.11,1.39-.11,3.07-.82,4-.26s.52,2.46.73,3.76.32,2.48.47,3.72c0,.28,0,.56.08.91-.28.06-.5.13-.72.16Zm3.07,2.24c-.77-.07-.47-.93-.53-1.43-.9-7.06-1.73-14.13-2.65-21.19-.14-1.09,0-1.64,1.22-1.57a1.6,1.6,0,0,0,.57-.07c1.32-.4,1.8,0,2,1.46.78,7,1.68,14,2.54,21.06a2.15,2.15,0,0,1-.19,1.61,19.11,19.11,0,0,1-2.93.14Z"/><path id="Path_269" data-name="Path 269" class="cls-1" d="M228.42,220.62c-.27-2.22-.56-4.44-.87-6.89,2.1,1.69,2.53,2,3.21,2a2.69,2.69,0,0,0,2.82-1.79,3.32,3.32,0,0,0-1-3.65,14.78,14.78,0,0,0-4.21-2.4c2-1.88,2.76-3.82,1.94-4.84-1-1.32-1.89-1.34-4.1.05-.24-2-.45-3.78-.66-5.58a1.65,1.65,0,0,0-1.6-1.71,1.71,1.71,0,0,0-.45,0c-1.19.13-2.38.29-3.58.44-.9.11-1.49.63-1.3,1.53.23,1.1-.36,1.15-1.15,1.25-3.39.39-6.78.81-10.16,1.23-1.65.21-2.11.77-1.91,2.37.74,6.11,1.51,12.22,2.23,18.33.15,1.34.75,1.83,2.1,1.65,3.47-.47,7-.85,10.44-1.31.82-.1,1.42-.11,1.43,1s.64,1.29,1.58,1.15c1.09-.16,2.19-.27,3.29-.41C228.44,222.76,228.65,222.5,228.42,220.62Zm-.14-11.17a10.18,10.18,0,0,1,3.23,1.77,2.5,2.5,0,0,1,.68,1.54,1,1,0,0,1-.51,1.21,1.33,1.33,0,0,1-1.74-.32c-1.39-1-1.68-2.4-2.15-3.68C227.67,209.6,227.76,209.21,228.28,209.45Zm.35-5.89c.38.09.46.44.41.81a2.35,2.35,0,0,1-1.73,2,5.58,5.58,0,0,1,.51-2.41A.67.67,0,0,1,228.63,203.56Zm-14-2.57c1.14-.07,2.28-.27,3.43-.4a8.23,8.23,0,0,1,.86,0c.07.35.15.62.18.9.28,2.19.51,4.39.83,6.57.13.89-.13,1.22-1,1.27-1.33.09-3,.81-3.9.24s-.52-2.47-.72-3.78-.28-2.48-.48-3.71c-.12-.7,0-1.05.81-1.1Zm-6.5,9.41c-.06-.24-.12-.49-.16-.74-.28-2.24-.53-4.49-.84-6.73-.1-.72.09-1.06.86-1.12,1.05-.08,2.1-.21,3.14-.38.77-.14,1,.16,1.1.89.24,2.24.51,4.49.82,6.72.1.73-.08,1.07-.85,1.13-1.06.08-2.1.25-3.15.37a1,1,0,0,1-.92-.14Zm5.64,10.06c-1.24.12-2.48.3-3.72.45-.18,0-.37,0-.63,0-.06-.23-.11-.47-.16-.7-.29-2.38-.57-4.77-.89-7.15-.08-.61.06-.92.71-.91a1.33,1.33,0,0,0,.28,0c1.28-.13,2.91-.79,3.76-.24s.5,2.39.7,3.65.33,2.67.5,4C214.37,220,214.41,220.4,213.75,220.46Zm5.53-.67c-3.26.38-3.26.39-3.66-2.88-.16-1.34-.24-2.69-.51-4s.18-1.63,1.35-1.65A14.67,14.67,0,0,0,219,211c.88-.18,1.27,0,1.36,1,.18,2.2.51,4.38.77,6.57a1.28,1.28,0,0,1-.23,1.22c-.55,0-1.1,0-1.65.05Zm4.33,2.08c-.78-.07-.48-.93-.54-1.42-.89-7.07-1.73-14.14-2.64-21.2-.14-1.06,0-1.51,1.2-1.6,2.31-.18,2.3-.26,2.58,2q1.24,10.25,2.5,20.49c0,.42.06.84.11,1.6a21.57,21.57,0,0,1-3.21.15Z"/><path id="Path_271" data-name="Path 271" class="cls-1" d="M328.74,76.87c.26-3.87.6-7.73,1-11.59.19-1.93,0-2.23-2-2L305.56,66c-3.05.37-3,.36-4.05-2.62a8.08,8.08,0,0,0-1.26-3,1.24,1.24,0,0,0-1.06-.38l-2.86.36c-.47.06-.91.28-.86.78s.6.67,1.11.62a9.47,9.47,0,0,0,1.29-.16c1-.27,1.47,0,1.82,1.11,1.84,5.7,3.82,11.35,5.68,17a1.8,1.8,0,0,0,2,1.52,1.31,1.31,0,0,0,.27-.06q9.58-1.27,19.18-2.35a1.8,1.8,0,0,0,1.89-1.7A2.81,2.81,0,0,0,328.74,76.87ZM304.32,71c-.69-.73-.7-1.7-1.05-2.51-.27-.61.26-.58.63-.64l2.82-.52.16.4Zm1.16,3.73A1.64,1.64,0,0,1,305,72.8a53.27,53.27,0,0,1,4.27-5.42c.53-.59,1.61-.37,2.77-.44-2,2.51-3.69,4.75-5.46,7C306.24,74.25,306,75.1,305.48,74.74ZM307,79.3a3,3,0,0,1,.29-4.06,71,71,0,0,0,5.51-7c1.09-1.58,2.45-1.94,4.3-1.81Zm2-.09,9.91-12.68c.79-1,1.9-.63,3.25-.87L319.7,68.8c-2.32,3-4.7,5.87-6.91,8.9a3.69,3.69,0,0,1-3.8,1.51Zm15.57-11-6.94,8.87c-1.25,1.6-1.25,1.6-3.74,1.51l9.89-12.65c.78-1,1.89-.64,3.25-.88Zm-5.79,9.86,9-11.56c0,1.78.27,3.55-1.09,5.07A38.26,38.26,0,0,0,323,76.36c-1,1.62-2.47,1.69-4.24,1.72Zm5.25-.65,3.2-4.09c.63,3.25.08,4-3.2,4.09Z"/><path id="Path_273" data-name="Path 273" class="cls-1" d="M266.46,93.31c.91-1.35.87-2.9,1.19-4.39a2.2,2.2,0,0,0-1-2.44c-2.77-2.08-5.47-4.25-8.2-6.38l-6.26-4.89c-3.44-2.69-3.44-2.69-7.26-.53-.16.09-.32.21-.48.32a3.16,3.16,0,0,0-1.22,4.24c.49.9.19,1.37-.31,2-3,3.81-6,7.67-9,11.46-.73.91-.76,1.4.22,2.16q8.13,6.24,16.14,12.61c.91.73,1.37.63,2.05-.27,3-3.89,6-7.73,9-11.61a1.75,1.75,0,0,1,1.91-.85A3,3,0,0,0,266.46,93.31Zm-28.28,2.86-.11-.09c-3.24-2.19-3.24-2.19-.35-5.89l.45-.57c2.36-3,2.65-3,5.4-.25a.78.78,0,0,1,.07,1.22q-2.14,2.72-4.26,5.45a.72.72,0,0,1-1.2.13Zm12.1,9.48c-1.57-1.27-3.17-2.5-4.76-3.74s-3.09-2.45-4.67-3.63c-.63-.48-.72-.88-.21-1.52q3.33-4.19,6.57-8.41c.47-.6.86-.59,1.43-.14q4.74,3.75,9.54,7.46c.57.44.67.82.19,1.41q-3.3,4.19-6.57,8.41c-.5.66-.91.65-1.52.16ZM259,94.5c-1.79-1.37-3.56-2.78-5.34-4.17s-3.36-2.57-5-3.92c-.83-.68-1.36-.57-2,.26-1.62,2-1.65,2-3.72.41-.35-.27-.67-.55-1-.8-.57-.4-.54-.81-.13-1.32.88-1.08,1.7-2.21,2.59-3.28a1.88,1.88,0,0,1,2.66.17,2.54,2.54,0,0,1,.23.34,3.53,3.53,0,0,0,3.29,2.53,1.1,1.1,0,0,1,1.09.9,3.33,3.33,0,0,0,3.16,2.47,1.08,1.08,0,0,1,1.14.85,3.41,3.41,0,0,0,3.25,2.55,3,3,0,0,1,1.64,2.34,1.11,1.11,0,0,1-1.82.67Zm4.21-1.28c-1.5-.19-1.46-1.28-1.44-2.35A2.63,2.63,0,0,1,262,90c.15-.4.16-.76-.24-1a.7.7,0,0,0-.91.17,2,2,0,0,1-2.73.42c-.94-.67-.83-1.77-.52-2.77.14-.44.34-.85-.12-1.17s-.78,0-1.13.31a1.94,1.94,0,0,1-2.51.28c-.83-.54-.77-1.45-.69-2.33,0-.54.67-1.1,0-1.6s-1,.21-1.46.51a1.92,1.92,0,0,1-2.3,0,2.26,2.26,0,0,1-.6-2.38c.08-.52.68-1.1,0-1.56s-.92.26-1.34.52a1.91,1.91,0,0,1-2.68-.33,2.09,2.09,0,0,1,.54-2.9,1.27,1.27,0,0,1,.22-.13c.21-.12.4-.27.61-.39,1.69-1,3.16-1.23,4.84.38a79.73,79.73,0,0,0,6.54,5.2c2.5,2,5,3.95,7.52,5.85a2,2,0,0,1,.94,2.45c-.18.64-.26,1.32-.41,2a1.9,1.9,0,0,1-2.05,1.74,1.64,1.64,0,0,1-.32,0Z"/><path id="Path_274" data-name="Path 274" class="cls-1" d="M185.35,197.07c.92-1.4.89-3,1.19-4.54a2,2,0,0,0-.93-2.2c-2.79-2.13-5.54-4.31-8.31-6.47L171.05,179c-3.44-2.69-3.44-2.69-7.26-.53a5,5,0,0,0-.48.32,3.18,3.18,0,0,0-1.22,4.24c.5.9.19,1.37-.31,2-3,3.85-6,7.74-9.09,11.57-.65.82-.67,1.28.21,1.95q8.16,6.3,16.25,12.71c.91.72,1.37.61,2-.28,3-3.89,6-7.73,9-11.61a1.75,1.75,0,0,1,1.91-.85A3,3,0,0,0,185.35,197.07ZM157,199.86c-3.24-2.21-3.25-2.2-.89-5.22l.53-.68a8.46,8.46,0,0,1,.54-.68c.75-.78,1.16-2.36,2.16-2.3,1.27.09,2.16,1.46,3.24,2.25.48.35.29.73,0,1.1-1.42,1.82-2.85,3.62-4.25,5.45C157.85,200.36,157.48,200.21,157,199.86Zm12.2,9.53c-1.53-1.24-3.1-2.43-4.65-3.64s-3.16-2.51-4.78-3.72c-.64-.48-.7-.89-.19-1.53q3.27-4.11,6.48-8.29c.47-.61.85-.78,1.52-.25q4.74,3.76,9.54,7.46c.58.46.65.83.18,1.42-2.21,2.78-4.4,5.59-6.57,8.4C170.18,209.92,169.76,209.89,169.16,209.39Zm8.78-11.12c-1.79-1.37-3.56-2.78-5.34-4.17s-3.36-2.57-5-3.92c-.81-.66-1.35-.62-2,.22-1.65,2.08-1.68,2-3.72.45-.31-.24-.59-.5-.92-.71-.68-.44-.72-.9-.19-1.52.69-.8,1.31-1.66,2-2.49,1.34-1.71,2.73-1.6,3.67.32a3.34,3.34,0,0,0,2.9,2,1.31,1.31,0,0,1,1.31,1,3.23,3.23,0,0,0,3.08,2.35,1.19,1.19,0,0,1,1.21,1,3.36,3.36,0,0,0,3.19,2.44,3.07,3.07,0,0,1,1.66,2.32,1.11,1.11,0,0,1-1.26.94,1.06,1.06,0,0,1-.54-.24Zm4.14-1.3c-1.43-.19-1.39-1.23-1.4-2.25a2.91,2.91,0,0,1,.26-1,.73.73,0,0,0-.18-.91.72.72,0,0,0-1,.14,2,2,0,0,1-2.73.36c-.86-.63-.78-1.69-.51-2.65.13-.46.44-.93-.13-1.28s-.78.06-1.12.35a2,2,0,0,1-2.52.24c-.77-.5-.75-1.39-.66-2.22a2.36,2.36,0,0,1,.19-.69c.17-.39.22-.77-.17-1a.73.73,0,0,0-1,.2,2,2,0,0,1-2.73.31,2.33,2.33,0,0,1-.48-2.67c.13-.42.39-.84,0-1.18s-.84,0-1.24.31c-1.13.83-2.34.71-2.88-.22a2,2,0,0,1,.53-2.84l.29-.17c.84-.44,1.74-.79,2.59-1.23s1.17,0,1.67.43l7.72,6c2.54,2,5.06,4,7.63,5.94a1.89,1.89,0,0,1,.82,2.23c-.19.7-.28,1.42-.45,2.12a1.9,1.9,0,0,1-2.06,1.71,2.05,2.05,0,0,1-.34-.07Z"/><path id="Path_275" data-name="Path 275" class="cls-1" d="M287,70.77c.62-.78.62-1.22-.2-1.85q-9.12-7.07-18.18-14.21c-.87-.69-1.3-.58-1.94.26q-4.51,5.89-9.15,11.7c-.66.83-.67,1.29.21,2,3.07,2.32,6.08,4.72,9.11,7.09s6,4.66,9,7c.78.63,1.25.77,2-.15C280.82,78.61,283.91,74.68,287,70.77Zm-11.32,10q-4-3.12-7.95-6.22c-2.65-2.07-5.27-4.18-8-6.2-.88-.66-.9-1.13-.22-1.94,1.51-1.81,2.93-3.69,4.36-5.57.48-.63.88-.71,1.52-.2q8.16,6.42,16.36,12.79c.6.47.6.85.16,1.42-1.56,2-3.12,3.92-4.62,5.92-.61.81-1.07.45-1.65,0Zm7.81-10-15.9-12.43c-.54-.42-1.11-.74-.47-1.6s1.17-.43,1.76,0l8,6.21,7.84,6.13c.58.46,1.2.8.48,1.7S284.06,71.19,283.51,70.76Z"/><path id="Path_276" data-name="Path 276" class="cls-1" d="M205.93,174.5c.64-.8.54-1.23-.24-1.84q-9.12-7.07-18.18-14.22c-.89-.7-1.32-.5-1.94.31q-4.51,5.88-9.15,11.7c-.69.86-.59,1.3.26,2,3,2.29,6,4.66,9,7s6.08,4.71,9.08,7.12c.81.65,1.27.69,1.95-.2Q201.25,180.37,205.93,174.5ZM194.6,184.57c-2.62-2.1-5.29-4.16-7.94-6.23s-5.36-4.23-8.08-6.29c-.75-.57-.82-1-.21-1.74q2.24-2.73,4.35-5.57c.54-.72,1-.86,1.73-.25q8,6.34,16.13,12.61c.69.54.76,1,.2,1.63-1.51,1.86-3,3.75-4.44,5.68C195.75,185.22,195.3,185.13,194.6,184.57Zm7.9-10q-8.06-6.32-16.13-12.61c-.56-.43-.88-.78-.33-1.51s1.05-.51,1.65,0c2.68,2.12,5.37,4.21,8.06,6.31s5.29,4.15,8,6.21c.61.47,1,.84.34,1.61S203.06,175,202.5,174.6Z"/><path id="Path_278" data-name="Path 278" class="cls-1" d="M281.05,26.87c-.29-2.62-.92-5.19-.66-7.87.36-3.77.5-7.55.72-11.32.07-1.13-.32-1.63-1.62-1.46-7.39,1-14.8,1.83-22.2,2.75-1.66.21-1.8.45-1.27,2,2.17,6.46,4.15,13,4.5,19.85,0,.19.06.38.07.57a1.3,1.3,0,0,0,.68,1.06c.5.55,1.14.35,1.75.27,5-.6,9.93-1.23,14.9-1.81C281.64,30.49,281.45,30.61,281.05,26.87Zm-20.17-5.71-.28-.88c-.91-2.82-1.81-5.65-2.75-8.47-.31-.92-.09-1.28.91-1.4Q268.65,9.26,278.53,8c.62-.08,1.06-.2,1,.8-.26,3.14-.4,6.3-.56,9.46a.85.85,0,0,1-.78.91h-.1l-16.47,2a4.21,4.21,0,0,1-.71,0Zm17.86,8c-5.16.59-10.3,1.25-15.45,1.87-.33,0-.67.17-1-.12a6.47,6.47,0,0,1-.16-.77c-.28-2.19-.51-4.39-.83-6.57-.12-.81.19-1,.89-1.05q7.65-.9,15.3-1.87c.84-.11,1.21.05,1.3,1,.21,2.15.49,4.29.78,6.43.1.69,0,1-.79,1.11Z"/><path id="Path_279" data-name="Path 279" class="cls-1" d="M200.16,132.68c-.16-1.29-.36-2.58-.46-3.87a33.91,33.91,0,0,1-.45-5.87c.35-3.86.52-7.74.74-11.6,0-1-.23-1.53-1.42-1.38-7.5,1-15,1.85-22.49,2.78-1.56.19-1.71.45-1.19,2,2.21,6.51,4.17,13.07,4.53,20,0,.19.05.38.07.57a1.25,1.25,0,0,0,.62.93,1.36,1.36,0,0,0,1.18.39l17.61-2.17a1.34,1.34,0,0,0,1.32-1.37A1.09,1.09,0,0,0,200.16,132.68Zm-20.63-8.49c-.92-2.93-1.88-5.84-2.83-8.75-.25-.75-.09-1.15.8-1.25q10-1.18,20.05-2.44c.24,0,.47,0,.65,0,.35.28.18.57.16.84-.18,3.16-.37,6.31-.53,9.47a.85.85,0,0,1-.78.92H197l-16.47,2c-.66.09-.79-.24-1-.76Zm18,8.76c-5.1.6-10.2,1.24-15.31,1.86-.32,0-.66,0-.91.05A1,1,0,0,1,181,134c-.28-2.24-.52-4.48-.84-6.72-.1-.72.16-.89.81-1q7.73-.91,15.44-1.89c.77-.1,1.15,0,1.23.89q.33,3.3.81,6.58c.13.78-.15,1-.86,1Z"/><path id="Path_280" data-name="Path 280" class="cls-1" d="M257.55,160.54c.64-1.28,1.43-2.48,2.14-3.72,2.3-4,4.51-8.07,6.94-12,.86-1.39.5-2.06-.65-2.72a1.19,1.19,0,0,1-.72-1.5,1.17,1.17,0,0,1,.22-.37,4.82,4.82,0,0,0,.23-3.24c-.6-4.41-6.16-6.87-9.73-4.18-.93.7-1.37.56-2-.11-.89-.92-1.58-1.14-2.69,0-2.57,2.68-5.38,5.12-8.06,7.69-1.75,1.68-3.44,3.44-5.15,5.16-.71.71-.52,1.3.14,2a65.27,65.27,0,0,0,8.32,7.17,62.82,62.82,0,0,0,8.95,6.32C256.34,161.55,257,161.63,257.55,160.54ZM256.87,134a5.12,5.12,0,0,1,5.63.22,5.39,5.39,0,0,1,1.63,5.46c-.24.61-.55.83-1.18.4a32.8,32.8,0,0,1-6.28-4.91C256.05,134.66,256.33,134.4,256.87,134Zm-1.51,25.12a54,54,0,0,1-8-5.64A51.83,51.83,0,0,1,239.9,147c-.52-.56-.55-.83,0-1.37q5.79-5.53,11.52-11.13c.14-.13.28-.26.43-.38.54-.43,1.12-.67,1.59.05s.07,1.2-.63,1.4a1.26,1.26,0,0,0-1,1.49.07.07,0,0,0,0,.05,1.28,1.28,0,0,0,1.27,1.17c1,.07,1.36-.52,1.42-1.41,0-.36-.1-.84.39-1s.73.25,1,.52a23.33,23.33,0,0,0,6,4.67c.34.19.85.39.78.93s-.57.45-.92.55c-.89.28-1,1-.87,1.73a1.1,1.1,0,0,0,1.25.93h0a1.21,1.21,0,0,0,1.33-1.07v-.14a1.07,1.07,0,0,1,.72-1.12,1,1,0,0,1,1,.43c.42.47.06,1-.15,1.32-1.05,1.93-2.18,3.81-3.28,5.71-1.59,2.77-3.21,5.53-4.76,8.32-.45.82-.78.94-1.65.44Z"/><path id="Path_281" data-name="Path 281" class="cls-1" d="M338.62,56.83c.32-.69.77-1.32,1.15-2,2.66-4.62,5.24-9.29,8-13.85.75-1.24.59-1.87-.52-2.53a1.39,1.39,0,0,1-.82-1.8,1.47,1.47,0,0,1,.14-.28,6,6,0,0,0-2-7c-2.09-1.68-5.22-2.09-7.21-.54-1.16.9-1.78.7-2.61-.16s-1.36-.8-2.24.1c-2.61,2.64-5.39,5.11-8.07,7.68-1.79,1.72-3.51,3.5-5.26,5.25a1.2,1.2,0,0,0,.06,2,66.05,66.05,0,0,0,8.36,7.21,64,64,0,0,0,9,6.36C337.45,57.79,338.14,57.89,338.62,56.83Zm-.7-26.53a4.83,4.83,0,0,1,7.52,4,4.39,4.39,0,0,1-.09,1.14c-.18,1-.51,1.42-1.6.69A31.1,31.1,0,0,1,340.59,34a18.18,18.18,0,0,1-2.76-2.5c-.56-.47-.53-.76.09-1.18Zm-1.43,25.11a55.15,55.15,0,0,1-8.16-5.73A51.51,51.51,0,0,1,321,43.3c-.51-.55-.59-.82,0-1.37,3.87-3.69,7.7-7.42,11.54-11.13a3.88,3.88,0,0,1,.42-.39c.53-.42,1.12-.7,1.58,0s0,1.15-.73,1.48a1.33,1.33,0,0,0-.81,1.71,1.3,1.3,0,0,0,.32.51,1.38,1.38,0,0,0,1.45.37c.7-.19.81-.74.88-1.34,0-.36-.11-.84.37-1s.73.23,1,.5a23.33,23.33,0,0,0,6,4.67c.35.19.85.4.79.92s-.56.47-.9.57c-.89.27-1,.94-.89,1.71a1.1,1.1,0,0,0,1.24.95h0a1.21,1.21,0,0,0,1.35-1v-.14a1.09,1.09,0,0,1,.71-1.13,1,1,0,0,1,1,.41c.44.47.08,1-.13,1.32-1.78,3.16-3.62,6.29-5.44,9.42-.88,1.53-1.78,3-2.6,4.61-.43.8-.74.95-1.64.46Z"/><path id="Path_282" data-name="Path 282" class="cls-1" d="M144.77,187.78c2.75-5.66,5.48-11.34,8.29-17,.63-1.27.54-2.11-.73-2.81-.73-.41-1-.82-.53-1.83a4.17,4.17,0,0,0,.18-3.75c-1.57-3.4-5-4.39-8.09-2.2a1.1,1.1,0,0,1-1.56,0l0,0c-1.64-1.26-1.78-1.19-3.39.17-4.74,4-9.49,8-14.28,11.93-.94.78-1,1.21,0,1.94,3.06,2.33,6.07,4.73,9.1,7.1l9,7C143.87,189.24,144.09,189.17,144.77,187.78Zm-2.39-1.52c-2.6-2.07-5.22-4.1-7.84-6.14s-5.06-4-7.61-5.94c-.75-.57-1.21-.89-.13-1.75,4.37-3.54,8.64-7.21,13-10.81.44-.36.9-.93,1.63-.34s1.16,1,0,1.48c-.7.3-1.14.75-.89,1.56a1.23,1.23,0,0,0,1.29.94,1.27,1.27,0,0,0,1.29-1.24V164c.08-1.06.53-1,1.18-.44,1.4,1.1,2.8,2.2,4.2,3.28.67.52.63.93-.14,1.23a1.36,1.36,0,0,0-1,1.67v0a1.13,1.13,0,0,0,1.19.86,1.31,1.31,0,0,0,1.36-1.24.53.53,0,0,0,0-.13c.05-.48.15-1,.76-.63s1.33.75.91,1.67c-.73,1.6-1.5,3.19-2.28,4.78-1.76,3.6-3.58,7.17-5.27,10.8C143.54,186.88,143.19,186.91,142.38,186.26Z"/><path id="Path_283" data-name="Path 283" class="cls-2" d="M147.13,163.93c-.57-.44-1.14-.88-1.7-1.33-1.1-.87-1.07-1,.2-1.7a3.62,3.62,0,0,1,4,.59,3.94,3.94,0,0,1,.84,4c-.28.7-.64.55-1.08.21Z"/><path id="Path_284" data-name="Path 284" class="cls-1" d="M225.89,84c2.73-5.63,5.44-11.26,8.22-16.86.65-1.28.67-2.2-.7-2.93-.79-.42-1-.88-.48-1.83a4.22,4.22,0,0,0,.26-3.49c-1.41-3.52-5-4.67-8.11-2.49a1.17,1.17,0,0,1-1.71,0c-1.57-1.24-1.75-1.18-3.29.12-4.78,4-9.56,8.05-14.39,12-1,.81-.86,1.25.06,1.94,3,2.31,6,4.67,9,7l9,7C225,85.51,225.18,85.45,225.89,84Zm.57-26.7a3.57,3.57,0,0,1,4.14.33,3.87,3.87,0,0,1,1,4.08c-.26.68-.6.63-1.07.26l-2.26-1.77c-.64-.5-1.25-1-1.93-1.49-.94-.6-.56-1,.12-1.41Zm-3,25.19c-2.6-2.06-5.22-4.09-7.84-6.13s-5.06-4-7.62-5.94c-.79-.61-1.11-.93-.08-1.76,4.37-3.54,8.65-7.2,13-10.81a2.2,2.2,0,0,1,.85-.52,1.31,1.31,0,0,1,1.38.82c.34.54-.3.7-.66.87-.69.32-1.12.78-.85,1.58a1.24,1.24,0,0,0,1.31.92,1.21,1.21,0,0,0,1.24-1.18c.1-1.34.65-1,1.34-.46,1.28,1,2.56,2,3.87,3,.78.58,1,1.06-.1,1.48a1.26,1.26,0,0,0-.8,1.6v0a1.17,1.17,0,0,0,1.21.85,1.29,1.29,0,0,0,1.3-1.13c.12-.47-.06-1.24.81-.86.65.28,1.3.76.88,1.68-.53,1.17-1.07,2.34-1.63,3.5-2,4-4,8-5.92,12.08-.52,1.07-.9,1-1.68.37Z"/><path id="Path_286" data-name="Path 286" class="cls-1" d="M225.1,147.4a7.19,7.19,0,0,0-3.25-.37c-.43,0-.88.23-1.25-.13-1.4-1.36-3.3-1.83-4.93-2.77a2.47,2.47,0,0,0-1.66-.26c-4.49.56-9,1.14-13.47,1.64-1.23.14-1.66.62-1.48,1.87.41,2.86.77,5.72,1.05,8.6.13,1.33.69,1.7,2,1.52,3.48-.49,7-1,10.46-1.26,2.49-.19,4.68-.82,6.37-2.74.16-.18.35-.34.51-.51a7.49,7.49,0,0,1,4.68-2.75,2.1,2.1,0,0,0,1.55-1C226.26,148.41,226.16,147.81,225.1,147.4Zm-6,3.91a26,26,0,0,0-2.7,2.32,2.19,2.19,0,0,1-1.4.62c-4.11.5-8.22,1-12.32,1.53-.86.12-1.18,0-1.26-.95-.2-2.26-.49-4.5-.82-6.74-.13-.89.15-1.17,1-1.27q6.1-.69,12.18-1.49a3.12,3.12,0,0,1,1.8.34c1,.46,1.94,1,3.29,1.72-1.49.1-2.46.53-3.61.07a2.31,2.31,0,0,0-3,1.34,1.55,1.55,0,0,0-.08.23,2.5,2.5,0,0,0,1.58,3.16l.1,0a2.65,2.65,0,0,0,3-1.82c.17-.48.09-1.08.75-1.28s1.35-.62,1.68,0a1.55,1.55,0,0,1-.23,2.2Zm-3.88-.93a.81.81,0,0,1-1.28.13.94.94,0,0,1-.13-1.31A.88.88,0,0,1,215,149l.06,0a1,1,0,0,1,.12,1.37Z"/><path id="Path_287" data-name="Path 287" class="cls-2" d="M223.38,148.81c-.53.16-1,.37-1.6.48-.27.06-.75.3-.83-.22s.44-.55.8-.55c.52,0,1.05,0,1.57.07Z"/><path id="Path_289" data-name="Path 289" class="cls-1" d="M306.23,43.66a7.05,7.05,0,0,0-3.25-.39c-.42,0-.9.25-1.24-.11-1.25-1.33-3.07-1.68-4.54-2.62a3.51,3.51,0,0,0-2.48-.38c-4.29.56-8.59,1.11-12.89,1.57-1.34.15-1.86.61-1.65,2,.43,2.8.77,5.62,1,8.45.13,1.3.64,1.73,2,1.55,4.34-.59,8.69-1.09,13-1.62a2.68,2.68,0,0,0,1.5-.44,48.77,48.77,0,0,0,3.95-3.51,4.2,4.2,0,0,1,2.42-1.37,3.72,3.72,0,0,0,2.67-1.29C307.39,44.68,307.29,44.07,306.23,43.66Zm-6,3.9A31.11,31.11,0,0,0,297.39,50a2,2,0,0,1-1.3.51c-4.1.5-8.21,1-12.31,1.53-.86.11-1.17-.05-1.26-1-.2-2.25-.49-4.5-.82-6.74-.13-.89.16-1.16,1-1.26q6.09-.69,12.17-1.49a2.9,2.9,0,0,1,1.67.29c1,.48,2,1,3,1.55-1.1.32-2.07.75-3.22.28a2.32,2.32,0,0,0-3,1.35,2,2,0,0,0-.08.22,2.51,2.51,0,0,0,1.58,3.17l.1,0a2.67,2.67,0,0,0,3-1.83c.17-.48.09-1.08.74-1.28s1.36-.62,1.69,0S301.12,46.87,300.21,47.56Zm-4-.85a.74.74,0,0,1-1.05.17l-.09-.08a.93.93,0,0,1-.23-1.3l.08-.1c.33-.44.85-.33,1.33-.14a1.11,1.11,0,0,1,0,1.45Zm6.32-1.13c-.23.05-.5.05-.52-.3a.42.42,0,0,1,.35-.47.11.11,0,0,1,.08,0c.66,0,1.32,0,2,0l0,.28c-.64.17-1.28.35-1.93.49Z"/><path id="Path_290" data-name="Path 290" class="cls-1" d="M243.48,184.24c-.42-2.4-.78-4.82-1.3-7.21-.6-2.8-.73-5.69-1.74-8.56.57.1,1,.19,1.42.25a3.37,3.37,0,0,0,3.34-2,3.55,3.55,0,0,0-4.92-4.61c-.56.42-1.39,1-1,1.71.46.84,1.08.07,1.64-.26a2.12,2.12,0,0,1,2.33.05,2,2,0,0,1,.71,2.19,1.42,1.42,0,0,1-1.51,1.28,15.67,15.67,0,0,0-3.93.26c-5.14.58-10.31.8-15.47,1.14-.89.06-1.69.3-1.91,1.21s.59,1.23,1.15,1.67l18.64,14.58c.61.47,1.23,1.11,2,.55S243.63,185.06,243.48,184.24Zm-20.24-14c2.56-.61,5-.44,7.41-.75,2.22-.29,4.48-.27,6.71-.48a1.67,1.67,0,0,1,2,1.22.29.29,0,0,0,0,.09,41.24,41.24,0,0,1,.78,4.53c.68,3.2,1.14,6.45,1.74,10Z"/><path id="Path_291" data-name="Path 291" class="cls-1" d="M211.55,107.47c-1.12-3.36-2.09-6.77-3.21-10.12-.28-.86-.09-1.19.68-1.48a5.82,5.82,0,0,0,3.09-2.47c3.92-4.28,1.21-10.77-3.89-12.23a7.82,7.82,0,0,0-9.54,5.49,7.65,7.65,0,0,0,5.38,9.4c.21.06.42.11.64.15,1.37.2,1.53.86,1.45,2-.23,3.34-.38,6.68-.61,10a3.15,3.15,0,0,0,1.51,3.18,3.27,3.27,0,0,0,3.76-.46A3.37,3.37,0,0,0,211.55,107.47Zm-.63-14.89a6.26,6.26,0,0,1-8.6,1,6.38,6.38,0,0,1-1-8.87,6.47,6.47,0,0,1,8.79-1C212.52,85.72,213.44,89.87,210.92,92.58Zm-2.08,17.57c-1.31.17-1.78-.61-1.75-1.7.09-2.43.28-4.85.43-7.27l.41-.06c.73,2.36,1.5,4.7,2.18,7.08a1.37,1.37,0,0,1-.67,1.82,1.25,1.25,0,0,1-.6.13Z"/><path id="Path_292" data-name="Path 292" class="cls-1" d="M130.46,211.32c-1.11-3.42-2.11-6.86-3.24-10.27-.26-.79-.12-1.11.61-1.39a5.84,5.84,0,0,0,3.12-2.45c4.1-4.41,1.1-11.06-4-12.33a7.79,7.79,0,0,0-9.39,5.77l0,.1a7.7,7.7,0,0,0,5.87,9.17l.28.06c1.32.17,1.48.81,1.41,1.88-.23,3.38-.4,6.78-.63,10.17a3.13,3.13,0,1,0,6-.71Zm-.61-15a6.2,6.2,0,1,1-.82-8.72,6.15,6.15,0,0,1,.88,8.65Zm-2.14,17.62c-1.31.16-1.76-.65-1.73-1.73.09-2.42.28-4.83.43-7.25l.4-.05c.73,2.32,1.5,4.62,2.17,7,.3,1,0,1.92-1.27,2.08Z"/><path id="Path_293" data-name="Path 293" class="cls-1" d="M278.37,129.35a3.7,3.7,0,0,0,0-1.72c-.43-2.5-.79-5-1.34-7.5s-.65-5.13-1.57-7.74a16.9,16.9,0,0,0,1.74.09,3.63,3.63,0,0,0,3.15-2.54,3.57,3.57,0,0,0-1.18-3.74,3.63,3.63,0,0,0-4.06-.22c-.59.38-1.37.92-.88,1.71s1,0,1.53-.3a2.74,2.74,0,0,1,.92-.37,1.75,1.75,0,0,1,2.16,1.21c0,.1,0,.2.05.3.13,1,0,2-1.24,2.24a23.07,23.07,0,0,1-3.8.37c-5.27.2-10.49.9-15.76,1a1.85,1.85,0,0,0-1.92,1c-.34.92.41,1.37,1,1.85q9.33,7.28,18.66,14.58a4.45,4.45,0,0,0,.69.52C277.42,130.61,278.06,130.38,278.37,129.35Zm-1.83-1.08-18.48-14.44c2.1-.19,4-.38,5.84-.53,2.48-.19,5-.3,7.45-.53s2.84.09,3.22,2.45c.59,3.64,1.28,7.27,1.94,10.89.12.7.31,1.38.46,2.06Z"/><path id="Path_296" data-name="Path 296" class="cls-1" d="M237.52,112.8a12.11,12.11,0,0,0-17.09.92c-.17.19-.33.38-.49.58-4.23,5.36-3.16,13.31,2.13,16.93,4.82,4.37,12.87,3.36,16.86-1.78A12.07,12.07,0,0,0,237.52,112.8Zm-14.6,17.27a10.56,10.56,0,0,1-1.79-14.87,10.67,10.67,0,0,1,16.78,13.19c-3.48,4.38-10.37,5.64-15,1.68Z"/><path id="Path_297" data-name="Path 297" class="cls-1" d="M318.65,9.07a12.1,12.1,0,0,0-17.09.87l-.49.57c-4.27,5.38-3.17,13.34,2.08,17,4.83,4.39,12.94,3.39,17-1.85A12.1,12.1,0,0,0,318.65,9.07ZM304.1,26.37c-4.84-3.51-5.33-10.43-1.92-14.85A10.67,10.67,0,0,1,319,24.67C315.5,29,308.69,30.23,304.1,26.37Z"/><path id="Path_298" data-name="Path 298" class="cls-1" d="M326.85,80.11a2.28,2.28,0,0,0-3.08,3.36l.15.13a2.64,2.64,0,0,0,3.05-.24A2.51,2.51,0,0,0,326.85,80.11ZM325,82.23a.51.51,0,0,1,0-.84.6.6,0,0,1,.86-.09l0,0a.55.55,0,0,1,.12.78.24.24,0,0,1-.08.09.61.61,0,0,1-.86.07Z"/><path id="Path_300" data-name="Path 300" class="cls-2" d="M229.27,39.53a.62.62,0,0,1-.87,0l0,0a.67.67,0,0,1,0-.91.57.57,0,0,1,.79-.05.28.28,0,0,1,.09.1A.68.68,0,0,1,229.27,39.53Z"/><path id="Path_301" data-name="Path 301" class="cls-2" d="M240.68,48.47a.67.67,0,0,1,.94-.14l.06.05a.52.52,0,0,1,.16.73v0a.82.82,0,0,1-1,.2C240.44,49.16,240.49,48.79,240.68,48.47Z"/><path id="Path_303" data-name="Path 303" class="cls-2" d="M148.22,143.18a.58.58,0,0,1-.79.22l-.1-.07a.66.66,0,0,1-.17-.89c.19-.36.55-.33.85-.12A.66.66,0,0,1,148.22,143.18Z"/><path id="Path_304" data-name="Path 304" class="cls-2" d="M159.7,153.13a.6.6,0,0,1-.1-.92.63.63,0,0,1,.88-.14h0a.56.56,0,0,1,.21.84C160.43,153.26,160,153.14,159.7,153.13Z"/><path id="Path_305" data-name="Path 305" class="cls-1" d="M310.93,81.93a1.94,1.94,0,0,0-2.75.2.9.9,0,0,0-.15.19,1.91,1.91,0,0,0-.16,2.7,2.22,2.22,0,0,0,.47.39,1.89,1.89,0,0,0,3-.29A2.23,2.23,0,0,0,311,82Zm-1.72,2.26a.67.67,0,0,1,.79-1.07c.2.38.34.75.08,1.09a.55.55,0,0,1-.87,0Z"/><path id="Path_307" data-name="Path 307" class="cls-1" d="M255.12,97c-.18.29-.61.34-1,.39L245,98.53c-.58.07-1.3.17-1.34-.61,0-.62.54-.94,1.18-1q4.71-.56,9.41-1.15a1.09,1.09,0,0,1,1.16.37C255.58,96.43,255.36,96.66,255.12,97Z"/><path id="Path_308" data-name="Path 308" class="cls-1" d="M251.3,93.92c-.43.49-3.73,1-4.28.59a.66.66,0,0,1-.3-.89.65.65,0,0,1,.44-.35,9.31,9.31,0,0,1,3.81-.5C251.64,92.81,251.79,93.36,251.3,93.92Z"/><path id="Path_309" data-name="Path 309" class="cls-1" d="M252.27,100.58a1.15,1.15,0,0,1-.88.66l-2.83.34c-.34,0-.72.08-.86-.31a.76.76,0,0,1,.5-.92,8.23,8.23,0,0,1,3.48-.46C252.12,99.92,252.44,100.3,252.27,100.58Z"/><path id="Path_310" data-name="Path 310" class="cls-1" d="M240.39,92.38a1,1,0,0,1-1.32.23l-.09-.07a.88.88,0,0,1-.16-1.24l0,0a.93.93,0,0,1,1.3-.1.78.78,0,0,1,.36,1Z"/><path id="Path_311" data-name="Path 311" class="cls-1" d="M174,200.73c-.2.32-.62.39-1.06.44l-9.13,1.12c-.58.07-1.3.17-1.35-.61,0-.62.54-.94,1.18-1l9.55-1.16a1,1,0,0,1,1,.37C174.48,200.18,174.26,200.4,174,200.73Z"/><path id="Path_312" data-name="Path 312" class="cls-1" d="M165.77,198.2a.72.72,0,0,1,0-1,.75.75,0,0,1,.37-.2,18.18,18.18,0,0,1,3.68-.47c.61,0,.9.5.41,1.12S166.36,198.66,165.77,198.2Z"/><path id="Path_313" data-name="Path 313" class="cls-1" d="M171,204.53a1.19,1.19,0,0,1-1,.49c-.8.1-1.6.21-2.4.29-.42.05-1,.21-1.1-.33a.92.92,0,0,1,.78-1h0a18.52,18.52,0,0,1,3-.35C170.92,203.59,171.36,203.92,171,204.53Z"/><path id="Path_314" data-name="Path 314" class="cls-1" d="M157.91,196.36a1,1,0,0,1-.19-1.3.93.93,0,0,1,1.4-.1.76.76,0,0,1,.26,1,.61.61,0,0,1-.07.1C158.93,196.66,158.43,196.56,157.91,196.36Z"/><path id="Path_315" data-name="Path 315" class="cls-1" d="M266.85,65.8l-2.94-2.31c-.37-.28-.66-.65-.34-1.1s.83-.33,1.24,0q3,2.29,5.89,4.61c.37.28.66.65.34,1.1s-.82.33-1.24,0Z"/><path id="Path_316" data-name="Path 316" class="cls-1" d="M263.13,69.49l-2.49-1.95c-.37-.29-.58-.69-.24-1.11s.76-.29,1.14,0q2.44,1.89,4.87,3.8a.79.79,0,0,1,.2,1.24c-.41.5-.77.13-1.1-.12Z"/><path id="Path_317" data-name="Path 317" class="cls-1" d="M269.54,74.5l-2.15-1.68c-.4-.31-.78-.69-.41-1.2s.84-.29,1.25,0l4.42,3.45c.39.31.79.69.4,1.2s-.93.22-1.36-.12Z"/><path id="Path_318" data-name="Path 318" class="cls-1" d="M264.74,65.62c.49.39,1,.76,1.47,1.15s.58.69.24,1.12a.68.68,0,0,1-1,.12.19.19,0,0,1-.07-.06c-1.1-.84-2.19-1.69-3.27-2.57a.66.66,0,0,1-.21-.92l.07-.09a.69.69,0,0,1,1-.11l.06,0c.57.43,1.13.88,1.7,1.33Z"/><path id="Path_319" data-name="Path 319" class="cls-1" d="M275.9,77.65c.42.32.84.64,1.24,1s.56.7.2,1.12a.7.7,0,0,1-1,0c-.91-.7-1.82-1.41-2.71-2.13-.38-.3-.57-.7-.2-1.11s.77-.24,1.15,0Z"/><path id="Path_320" data-name="Path 320" class="cls-1" d="M185.81,169.61l-2.95-2.31c-.41-.32-.76-.71-.37-1.2s.85-.25,1.26.07l5.78,4.52c.41.32.76.71.37,1.21s-.85.24-1.26-.08Z"/><path id="Path_321" data-name="Path 321" class="cls-1" d="M182,173.2l-2.37-1.86c-.37-.28-.65-.65-.33-1.1s.83-.33,1.24,0l4.75,3.72c.42.33.65.73.29,1.23s-.83.16-1.2-.12Z"/><path id="Path_322" data-name="Path 322" class="cls-1" d="M188.51,178.32l-2.38-1.86c-.37-.3-.58-.7-.24-1.12s.77-.29,1.14,0l4.65,3.63c.38.3.59.7.25,1.12s-.77.29-1.15,0Z"/><path id="Path_323" data-name="Path 323" class="cls-1" d="M182.71,170.48c-.53-.41-1.06-.82-1.58-1.24s-.57-.69-.23-1.11a.68.68,0,0,1,1-.12l.07.06c1.1.85,2.2,1.7,3.28,2.57a.67.67,0,0,1,.19.93l-.07.09a.69.69,0,0,1-1,.09l0,0c-.54-.39-1.05-.82-1.58-1.23Z"/><path id="Path_324" data-name="Path 324" class="cls-1" d="M193.82,182.44c-.49-.38-1-.75-1.46-1.16a.69.69,0,0,1-.11-1,.7.7,0,0,1,1-.1c1,.74,2,1.52,2.94,2.3a.65.65,0,0,1,.15.9h0a.66.66,0,0,1-.91.23l-.09-.07C194.78,183.23,194.31,182.82,193.82,182.44Z"/><path id="Path_332" data-name="Path 332" class="cls-1" d="M268.8,14.33l3-3.85c.24-.31.56-.65,1-.38s.19.77-.07,1.11l-5.84,7.47c-.28.35-.65.68-1.09.34s0-.76.21-1.07C266.9,16.74,267.85,15.53,268.8,14.33Z"/><path id="Path_333" data-name="Path 333" class="cls-1" d="M265,13.56c-.41.53-.81,1.06-1.23,1.58-.21.27-.45.53-.82.23a.58.58,0,0,1-.13-.78q1.37-1.81,2.81-3.59a.5.5,0,0,1,.7-.09l.06.06a.58.58,0,0,1,0,.78c-.45.61-.93,1.21-1.4,1.81Z"/><path id="Path_334" data-name="Path 334" class="cls-1" d="M273.49,17.23c-.41.52-.81,1.05-1.23,1.57-.2.26-.43.57-.81.28a.6.6,0,0,1-.15-.85l0,0q1.34-1.77,2.73-3.48a.52.52,0,0,1,.73-.11l0,0a.56.56,0,0,1,.05.78c-.45.62-.93,1.21-1.4,1.81Z"/><path id="Path_335" data-name="Path 335" class="cls-3" d="M271.2,27.78l-.63-3.91c-.08-.52-.12-.93.61-1s.95.14,1,.83c.13,1.47.29,2.93.53,4.39.13.77-.12,1-.85,1.1q-3.17.35-6.31.78c-.74.1-.91-.16-.89-.85a22.3,22.3,0,0,0-.55-4.46c-.07-.43-.29-.88.42-1,.54-.06,1.07-.18,1.15.64.1,1.14.27,2.27.4,3.41,0,.29-.19.75.43.64s.22-.51.19-.78c-.12-1.09-.24-2.17-.4-3.26-.09-.6.08-.92.72-.94s.91.2.84.74c-.18,1.24.49,2.41.29,3.64-.07.39.14.38.39.35s.33-.2.28-.5c-.18-1.13-.31-2.26-.45-3.4-.05-.37-.25-.81.26-1a1.57,1.57,0,0,1,1-.1c.46.16.18.65.27,1,.33,1.22.05,2.58.71,3.72Z"/><path id="Path_336" data-name="Path 336" class="cls-1" d="M276.58,25.46c.7-.67.49-1.45.32-2.19s-.08-1.07.74-1.19.79.45.85,1c.18,1.42.35,2.85.53,4.28.07.54.2,1-.64,1.09s-1-.2-1-.86c0-.3.17-.76-.43-.61s-.06.47,0,.7c.07.41.34.88-.38,1-.51.07-1.07.24-1.16-.59-.18-1.6-.38-3.2-.59-4.8-.05-.44,0-.76.54-.83s1.11.05,1,.51C276.07,23.82,277,24.57,276.58,25.46Z"/><path id="Path_337" data-name="Path 337" class="cls-3" d="M263.33,23.92c.06.34.12.61.15.9.2,1.57.38,3.14.58,4.72.05.42-.06.65-.5.66s-1,.28-1.07-.36c-.26-1.74-.45-3.49-.66-5.24a.5.5,0,0,1,.37-.59h.1C262.62,24,263,24,263.33,23.92Z"/><path id="Path_338" data-name="Path 338" class="cls-3" d="M273.91,22.68c.29.19.26.49.3.78.17,1.45.33,2.91.54,4.37.08.6.08,1.07-.69,1.08s-.8-.35-.84-1a36.13,36.13,0,0,0-.52-4.13c-.07-.41-.16-.77.25-1A1.09,1.09,0,0,1,273.91,22.68Z"/><path id="Path_339" data-name="Path 339" class="cls-1" d="M188.63,118.75l-2.83,3.62c-.3.39-.7.8-1.18.38s0-.78.28-1.08q2.82-3.63,5.66-7.24c.28-.36.61-.93,1.13-.52s.06.86-.23,1.23C190.53,116.34,189.58,117.55,188.63,118.75Z"/><path id="Path_340" data-name="Path 340" class="cls-1" d="M192.35,121l-1.23,1.58c-.18.22-.39.47-.71.29a.58.58,0,0,1-.29-.76l.06-.1c.91-1.22,1.85-2.41,2.81-3.59a.49.49,0,0,1,.69-.08l.07.06a.61.61,0,0,1,0,.79c-.45.61-.93,1.2-1.4,1.8Z"/><path id="Path_341" data-name="Path 341" class="cls-1" d="M183.85,117.36c-.38.49-.75,1-1.14,1.46-.21.26-.43.61-.81.35a.64.64,0,0,1-.1-1c.83-1.1,1.68-2.19,2.54-3.27.22-.28.54-.48.86-.23s.21.69,0,1C184.74,116.24,184.29,116.8,183.85,117.36Z"/><path id="Path_342" data-name="Path 342" class="cls-3" d="M189.66,131.59a13.09,13.09,0,0,0-.2-3.9c-.06-.6-.11-1,.69-1.07s.88.32.93.92c.14,1.42.3,2.84.52,4.25.12.7,0,1.08-.78,1.16q-3.23.35-6.45.79c-.69.09-.79-.21-.82-.79a20.47,20.47,0,0,0-.56-4.61c-.14-.47-.13-.85.52-.89s1-.14,1.06.59c.12,1.14.26,2.27.42,3.41,0,.26-.27.74.36.71s.31-.43.27-.72c-.13-1.09-.24-2.18-.4-3.26-.08-.56,0-1,.65-1s.95.26.88.95c-.12,1.18.48,2.31.28,3.5-.06.32.18.28.35.28.44,0,.37-.25.32-.58-.19-1.13-.26-2.28-.46-3.4-.16-.84.27-1,.94-1,.83-.06.54.52.62,1C189,129.1,188.85,130.43,189.66,131.59Z"/><path id="Path_343" data-name="Path 343" class="cls-1" d="M195.47,129.21c.75-.63.46-1.41.33-2.15s-.15-1.09.7-1.22.82.37.89.91c.17,1.48.34,2.95.54,4.43.07.52.11.91-.62,1s-1-.12-1-.82c0-.27.23-.79-.39-.65-.9.2,0,.54,0,.8,0,.48.11.85-.54.89s-1,.15-1.06-.58c-.19-1.65-.4-3.29-.6-4.94-.06-.5.2-.69.65-.73s1,.13.87.48C194.9,127.54,195.85,128.3,195.47,129.21Z"/><path id="Path_344" data-name="Path 344" class="cls-3" d="M182.21,127.67c.06.33.13.6.16.88.2,1.58.37,3.15.59,4.72.07.54-.18.68-.63.71s-.91.14-1-.5c-.22-1.7-.42-3.4-.62-5.1a.48.48,0,0,1,.35-.6l.1,0C181.5,127.72,181.83,127.7,182.21,127.67Z"/><path id="Path_345" data-name="Path 345" class="cls-3" d="M192.79,126.4c.11.12.16.16.17.19.24,1.88.51,3.76.69,5.64,0,.43-.45.42-.78.43a.65.65,0,0,1-.76-.5.81.81,0,0,1,0-.16,18.92,18.92,0,0,0-.57-4.68.62.62,0,0,1,.33-.81h0A3.71,3.71,0,0,1,192.79,126.4Z"/><path id="Path_346" data-name="Path 346" class="cls-1" d="M210.51,92.15a7.45,7.45,0,0,1-3.28,1.93c-.44.09-.92.13-1.08-.41a.81.81,0,0,1,.46-1.06.61.61,0,0,1,.18,0c2.39-.48,3.26-2.1,3.38-4.34,0-.41.21-.8.67-.79a.83.83,0,0,1,.73.78C211.91,89.71,211.12,90.89,210.51,92.15Z"/><path id="Path_347" data-name="Path 347" class="cls-1" d="M129.4,195.91a7.69,7.69,0,0,1-3.21,1.91c-.49.11-1,.17-1.17-.46a.84.84,0,0,1,.58-1l.14,0c2.27-.43,3.12-2,3.31-4.09,0-.46.1-.95.61-1s.76.46.84,1C130.75,193.62,129.93,194.74,129.4,195.91Z"/><path id="Path_351" data-name="Path 351" class="cls-1" d="M238.56,120.31a.61.61,0,0,1,.15,1,1.34,1.34,0,0,1-1,.55c-5.39.66-10.77,1.33-16.15,2-.51.06-1.31.21-1.33-.64a1.2,1.2,0,0,1,1.22-1.18l16-2A1.21,1.21,0,0,1,238.56,120.31Z"/><path id="Path_352" data-name="Path 352" class="cls-1" d="M319.75,17.6a1.24,1.24,0,0,1-1,.47L302.89,20c-.56.06-1.42.28-1.48-.62s.58-1.12,1.34-1.21q7.86-.95,15.72-1.93a1.41,1.41,0,0,1,1.5.59C320.17,17.14,319.91,17.37,319.75,17.6Z"/><path id="Path_355" data-name="Path 355" class="cls-1" d="M233,115.55a2.34,2.34,0,0,0-3.32.07,1.44,1.44,0,0,0-.22.27,2.64,2.64,0,0,0,.64,3.58,2.33,2.33,0,0,0,3.24-.63l0-.06a2.11,2.11,0,0,0-.07-3A1.83,1.83,0,0,0,233,115.55Zm-1.78,2.2a.42.42,0,0,1-.11-.7c.18-.25.41-.4.7-.17a.59.59,0,0,1,.15.76.56.56,0,0,1-.74.11Z"/><path id="Path_356" data-name="Path 356" class="cls-1" d="M229.43,124.58a2.64,2.64,0,0,0-3.47.36,2.22,2.22,0,0,0,.06,3.14,1.44,1.44,0,0,0,.27.22,2.28,2.28,0,0,0,3.22,0,2.6,2.6,0,0,0,.3-.36A2.66,2.66,0,0,0,229.43,124.58Zm-2.07,2.28a.51.51,0,0,1,0-.76.57.57,0,0,1,.78.05c.23.21.34.46.1.71S227.63,127.22,227.36,126.86Z"/><path id="Path_357" data-name="Path 357" class="cls-1" d="M314.16,11.87a2.37,2.37,0,0,0-3.35-.08,2.55,2.55,0,0,0,.27,3.84,2.29,2.29,0,0,0,3.22-.41.61.61,0,0,0,.07-.1,2.12,2.12,0,0,0,.06-3A1.55,1.55,0,0,0,314.16,11.87ZM312.22,14c-.3-.22-.2-.48,0-.72a.43.43,0,0,1,.71-.06c.19.24.29.5.05.75A.53.53,0,0,1,312.22,14Z"/><path id="Path_358" data-name="Path 358" class="cls-1" d="M310.46,20.72a2.65,2.65,0,0,0-3.37.43,2.23,2.23,0,0,0,.06,3.15,2.75,2.75,0,0,0,.26.22,2.29,2.29,0,0,0,3.23,0,2,2,0,0,0,.29-.35A2.64,2.64,0,0,0,310.46,20.72Zm-1.9,2.45c-.2-.23-.33-.51-.11-.77s.58-.25.87,0a.43.43,0,0,1,.12.62.62.62,0,0,1-.89.15Z"/><path id="Path_359" data-name="Path 359" class="cls-1" d="M283.69,154.61a12.1,12.1,0,0,0-17.09.88c-.17.18-.33.37-.49.57-4.27,5.38-3.17,13.33,2.08,16.95,4.83,4.39,12.94,3.38,17-1.85A12.11,12.11,0,0,0,283.69,154.61Zm-14.55,17.3c-4.84-3.51-5.33-10.42-1.92-14.85A10.67,10.67,0,0,1,284,170.21c-3.49,4.36-10.3,5.57-14.89,1.7Z"/><path id="Path_360" data-name="Path 360" class="cls-1" d="M284.79,163.15a1.25,1.25,0,0,1-1,.47l-15.85,1.93c-.56.07-1.42.28-1.48-.61s.58-1.12,1.34-1.21q7.86-.94,15.72-1.93a1.41,1.41,0,0,1,1.5.58C285.2,162.69,285,162.92,284.79,163.15Z"/><path id="Path_361" data-name="Path 361" class="cls-1" d="M279.2,157.41a2.38,2.38,0,0,0-3.35-.08,2.55,2.55,0,0,0,.27,3.85,2.29,2.29,0,0,0,3.22-.42l.07-.09a2.13,2.13,0,0,0,.06-3A1.55,1.55,0,0,0,279.2,157.41Zm-1.94,2.08c-.3-.22-.2-.47,0-.71a.43.43,0,0,1,.71-.07c.18.24.29.51.05.75a.53.53,0,0,1-.75,0Z"/><path id="Path_362" data-name="Path 362" class="cls-1" d="M275.49,166.26a2.64,2.64,0,0,0-3.36.43,2.24,2.24,0,0,0,.05,3.15l.27.22a2.29,2.29,0,0,0,3.23,0c.1-.11.2-.23.29-.35A2.65,2.65,0,0,0,275.49,166.26Zm-1.89,2.45c-.2-.23-.33-.51-.12-.76s.59-.26.88,0a.44.44,0,0,1,.12.63.61.61,0,0,1-.88.14Z"/><path id="Path_363" data-name="Path 363" class="cls-1" d="M188.57,81.73a12.1,12.1,0,0,0-17.09.87l-.49.57c-4.27,5.38-3.17,13.34,2.08,17,4.82,4.39,12.94,3.39,17-1.85A12.1,12.1,0,0,0,188.57,81.73ZM174,99a10.57,10.57,0,0,1-1.93-14.86A10.67,10.67,0,0,1,188.9,97.32C185.42,101.69,178.6,102.89,174,99Z"/><path id="Path_364" data-name="Path 364" class="cls-1" d="M189.67,90.26a1.25,1.25,0,0,1-1,.47L172.8,92.66c-.56.07-1.42.29-1.48-.61,0-.75.58-1.12,1.35-1.21q7.85-.95,15.71-1.93a1.39,1.39,0,0,1,1.5.59C190.08,89.8,189.83,90,189.67,90.26Z"/><path id="Path_365" data-name="Path 365" class="cls-1" d="M184.07,84.52a2.37,2.37,0,0,0-3.34-.07,2.67,2.67,0,0,0-.31.36,2.61,2.61,0,0,0,.57,3.48,2.3,2.3,0,0,0,3.23-.42l.07-.09a2.12,2.12,0,0,0,.06-3Zm-1.93,2.09c-.3-.22-.21-.48,0-.72a.43.43,0,0,1,.71-.06c.18.24.29.5,0,.75a.53.53,0,0,1-.75,0Z"/><path id="Path_366" data-name="Path 366" class="cls-1" d="M180.37,93.37a2.65,2.65,0,0,0-3.36.44,2.22,2.22,0,0,0,.05,3.14,1.49,1.49,0,0,0,.27.23,2.28,2.28,0,0,0,3.22,0,2.52,2.52,0,0,0,.3-.35A2.65,2.65,0,0,0,180.37,93.37Zm-1.9,2.46c-.2-.23-.32-.51-.11-.77a.57.57,0,0,1,.88,0,.43.43,0,0,1,.11.63A.6.6,0,0,1,178.47,95.83Z"/><path id="Path_367" data-name="Path 367" class="cls-1" d="M96,9.38a12.1,12.1,0,0,0-17.09.87c-.17.19-.33.38-.49.58-4.27,5.37-3.17,13.33,2.08,16.94,4.82,4.4,12.94,3.39,17-1.85A12.1,12.1,0,0,0,96,9.38ZM81.47,26.68c-4.85-3.51-5.34-10.43-1.93-14.85A10.67,10.67,0,1,1,96.35,25c-3.48,4.36-10.3,5.56-14.88,1.7Z"/><path id="Path_368" data-name="Path 368" class="cls-1" d="M97.12,17.91a1.25,1.25,0,0,1-1,.47L80.26,20.32c-.57.06-1.43.28-1.48-.62,0-.75.58-1.12,1.34-1.21q7.86-.94,15.71-1.92a1.4,1.4,0,0,1,1.51.58C97.53,17.45,97.28,17.68,97.12,17.91Z"/><path id="Path_369" data-name="Path 369" class="cls-1" d="M91.52,12.18a2.36,2.36,0,0,0-3.34-.08,2.67,2.67,0,0,0-.31.36,2.6,2.6,0,0,0,.57,3.48,2.3,2.3,0,0,0,3.23-.42l.07-.09a2.13,2.13,0,0,0,.06-3A2.09,2.09,0,0,0,91.52,12.18Zm-1.93,2.08c-.3-.22-.21-.48,0-.72a.43.43,0,0,1,.71-.06c.18.24.28.5,0,.75a.53.53,0,0,1-.75,0Z"/><path id="Path_370" data-name="Path 370" class="cls-1" d="M87.82,21a2.64,2.64,0,0,0-3.36.43,2.23,2.23,0,0,0,.05,3.15,2,2,0,0,0,.27.22,2.28,2.28,0,0,0,3.22,0,2.52,2.52,0,0,0,.3-.35A2.64,2.64,0,0,0,87.82,21Zm-1.9,2.45c-.2-.23-.32-.51-.11-.77a.57.57,0,0,1,.88,0,.44.44,0,0,1,.11.63.6.6,0,0,1-.88.15Z"/><path id="Path_372" data-name="Path 372" class="cls-1" d="M330.46,114.79c-2.58-2-5.15-4-7.74-6-.86-.66-1.2-1.19-.59-2.38,2.77-5.39,5.41-10.85,8.08-16.29.21-.43.27-.92.47-1.35s.36-1,1-.77a.92.92,0,0,1,.55,1.18v0a19.58,19.58,0,0,1-1.07,2.5c-1.09,2.23-2.17,4.47-3.34,6.65-.53,1,.12,1.3.68,1.73q5.63,4.41,11.26,8.81c.27.2.53.41.79.62s.47.5.21.86a.73.73,0,0,1-1,.29h0a6.86,6.86,0,0,1-.93-.67c-3.64-2.85-7.3-5.67-10.91-8.55-.91-.72-1.36-.77-1.84.45a47.81,47.81,0,0,1-2.17,4.36,1.32,1.32,0,0,0,.39,2c4.77,3.66,9.49,7.39,14.24,11.09.34.27.73.84,1.22.33s1.52-.91,1.86-1.73c.12-.3-.45-.56-.75-.79l-10.58-8.27c-.26-.21-.55-.4-.79-.63-.39-.37-1.25-.66-.8-1.3s1.19-.22,1.74.21c3.83,3,7.68,6,11.47,9a1.4,1.4,0,0,0,2,.12,1.85,1.85,0,0,0,.14-.14c1.25-1.11,2.47-2.27,3.81-3.26,1-.7.76-1.09,0-1.7q-5.59-4.34-11.15-8.71c-.31-.24-.61-.47-.9-.73a.7.7,0,0,1,.85-1.11c.28.18.54.4.81.6l12.17,9.52c1.5,1.17,1.5,1.32.06,2.54q-4.55,3.84-9.05,7.72a1.53,1.53,0,0,1-2.16.13l-.12-.11C335.71,118.85,333.08,116.84,330.46,114.79Z"/><path id="Path_373" data-name="Path 373" class="cls-1" d="M249.37,218.57q-3.92-3.07-7.85-6.13a1.52,1.52,0,0,1-.52-2.28c2.77-5.4,5.41-10.86,8.09-16.3.18-.38.27-.81.42-1.21s.35-1.14,1-.93.74.87.51,1.45c-.33.84-.74,1.65-1.15,2.47-1.07,2.18-2.14,4.37-3.26,6.53-.46.9.2,1.22.71,1.62l11.26,8.8.8.63c.28.22.49.48.24.85a.72.72,0,0,1-1,.33h0a5.72,5.72,0,0,1-.94-.67c-3.68-2.88-7.36-5.74-11-8.63-.76-.6-1.2-.77-1.67.35-.65,1.59-1.53,3.08-2.29,4.62a1.28,1.28,0,0,0,.31,1.77l.11.06c4.77,3.67,9.49,7.4,14.24,11.09.34.27.69.81,1.23.38a9.9,9.9,0,0,0,1.85-1.75c.19-.26-.49-.62-.82-.87-3.71-2.92-7.44-5.81-11.13-8.73-.47-.37-1.49-.71-.87-1.49.49-.62,1.21-.07,1.76.37,3.75,2.94,7.53,5.84,11.24,8.82.87.7,1.5.8,2.33,0a29.91,29.91,0,0,1,3.48-3c1.35-.91.9-1.4-.1-2.16-3.63-2.78-7.21-5.62-10.81-8.43-.23-.18-.45-.37-.69-.54-.42-.29-.6-.69-.3-1.1s.83-.37,1.24,0c.11.1.23.18.35.27l12.51,9.78c1.23,1,1.21,1.28,0,2.29q-4.59,3.88-9.17,7.79a1.52,1.52,0,0,1-2.15.17.43.43,0,0,1-.12-.11C254.63,222.63,252,220.61,249.37,218.57Z"/><path id="Path_379" data-name="Path 379" class="cls-1" d="M323.54,110.48a1.91,1.91,0,0,1,.8,2.58,1.94,1.94,0,0,1-.36.49,2.17,2.17,0,0,1-3.5-2.56,1.92,1.92,0,0,1,2.57-.86A2.09,2.09,0,0,1,323.54,110.48Z"/><path id="Path_380" data-name="Path 380" class="cls-1" d="M336,120.25a2,2,0,0,1,.53,3,2.23,2.23,0,0,1-3.07.51,2.1,2.1,0,0,1-.56-2.92,1.75,1.75,0,0,1,.28-.33C334.08,119.42,334.9,119.35,336,120.25Z"/><path id="Path_381" data-name="Path 381" class="cls-1" d="M242.54,214.32a1.92,1.92,0,0,1,.64,2.63,2,2,0,0,1-.4.46,2.17,2.17,0,0,1-3.33-2.77,1.91,1.91,0,0,1,2.62-.7A2.12,2.12,0,0,1,242.54,214.32Z"/><path id="Path_393" data-name="Path 393" class="cls-1" d="M360,166.44c.91-1.35.87-2.91,1.19-4.4a2.2,2.2,0,0,0-1-2.44c-2.77-2.07-5.47-4.24-8.2-6.37l-6.25-4.89c-3.44-2.69-3.45-2.69-7.26-.54-.17.1-.32.21-.48.32a3.18,3.18,0,0,0-1.23,4.25c.5.89.2,1.36-.31,2-3,3.81-6,7.66-9,11.45-.73.91-.76,1.41.23,2.16q8.11,6.24,16.14,12.62c.91.72,1.36.62,2-.27,3-3.9,6-7.74,9-11.62a1.76,1.76,0,0,1,1.9-.85A3.06,3.06,0,0,0,360,166.44Zm-28.28,2.85-.11-.08c-3.24-2.2-3.24-2.2-.34-5.9l.44-.57c2.36-3,2.65-3,5.4-.24a.78.78,0,0,1,.07,1.22c-1.43,1.8-2.85,3.62-4.26,5.44a.72.72,0,0,1-1.2.14Zm12.1,9.48c-1.57-1.27-3.17-2.5-4.76-3.74s-3.09-2.45-4.67-3.63c-.63-.48-.72-.87-.21-1.52q3.33-4.17,6.57-8.4c.47-.61.86-.6,1.43-.15q4.74,3.75,9.54,7.46c.57.45.67.82.19,1.42q-3.3,4.17-6.56,8.4c-.51.66-.92.66-1.53.16Zm8.75-11.15c-1.79-1.37-3.56-2.77-5.34-4.16s-3.36-2.58-5-3.92c-.83-.68-1.36-.58-2,.25-1.62,2.06-1.65,2-3.72.41-.34-.27-.67-.55-1-.8-.57-.4-.54-.81-.13-1.32.88-1.08,1.7-2.21,2.59-3.28a1.87,1.87,0,0,1,2.65.17,1.91,1.91,0,0,1,.24.34,3.52,3.52,0,0,0,3.29,2.53,1.1,1.1,0,0,1,1.09.91,3.35,3.35,0,0,0,3.16,2.47,1.06,1.06,0,0,1,1.14.84,3.41,3.41,0,0,0,3.25,2.55,3,3,0,0,1,1.64,2.34,1.11,1.11,0,0,1-1.25.94,1,1,0,0,1-.57-.27Zm4.21-1.28c-1.5-.19-1.45-1.27-1.44-2.35a2.64,2.64,0,0,1,.23-.82c.15-.4.16-.77-.24-1a.68.68,0,0,0-.91.17,2,2,0,0,1-2.73.41c-.94-.67-.82-1.77-.52-2.77.13-.44.34-.85-.12-1.16s-.78,0-1.13.3a1.94,1.94,0,0,1-2.51.28c-.83-.54-.77-1.45-.69-2.33,0-.53.67-1.1,0-1.59s-1,.21-1.46.5a1.92,1.92,0,0,1-2.3,0,2.26,2.26,0,0,1-.6-2.38c.08-.52.67-1.1,0-1.56s-.92.26-1.34.53a1.93,1.93,0,0,1-2.69-.34,2.09,2.09,0,0,1,.55-2.9l.22-.13c.21-.12.4-.27.61-.39,1.69-1,3.16-1.23,4.84.38a82,82,0,0,0,6.54,5.21c2.5,2,5,3.94,7.52,5.84a2,2,0,0,1,.94,2.45c-.18.65-.26,1.32-.41,2a1.91,1.91,0,0,1-2,1.74,1.65,1.65,0,0,1-.32-.06Z"/><path id="Path_399" data-name="Path 399" class="cls-1" d="M293.71,205.8c-.17-1.29-.37-2.57-.47-3.87a34.89,34.89,0,0,1-.45-5.86c.35-3.87.53-7.74.74-11.61.06-1-.22-1.53-1.42-1.37-7.49.95-15,1.84-22.49,2.77-1.56.2-1.7.46-1.19,2,2.21,6.5,4.17,13.06,4.53,20,0,.19.06.38.08.57a1.23,1.23,0,0,0,.61.93,1.36,1.36,0,0,0,1.18.38l17.62-2.16a1.34,1.34,0,0,0,1.31-1.38A1.49,1.49,0,0,0,293.71,205.8Zm-20.64-8.49c-.92-2.92-1.88-5.83-2.83-8.75-.25-.75-.08-1.14.8-1.25q10-1.19,20.06-2.44c.23,0,.47,0,.65-.05.34.29.17.57.16.85-.19,3.16-.38,6.31-.54,9.47a.84.84,0,0,1-.77.91h-.1l-16.47,2c-.65.08-.79-.25-1-.77Zm18,8.77c-5.11.6-10.21,1.24-15.31,1.86-.33,0-.66,0-.92,0a1,1,0,0,1-.35-.84c-.28-2.24-.53-4.49-.84-6.72-.11-.72.15-.9.8-1,5.16-.61,10.3-1.24,15.45-1.89.76-.1,1.14,0,1.23.89q.31,3.3.8,6.58c.13.78-.15,1-.86,1Z"/><path id="Path_404" data-name="Path 404" class="cls-1" d="M319.43,157.11c2.73-5.62,5.44-11.25,8.23-16.85.64-1.29.66-2.21-.71-2.93-.79-.42-1-.89-.48-1.84a4.18,4.18,0,0,0,.26-3.49c-1.41-3.51-5-4.67-8.11-2.49a1.17,1.17,0,0,1-1.71,0c-1.57-1.25-1.74-1.19-3.28.11-4.79,4-9.57,8.06-14.4,12-1,.81-.86,1.24.06,1.94,3,2.3,6,4.67,9,7l9,7C318.55,158.63,318.72,158.58,319.43,157.11Zm.57-26.69a3.55,3.55,0,0,1,4.14.33,3.84,3.84,0,0,1,1,4.07c-.26.69-.59.63-1.06.26l-2.26-1.77c-.65-.5-1.25-1.05-1.94-1.49-.93-.59-.55-1,.13-1.4Zm-3,25.19c-2.6-2.07-5.22-4.1-7.83-6.14s-5.06-4-7.62-5.94c-.8-.61-1.12-.92-.09-1.76,4.38-3.54,8.65-7.2,13-10.8a2.22,2.22,0,0,1,.85-.53,1.33,1.33,0,0,1,1.38.82c.34.54-.29.71-.65.87-.7.33-1.12.79-.86,1.59a1.24,1.24,0,0,0,1.32.91,1.21,1.21,0,0,0,1.24-1.18c.09-1.34.64-1,1.33-.45,1.28,1,2.56,2,3.87,3,.79.59,1,1.07-.09,1.48a1.27,1.27,0,0,0-.81,1.6v0a1.16,1.16,0,0,0,1.21.84,1.3,1.3,0,0,0,1.31-1.12c.11-.47-.06-1.25.8-.87.65.29,1.3.76.88,1.68-.53,1.17-1.07,2.34-1.63,3.5-2,4-4,8-5.92,12.08-.51,1.08-.9,1-1.67.37Z"/><path id="Path_411" data-name="Path 411" class="cls-1" d="M305.09,180.6c-1.12-3.36-2.09-6.77-3.21-10.13-.28-.85-.09-1.19.68-1.48a5.82,5.82,0,0,0,3.09-2.47c3.92-4.27,1.21-10.77-3.89-12.23a7.83,7.83,0,0,0-9.54,5.49,7.68,7.68,0,0,0,5.38,9.41l.64.14c1.37.21,1.53.86,1.45,2-.22,3.34-.37,6.69-.61,10a3.13,3.13,0,0,0,1.52,3.17,3.27,3.27,0,0,0,3.75-.45A3.35,3.35,0,0,0,305.09,180.6Zm-.63-14.89a6.26,6.26,0,0,1-8.6,1,6.39,6.39,0,0,1-1-8.88,6.47,6.47,0,0,1,8.79-1C306.06,158.84,307,163,304.46,165.71Zm-2.08,17.56c-1.3.17-1.78-.61-1.74-1.7.08-2.42.27-4.84.42-7.27l.41-.05c.73,2.35,1.51,4.7,2.18,7.07a1.38,1.38,0,0,1-.67,1.83,1.58,1.58,0,0,1-.6.13Z"/><path id="Path_416" data-name="Path 416" class="cls-1" d="M331.06,185.92a12.1,12.1,0,0,0-17.09.93c-.17.18-.33.37-.49.57-4.23,5.36-3.16,13.32,2.12,16.94,4.83,4.36,12.88,3.36,16.87-1.79A12.09,12.09,0,0,0,331.06,185.92Zm-14.6,17.27a10.56,10.56,0,0,1-1.79-14.87,10.67,10.67,0,0,1,16.78,13.19c-3.48,4.38-10.37,5.64-15,1.68Z"/><path id="Path_420" data-name="Path 420" class="cls-2" d="M322.82,112.65a.62.62,0,0,1-.87,0l-.05,0a.66.66,0,0,1,0-.9.55.55,0,0,1,.79,0l.09.1A.68.68,0,0,1,322.82,112.65Z"/><path id="Path_421" data-name="Path 421" class="cls-2" d="M334.22,121.6a.67.67,0,0,1,.94-.15l.06,0a.53.53,0,0,1,.16.74h0a.8.8,0,0,1-1,.2C334,122.28,334,121.92,334.22,121.6Z"/><path id="Path_423" data-name="Path 423" class="cls-2" d="M241.76,216.3a.58.58,0,0,1-.79.22.33.33,0,0,1-.1-.06.68.68,0,0,1-.17-.9c.19-.36.55-.33.85-.12A.64.64,0,0,1,241.76,216.3Z"/><path id="Path_424" data-name="Path 424" class="cls-2" d="M253.24,226.26a.62.62,0,0,1-.1-.93.64.64,0,0,1,.88-.14h0a.54.54,0,0,1,.21.84C254,226.38,253.57,226.27,253.24,226.26Z"/><path id="Path_427" data-name="Path 427" class="cls-1" d="M348.66,170.14c-.18.29-.61.34-1,.4l-9.13,1.11c-.58.08-1.3.17-1.34-.61,0-.62.54-.94,1.18-1,3.14-.38,6.28-.76,9.41-1.16a1.11,1.11,0,0,1,1.16.37C349.12,169.56,348.9,169.78,348.66,170.14Z"/><path id="Path_428" data-name="Path 428" class="cls-1" d="M344.84,167c-.42.49-3.72,1-4.28.59a.66.66,0,0,1-.29-.89.7.7,0,0,1,.44-.35,9.11,9.11,0,0,1,3.81-.49C345.18,165.93,345.33,166.48,344.84,167Z"/><path id="Path_429" data-name="Path 429" class="cls-1" d="M345.81,173.7a1.17,1.17,0,0,1-.88.66l-2.83.35c-.34,0-.73.08-.86-.31a.78.78,0,0,1,.49-.93,8.3,8.3,0,0,1,3.49-.46C345.66,173,346,173.42,345.81,173.7Z"/><path id="Path_430" data-name="Path 430" class="cls-1" d="M333.93,165.5a1,1,0,0,1-1.32.24l-.09-.07a.9.9,0,0,1-.15-1.25l0,0a.94.94,0,0,1,1.31-.09.78.78,0,0,1,.35,1A.59.59,0,0,1,333.93,165.5Z"/><path id="Path_459" data-name="Path 459" class="cls-1" d="M282.17,191.88l-2.82,3.61c-.31.4-.7.81-1.19.38s0-.77.28-1.08q2.82-3.63,5.66-7.23c.29-.37.61-.93,1.13-.53s.06.86-.22,1.23C284.07,189.47,283.12,190.67,282.17,191.88Z"/><path id="Path_460" data-name="Path 460" class="cls-1" d="M285.89,194.15l-1.23,1.57c-.18.23-.39.47-.71.3a.57.57,0,0,1-.28-.77.41.41,0,0,1,.05-.09q1.36-1.83,2.81-3.6a.49.49,0,0,1,.69-.08l.07.07a.6.6,0,0,1,0,.79c-.45.61-.93,1.2-1.4,1.8Z"/><path id="Path_461" data-name="Path 461" class="cls-1" d="M277.39,190.49c-.38.48-.75,1-1.14,1.46-.2.25-.43.6-.81.35a.65.65,0,0,1-.1-1c.83-1.1,1.68-2.18,2.54-3.26.22-.28.54-.48.87-.23s.2.68,0,1C278.28,189.37,277.83,189.92,277.39,190.49Z"/><path id="Path_462" data-name="Path 462" class="cls-3" d="M283.2,204.72a13.16,13.16,0,0,0-.2-3.91c-.06-.59-.1-1,.7-1.06s.87.31.93.92c.14,1.42.29,2.83.52,4.24.11.7,0,1.08-.79,1.17q-3.23.33-6.44.78c-.7.1-.8-.2-.83-.79a20.39,20.39,0,0,0-.56-4.6c-.13-.48-.13-.86.53-.9.5,0,1-.13,1.05.6.12,1.13.26,2.27.42,3.4,0,.26-.27.75.37.71s.3-.43.27-.72c-.14-1.09-.25-2.18-.41-3.26-.08-.55,0-1,.65-1s.95.26.88,1c-.12,1.17.48,2.31.28,3.49-.05.32.18.28.36.28.43,0,.36-.24.31-.58-.18-1.13-.26-2.27-.46-3.4-.16-.84.27-1,.94-1,.83,0,.54.53.62,1C282.56,202.23,282.39,203.56,283.2,204.72Z"/><path id="Path_463" data-name="Path 463" class="cls-1" d="M289,202.33c.75-.63.47-1.41.33-2.15s-.15-1.09.7-1.22.82.38.89.92c.17,1.47.34,3,.54,4.42.07.52.11.91-.62,1s-1-.12-1-.82c0-.27.23-.79-.39-.65-.9.2,0,.55,0,.8.05.48.11.86-.54.9-.5,0-1,.14-1.06-.58-.19-1.65-.39-3.3-.6-4.94-.06-.51.2-.69.66-.74s1,.13.86.48C288.44,200.66,289.4,201.43,289,202.33Z"/><path id="Path_464" data-name="Path 464" class="cls-3" d="M275.75,200.79c.06.33.13.61.16.89.2,1.57.37,3.14.58,4.72.08.54-.17.67-.62.7s-.91.14-1-.5c-.21-1.7-.41-3.4-.62-5.1a.5.5,0,0,1,.36-.6l.09,0C275,200.84,275.37,200.82,275.75,200.79Z"/><path id="Path_465" data-name="Path 465" class="cls-3" d="M286.33,199.53c.11.12.17.15.17.19.24,1.88.51,3.76.7,5.64,0,.42-.46.41-.79.43a.64.64,0,0,1-.75-.5.43.43,0,0,1,0-.16,19,19,0,0,0-.58-4.69.61.61,0,0,1,.34-.8l0,0A4.38,4.38,0,0,1,286.33,199.53Z"/><path id="Path_466" data-name="Path 466" class="cls-1" d="M304.05,165.27a7.47,7.47,0,0,1-3.28,1.94c-.44.09-.91.12-1.08-.42a.81.81,0,0,1,.46-1.06l.18,0c2.39-.48,3.27-2.09,3.39-4.33,0-.42.21-.81.66-.79a.82.82,0,0,1,.73.77C305.45,162.83,304.66,164,304.05,165.27Z"/><path id="Path_471" data-name="Path 471" class="cls-1" d="M332.1,193.43a.6.6,0,0,1,.15,1,1.29,1.29,0,0,1-1,.55c-5.38.66-10.76,1.33-16.15,2-.51.06-1.31.21-1.33-.64a1.19,1.19,0,0,1,1.22-1.17l16-2A1.21,1.21,0,0,1,332.1,193.43Z"/><path id="Path_475" data-name="Path 475" class="cls-1" d="M326.49,188.67a2.35,2.35,0,0,0-3.33.08,2.56,2.56,0,0,0,.43,3.84,2.34,2.34,0,0,0,3.25-.63l0-.05a2.11,2.11,0,0,0-.07-3A1.89,1.89,0,0,0,326.49,188.67Zm-1.78,2.2c-.31-.17-.31-.43-.11-.7s.41-.4.7-.17a.58.58,0,0,1,.15.76.54.54,0,0,1-.74.11Z"/><path id="Path_476" data-name="Path 476" class="cls-1" d="M323,197.7a2.64,2.64,0,0,0-3.47.36,2.24,2.24,0,0,0,.06,3.15l.27.22a2.3,2.3,0,0,0,3.23,0,2.45,2.45,0,0,0,.29-.35A2.67,2.67,0,0,0,323,197.7ZM320.9,200a.52.52,0,0,1,0-.77.58.58,0,0,1,.78.05c.23.21.34.46.1.72s-.63.35-.9,0Z"/></g></g></svg>