<svg xmlns="http://www.w3.org/2000/svg" width="196.097" height="50.546" viewBox="0 0 196.097 50.546">
  <g id="logo_splash" transform="translate(-35.308 -729.81)">
    <path id="Path_1" data-name="Path 1" d="M35.308,730.29v4.187H63.68V730.29Z" transform="translate(0 -0.224)" fill="#fff"/>
    <path id="Path_2" data-name="Path 2" d="M116.767,750.209c5.746-.812,8.843-4.112,8.843-9.7,0-6.761-4.219-10.216-12.2-10.216H100.608v34.556h4.475V750.77h3.722l-2.777-3.861h-.945V734.1h7.823c4.779,0,7.978,1.319,7.978,6.4,0,5.132-3.2,6.4-7.978,6.4h-3.6l5.858,8.149.166.224,6.98,9.564h5.18Z" transform="translate(-30.429 -0.224)" fill="#fff"/>
    <path id="Path_3" data-name="Path 3" d="M236.942,730.29H224.948V734.1h11.994c7.978,0,12.347,5.234,12.347,13.468,0,8.331-4.368,13.468-12.347,13.468h-7.524V738.274h-4.47v26.573h11.994c10.974,0,17.073-7.268,17.073-17.276C254.015,737.606,247.916,730.29,236.942,730.29Z" transform="translate(-88.369 -0.224)" fill="#fff"/>
    <path id="Path_4" data-name="Path 4" d="M292.948,730.05v11.028h4.331V733.74h18.114v-3.69Zm0,29.777v3.69h22.936v-3.69Zm4.331-11.519H314.41v-3.69H292.948v11.668h4.331Z" transform="translate(-120.055 -0.112)" fill="#fff"/>
    <g id="Group_1" data-name="Group 1" transform="translate(158.655 768.874)">
      <path id="Path_5" data-name="Path 5" d="M266.287,811.818a7.33,7.33,0,0,0,3.823,1.082c1.213,0,2.476-.377,2.476-1.607,0-2.46-6.216-1.41-6.216-5.315,0-2.182,1.886-3.018,3.887-3.018a8.126,8.126,0,0,1,3.97.952v1.673A7.256,7.256,0,0,0,270.5,804.5c-1.148,0-2.2.246-2.2,1.394,0,2.3,6.2,1.214,6.2,5.233,0,2.428-2.067,3.314-4.166,3.314a8.223,8.223,0,0,1-4.052-.952Z" transform="translate(-266.287 -802.96)" fill="#fff"/>
      <path id="Path_6" data-name="Path 6" d="M285.579,803.268h4a5.577,5.577,0,0,1,0,11.154h-4Zm4,9.6c2.395,0,3.608-1.542,3.608-4.019,0-2.46-1.214-4.019-3.608-4.019h-2.116v8.037Z" transform="translate(-275.277 -803.103)" fill="#fff"/>
      <path id="Path_7" data-name="Path 7" d="M309.109,814.422H307.42V803.268h1.8l5.987,8.251v-8.251h1.69v11.154h-1.8l-5.987-8.332Z" transform="translate(-285.454 -803.103)" fill="#fff"/>
    </g>
    <g id="Group_2" data-name="Group 2" transform="translate(198.208 769.038)">
      <path id="Path_8" data-name="Path 8" d="M344.52,803.268c2.657,0,4.051.935,4.051,2.985a2.277,2.277,0,0,1-1.641,2.362,2.531,2.531,0,0,1,2.051,2.673c0,2.2-1.394,3.133-4.052,3.133h-4.576V803.268Zm-.083,4.723c1.362,0,2.165-.278,2.165-1.574,0-1.279-.8-1.591-2.165-1.591h-2.2v3.165Zm-2.2,4.872h2.608c1.378,0,2.165-.394,2.165-1.69s-.787-1.673-2.165-1.689H342.24Z" transform="translate(-340.354 -803.268)" fill="#fff"/>
      <path id="Path_9" data-name="Path 9" d="M362.33,814.422h-1.886V803.268h1.886v4.691h5.38v-4.691H369.6v11.154H367.71v-4.9h-5.38Z" transform="translate(-349.716 -803.268)" fill="#fff"/>
      <path id="Path_10" data-name="Path 10" d="M382.684,803.268h4a5.577,5.577,0,0,1,0,11.154h-4Zm4,9.6c2.395,0,3.609-1.542,3.609-4.019,0-2.46-1.214-4.019-3.609-4.019H384.57v8.037Z" transform="translate(-360.079 -803.268)" fill="#fff"/>
    </g>
    <rect id="Rectangle_1" data-name="Rectangle 1" width="4.913" height="26.21" transform="translate(47.038 737.857)" fill="#fff"/>
    <path id="Path_11" data-name="Path 11" d="M169.947,739.684l-3.055,8.128-.689,1.832-1.052,2.8h.037l-1.778,4.9-2.494,6.617h-4.689l13.361-34.156h4.075l-1.73,4.593Z" transform="translate(-56.347 0)" fill="#fff"/>
    <path id="Path_12" data-name="Path 12" d="M197.023,766.771h-4.635l-2.5-6.606.032-.011-1.1-3.033-.123-.326H176.468l1.3-3.594h9.644l-.977-2.585-3.375-8.918,2.211-5.869Z" transform="translate(-65.778 -2.805)" fill="#fff"/>
    <path id="Path_13" data-name="Path 13" d="M357.507,739.684l-3.055,8.128-.689,1.832-1.052,2.8h.037l-1.778,4.9-2.494,6.617h-4.689l13.361-34.156h4.075l-1.73,4.593Z" transform="translate(-143.746 0)" fill="#fff"/>
    <path id="Path_14" data-name="Path 14" d="M384.583,766.771h-4.635l-2.5-6.606.032-.011-1.1-3.033-.123-.326H364.028l1.3-3.594h9.644L374,750.617l-3.375-8.918,2.211-5.869Z" transform="translate(-153.177 -2.805)" fill="#fff"/>
    <path id="Path_15" data-name="Path 15" d="M175.187,763.515l-.689,1.832.668-1.837Z" transform="translate(-64.86 -15.704)" fill="#fff"/>
  </g>
</svg>
